%TF.GenerationSoftware,KiCad,Pcbnew,(5.1.6-0-10_14)*%
%TF.CreationDate,2023-03-04T09:30:32+09:00*%
%TF.ProjectId,C-13XPCB,432d3133-5850-4434-922e-6b696361645f,rev?*%
%TF.SameCoordinates,Original*%
%TF.FileFunction,Paste,Top*%
%TF.FilePolarity,Positive*%
%FSLAX46Y46*%
G04 Gerber Fmt 4.6, Leading zero omitted, Abs format (unit mm)*
G04 Created by KiCad (PCBNEW (5.1.6-0-10_14)) date 2023-03-04 09:30:32*
%MOMM*%
%LPD*%
G01*
G04 APERTURE LIST*
%ADD10C,0.100000*%
%ADD11R,1.300000X0.950000*%
G04 APERTURE END LIST*
D10*
%TO.C,D20*%
G36*
X131139358Y-16916686D02*
G01*
X131304324Y-15981119D01*
X132584574Y-16206862D01*
X132419608Y-17142429D01*
X131139358Y-16916686D01*
G37*
G36*
X134635426Y-17533138D02*
G01*
X134800392Y-16597571D01*
X136080642Y-16823314D01*
X135915676Y-17758881D01*
X134635426Y-17533138D01*
G37*
%TD*%
D11*
%TO.C,D1*%
X45075000Y37340000D03*
X48625000Y37340000D03*
%TD*%
%TO.C,D2*%
X48615000Y34600000D03*
X45065000Y34600000D03*
%TD*%
%TO.C,D3*%
X48685000Y-640000D03*
X45135000Y-640000D03*
%TD*%
%TO.C,D4*%
X48555000Y-3390000D03*
X45005000Y-3390000D03*
%TD*%
D10*
%TO.C,D5*%
G36*
X67035426Y35836862D02*
G01*
X67200392Y36772429D01*
X68480642Y36546686D01*
X68315676Y35611119D01*
X67035426Y35836862D01*
G37*
G36*
X63539358Y36453314D02*
G01*
X63704324Y37388881D01*
X64984574Y37163138D01*
X64819608Y36227571D01*
X63539358Y36453314D01*
G37*
%TD*%
%TO.C,D6*%
G36*
X70425426Y32346862D02*
G01*
X70590392Y33282429D01*
X71870642Y33056686D01*
X71705676Y32121119D01*
X70425426Y32346862D01*
G37*
G36*
X66929358Y32963314D02*
G01*
X67094324Y33898881D01*
X68374574Y33673138D01*
X68209608Y32737571D01*
X66929358Y32963314D01*
G37*
%TD*%
%TO.C,D7*%
G36*
X74175426Y-4223138D02*
G01*
X74340392Y-3287571D01*
X75620642Y-3513314D01*
X75455676Y-4448881D01*
X74175426Y-4223138D01*
G37*
G36*
X70679358Y-3606686D02*
G01*
X70844324Y-2671119D01*
X72124574Y-2896862D01*
X71959608Y-3832429D01*
X70679358Y-3606686D01*
G37*
%TD*%
%TO.C,D8*%
G36*
X83255426Y-8473138D02*
G01*
X83420392Y-7537571D01*
X84700642Y-7763314D01*
X84535676Y-8698881D01*
X83255426Y-8473138D01*
G37*
G36*
X79759358Y-7856686D02*
G01*
X79924324Y-6921119D01*
X81204574Y-7146862D01*
X81039608Y-8082429D01*
X79759358Y-7856686D01*
G37*
%TD*%
%TO.C,D9*%
G36*
X85325426Y32606862D02*
G01*
X85490392Y33542429D01*
X86770642Y33316686D01*
X86605676Y32381119D01*
X85325426Y32606862D01*
G37*
G36*
X81829358Y33223314D02*
G01*
X81994324Y34158881D01*
X83274574Y33933138D01*
X83109608Y32997571D01*
X81829358Y33223314D01*
G37*
%TD*%
%TO.C,D10*%
G36*
X89425426Y28966862D02*
G01*
X89590392Y29902429D01*
X90870642Y29676686D01*
X90705676Y28741119D01*
X89425426Y28966862D01*
G37*
G36*
X85929358Y29583314D02*
G01*
X86094324Y30518881D01*
X87374574Y30293138D01*
X87209608Y29357571D01*
X85929358Y29583314D01*
G37*
%TD*%
%TO.C,D11*%
G36*
X92285426Y-7393138D02*
G01*
X92450392Y-6457571D01*
X93730642Y-6683314D01*
X93565676Y-7618881D01*
X92285426Y-7393138D01*
G37*
G36*
X88789358Y-6776686D02*
G01*
X88954324Y-5841119D01*
X90234574Y-6066862D01*
X90069608Y-7002429D01*
X88789358Y-6776686D01*
G37*
%TD*%
%TO.C,D13*%
G36*
X104345426Y29316862D02*
G01*
X104510392Y30252429D01*
X105790642Y30026686D01*
X105625676Y29091119D01*
X104345426Y29316862D01*
G37*
G36*
X100849358Y29933314D02*
G01*
X101014324Y30868881D01*
X102294574Y30643138D01*
X102129608Y29707571D01*
X100849358Y29933314D01*
G37*
%TD*%
%TO.C,D14*%
G36*
X108145426Y25656862D02*
G01*
X108310392Y26592429D01*
X109590642Y26366686D01*
X109425676Y25431119D01*
X108145426Y25656862D01*
G37*
G36*
X104649358Y26273314D02*
G01*
X104814324Y27208881D01*
X106094574Y26983138D01*
X105929608Y26047571D01*
X104649358Y26273314D01*
G37*
%TD*%
%TO.C,D15*%
G36*
X111405426Y-10853138D02*
G01*
X111570392Y-9917571D01*
X112850642Y-10143314D01*
X112685676Y-11078881D01*
X111405426Y-10853138D01*
G37*
G36*
X107909358Y-10236686D02*
G01*
X108074324Y-9301119D01*
X109354574Y-9526862D01*
X109189608Y-10462429D01*
X107909358Y-10236686D01*
G37*
%TD*%
%TO.C,D16*%
G36*
X109155426Y-13243138D02*
G01*
X109320392Y-12307571D01*
X110600642Y-12533314D01*
X110435676Y-13468881D01*
X109155426Y-13243138D01*
G37*
G36*
X105659358Y-12626686D02*
G01*
X105824324Y-11691119D01*
X107104574Y-11916862D01*
X106939608Y-12852429D01*
X105659358Y-12626686D01*
G37*
%TD*%
%TO.C,D17*%
G36*
X122505426Y26026862D02*
G01*
X122670392Y26962429D01*
X123950642Y26736686D01*
X123785676Y25801119D01*
X122505426Y26026862D01*
G37*
G36*
X119009358Y26643314D02*
G01*
X119174324Y27578881D01*
X120454574Y27353138D01*
X120289608Y26417571D01*
X119009358Y26643314D01*
G37*
%TD*%
%TO.C,D18*%
G36*
X127065426Y22426862D02*
G01*
X127230392Y23362429D01*
X128510642Y23136686D01*
X128345676Y22201119D01*
X127065426Y22426862D01*
G37*
G36*
X123569358Y23043314D02*
G01*
X123734324Y23978881D01*
X125014574Y23753138D01*
X124849608Y22817571D01*
X123569358Y23043314D01*
G37*
%TD*%
%TO.C,D19*%
G36*
X129805426Y-14003138D02*
G01*
X129970392Y-13067571D01*
X131250642Y-13293314D01*
X131085676Y-14228881D01*
X129805426Y-14003138D01*
G37*
G36*
X126309358Y-13386686D02*
G01*
X126474324Y-12451119D01*
X127754574Y-12676862D01*
X127589608Y-13612429D01*
X126309358Y-13386686D01*
G37*
%TD*%
%TO.C,D21*%
G36*
X164840392Y28997571D02*
G01*
X164675426Y29933138D01*
X165955676Y30158881D01*
X166120642Y29223314D01*
X164840392Y28997571D01*
G37*
G36*
X161344324Y28381119D02*
G01*
X161179358Y29316686D01*
X162459608Y29542429D01*
X162624574Y28606862D01*
X161344324Y28381119D01*
G37*
%TD*%
%TO.C,D22*%
G36*
X165574324Y26291119D02*
G01*
X165409358Y27226686D01*
X166689608Y27452429D01*
X166854574Y26516862D01*
X165574324Y26291119D01*
G37*
G36*
X169070392Y26907571D02*
G01*
X168905426Y27843138D01*
X170185676Y28068881D01*
X170350642Y27133314D01*
X169070392Y26907571D01*
G37*
%TD*%
%TO.C,D23*%
G36*
X146704324Y-13278881D02*
G01*
X146539358Y-12343314D01*
X147819608Y-12117571D01*
X147984574Y-13053138D01*
X146704324Y-13278881D01*
G37*
G36*
X150200392Y-12662429D02*
G01*
X150035426Y-11726862D01*
X151315676Y-11501119D01*
X151480642Y-12436686D01*
X150200392Y-12662429D01*
G37*
%TD*%
%TO.C,D24*%
G36*
X175464324Y-10218881D02*
G01*
X175299358Y-9283314D01*
X176579608Y-9057571D01*
X176744574Y-9993138D01*
X175464324Y-10218881D01*
G37*
G36*
X178960392Y-9602429D02*
G01*
X178795426Y-8666862D01*
X180075676Y-8441119D01*
X180240642Y-9376686D01*
X178960392Y-9602429D01*
G37*
%TD*%
%TO.C,D25*%
G36*
X178834324Y31651119D02*
G01*
X178669358Y32586686D01*
X179949608Y32812429D01*
X180114574Y31876862D01*
X178834324Y31651119D01*
G37*
G36*
X182330392Y32267571D02*
G01*
X182165426Y33203138D01*
X183445676Y33428881D01*
X183610642Y32493314D01*
X182330392Y32267571D01*
G37*
%TD*%
%TO.C,D26*%
G36*
X183184324Y29681119D02*
G01*
X183019358Y30616686D01*
X184299608Y30842429D01*
X184464574Y29906862D01*
X183184324Y29681119D01*
G37*
G36*
X186680392Y30297571D02*
G01*
X186515426Y31233138D01*
X187795676Y31458881D01*
X187960642Y30523314D01*
X186680392Y30297571D01*
G37*
%TD*%
%TO.C,D27*%
G36*
X180604324Y-6898881D02*
G01*
X180439358Y-5963314D01*
X181719608Y-5737571D01*
X181884574Y-6673138D01*
X180604324Y-6898881D01*
G37*
G36*
X184100392Y-6282429D02*
G01*
X183935426Y-5346862D01*
X185215676Y-5121119D01*
X185380642Y-6056686D01*
X184100392Y-6282429D01*
G37*
%TD*%
%TO.C,D28*%
G36*
X187334324Y-8238881D02*
G01*
X187169358Y-7303314D01*
X188449608Y-7077571D01*
X188614574Y-8013138D01*
X187334324Y-8238881D01*
G37*
G36*
X190830392Y-7622429D02*
G01*
X190665426Y-6686862D01*
X191945676Y-6461119D01*
X192110642Y-7396686D01*
X190830392Y-7622429D01*
G37*
%TD*%
%TO.C,D29*%
G36*
X197454324Y35021119D02*
G01*
X197289358Y35956686D01*
X198569608Y36182429D01*
X198734574Y35246862D01*
X197454324Y35021119D01*
G37*
G36*
X200950392Y35637571D02*
G01*
X200785426Y36573138D01*
X202065676Y36798881D01*
X202230642Y35863314D01*
X200950392Y35637571D01*
G37*
%TD*%
%TO.C,D30*%
G36*
X202064324Y32611119D02*
G01*
X201899358Y33546686D01*
X203179608Y33772429D01*
X203344574Y32836862D01*
X202064324Y32611119D01*
G37*
G36*
X205560392Y33227571D02*
G01*
X205395426Y34163138D01*
X206675676Y34388881D01*
X206840642Y33453314D01*
X205560392Y33227571D01*
G37*
%TD*%
%TO.C,D31*%
G36*
X200244324Y-3578881D02*
G01*
X200079358Y-2643314D01*
X201359608Y-2417571D01*
X201524574Y-3353138D01*
X200244324Y-3578881D01*
G37*
G36*
X203740392Y-2962429D02*
G01*
X203575426Y-2026862D01*
X204855676Y-1801119D01*
X205020642Y-2736686D01*
X203740392Y-2962429D01*
G37*
%TD*%
%TO.C,D32*%
G36*
X202244324Y-5698881D02*
G01*
X202079358Y-4763314D01*
X203359608Y-4537571D01*
X203524574Y-5473138D01*
X202244324Y-5698881D01*
G37*
G36*
X205740392Y-5082429D02*
G01*
X205575426Y-4146862D01*
X206855676Y-3921119D01*
X207020642Y-4856686D01*
X205740392Y-5082429D01*
G37*
%TD*%
D11*
%TO.C,D33*%
X217845000Y38140000D03*
X221395000Y38140000D03*
%TD*%
%TO.C,D34*%
X232235000Y34630000D03*
X235785000Y34630000D03*
%TD*%
%TO.C,D35*%
X220355000Y-880000D03*
X223905000Y-880000D03*
%TD*%
%TO.C,D37*%
X237245000Y37240000D03*
X240795000Y37240000D03*
%TD*%
%TO.C,D39*%
X238745000Y-710000D03*
X242295000Y-710000D03*
%TD*%
%TO.C,D40*%
X238855000Y-3470000D03*
X242405000Y-3470000D03*
%TD*%
M02*
