%TF.GenerationSoftware,KiCad,Pcbnew,(5.1.6-0-10_14)*%
%TF.CreationDate,2023-03-04T09:30:32+09:00*%
%TF.ProjectId,C-13XPCB,432d3133-5850-4434-922e-6b696361645f,rev?*%
%TF.SameCoordinates,Original*%
%TF.FileFunction,Copper,L2,Bot*%
%TF.FilePolarity,Positive*%
%FSLAX46Y46*%
G04 Gerber Fmt 4.6, Leading zero omitted, Abs format (unit mm)*
G04 Created by KiCad (PCBNEW (5.1.6-0-10_14)) date 2023-03-04 09:30:32*
%MOMM*%
%LPD*%
G01*
G04 APERTURE LIST*
%TA.AperFunction,SMDPad,CuDef*%
%ADD10C,0.100000*%
%TD*%
%TA.AperFunction,ComponentPad*%
%ADD11C,0.100000*%
%TD*%
%TA.AperFunction,ComponentPad*%
%ADD12C,1.397000*%
%TD*%
%TA.AperFunction,SMDPad,CuDef*%
%ADD13R,1.300000X0.950000*%
%TD*%
%TA.AperFunction,ComponentPad*%
%ADD14R,1.397000X1.397000*%
%TD*%
%TA.AperFunction,ComponentPad*%
%ADD15C,2.000000*%
%TD*%
%TA.AperFunction,ComponentPad*%
%ADD16C,1.524000*%
%TD*%
%TA.AperFunction,SMDPad,CuDef*%
%ADD17R,2.550000X2.500000*%
%TD*%
%TA.AperFunction,ViaPad*%
%ADD18C,0.800000*%
%TD*%
%TA.AperFunction,Conductor*%
%ADD19C,0.250000*%
%TD*%
G04 APERTURE END LIST*
%TA.AperFunction,SMDPad,CuDef*%
D10*
%TO.P,SW20,2*%
%TO.N,Net-(D20-Pad2)*%
G36*
X140328071Y-20072022D02*
G01*
X139893951Y-22534041D01*
X137382691Y-22091238D01*
X137816811Y-19629219D01*
X140328071Y-20072022D01*
G37*
%TD.AperFunction*%
%TA.AperFunction,SMDPad,CuDef*%
%TO.P,SW20,1*%
%TO.N,col4*%
G36*
X127156394Y-20328684D02*
G01*
X126722274Y-22790703D01*
X124211014Y-22347900D01*
X124645134Y-19885881D01*
X127156394Y-20328684D01*
G37*
%TD.AperFunction*%
%TD*%
%TA.AperFunction,SMDPad,CuDef*%
%TO.P,D20,2*%
%TO.N,Net-(D20-Pad2)*%
G36*
X134635426Y-17533138D02*
G01*
X134800392Y-16597571D01*
X136080642Y-16823314D01*
X135915676Y-17758881D01*
X134635426Y-17533138D01*
G37*
%TD.AperFunction*%
%TA.AperFunction,SMDPad,CuDef*%
%TO.P,D20,1*%
%TO.N,row3*%
G36*
X131139358Y-16916686D02*
G01*
X131304324Y-15981119D01*
X132584574Y-16206862D01*
X132419608Y-17142429D01*
X131139358Y-16916686D01*
G37*
%TD.AperFunction*%
%TA.AperFunction,ComponentPad*%
D11*
G36*
X129048701Y-16774995D02*
G01*
X129291287Y-15399219D01*
X130667063Y-15641805D01*
X130424477Y-17017581D01*
X129048701Y-16774995D01*
G37*
%TD.AperFunction*%
D12*
%TO.P,D20,2*%
%TO.N,Net-(D20-Pad2)*%
X137362118Y-17531600D03*
%TD*%
D13*
%TO.P,D1,2*%
%TO.N,Net-(D1-Pad2)*%
X48625000Y37340000D03*
%TO.P,D1,1*%
%TO.N,row0*%
X45075000Y37340000D03*
D14*
X43040000Y37340000D03*
D12*
%TO.P,D1,2*%
%TO.N,Net-(D1-Pad2)*%
X50660000Y37340000D03*
%TD*%
%TO.P,D2,2*%
%TO.N,Net-(D2-Pad2)*%
X50650000Y34600000D03*
D14*
%TO.P,D2,1*%
%TO.N,row1*%
X43030000Y34600000D03*
D13*
X45065000Y34600000D03*
%TO.P,D2,2*%
%TO.N,Net-(D2-Pad2)*%
X48615000Y34600000D03*
%TD*%
D12*
%TO.P,D3,2*%
%TO.N,Net-(D3-Pad2)*%
X50720000Y-640000D03*
D14*
%TO.P,D3,1*%
%TO.N,row2*%
X43100000Y-640000D03*
D13*
X45135000Y-640000D03*
%TO.P,D3,2*%
%TO.N,Net-(D3-Pad2)*%
X48685000Y-640000D03*
%TD*%
D12*
%TO.P,D4,2*%
%TO.N,Net-(D4-Pad2)*%
X50590000Y-3390000D03*
D14*
%TO.P,D4,1*%
%TO.N,row3*%
X42970000Y-3390000D03*
D13*
X45005000Y-3390000D03*
%TO.P,D4,2*%
%TO.N,Net-(D4-Pad2)*%
X48555000Y-3390000D03*
%TD*%
D12*
%TO.P,D5,2*%
%TO.N,Net-(D5-Pad2)*%
X69762118Y35838400D03*
%TA.AperFunction,ComponentPad*%
D11*
%TO.P,D5,1*%
%TO.N,row0*%
G36*
X61448701Y36595005D02*
G01*
X61691287Y37970781D01*
X63067063Y37728195D01*
X62824477Y36352419D01*
X61448701Y36595005D01*
G37*
%TD.AperFunction*%
%TA.AperFunction,SMDPad,CuDef*%
D10*
G36*
X63539358Y36453314D02*
G01*
X63704324Y37388881D01*
X64984574Y37163138D01*
X64819608Y36227571D01*
X63539358Y36453314D01*
G37*
%TD.AperFunction*%
%TA.AperFunction,SMDPad,CuDef*%
%TO.P,D5,2*%
%TO.N,Net-(D5-Pad2)*%
G36*
X67035426Y35836862D02*
G01*
X67200392Y36772429D01*
X68480642Y36546686D01*
X68315676Y35611119D01*
X67035426Y35836862D01*
G37*
%TD.AperFunction*%
%TD*%
D12*
%TO.P,D6,2*%
%TO.N,Net-(D6-Pad2)*%
X73152118Y32348400D03*
%TA.AperFunction,ComponentPad*%
D11*
%TO.P,D6,1*%
%TO.N,row1*%
G36*
X64838701Y33105005D02*
G01*
X65081287Y34480781D01*
X66457063Y34238195D01*
X66214477Y32862419D01*
X64838701Y33105005D01*
G37*
%TD.AperFunction*%
%TA.AperFunction,SMDPad,CuDef*%
D10*
G36*
X66929358Y32963314D02*
G01*
X67094324Y33898881D01*
X68374574Y33673138D01*
X68209608Y32737571D01*
X66929358Y32963314D01*
G37*
%TD.AperFunction*%
%TA.AperFunction,SMDPad,CuDef*%
%TO.P,D6,2*%
%TO.N,Net-(D6-Pad2)*%
G36*
X70425426Y32346862D02*
G01*
X70590392Y33282429D01*
X71870642Y33056686D01*
X71705676Y32121119D01*
X70425426Y32346862D01*
G37*
%TD.AperFunction*%
%TD*%
D12*
%TO.P,D7,2*%
%TO.N,Net-(D7-Pad2)*%
X76902118Y-4221600D03*
%TA.AperFunction,ComponentPad*%
D11*
%TO.P,D7,1*%
%TO.N,row2*%
G36*
X68588701Y-3464995D02*
G01*
X68831287Y-2089219D01*
X70207063Y-2331805D01*
X69964477Y-3707581D01*
X68588701Y-3464995D01*
G37*
%TD.AperFunction*%
%TA.AperFunction,SMDPad,CuDef*%
D10*
G36*
X70679358Y-3606686D02*
G01*
X70844324Y-2671119D01*
X72124574Y-2896862D01*
X71959608Y-3832429D01*
X70679358Y-3606686D01*
G37*
%TD.AperFunction*%
%TA.AperFunction,SMDPad,CuDef*%
%TO.P,D7,2*%
%TO.N,Net-(D7-Pad2)*%
G36*
X74175426Y-4223138D02*
G01*
X74340392Y-3287571D01*
X75620642Y-3513314D01*
X75455676Y-4448881D01*
X74175426Y-4223138D01*
G37*
%TD.AperFunction*%
%TD*%
D12*
%TO.P,D8,2*%
%TO.N,Net-(D8-Pad2)*%
X85982118Y-8471600D03*
%TA.AperFunction,ComponentPad*%
D11*
%TO.P,D8,1*%
%TO.N,row3*%
G36*
X77668701Y-7714995D02*
G01*
X77911287Y-6339219D01*
X79287063Y-6581805D01*
X79044477Y-7957581D01*
X77668701Y-7714995D01*
G37*
%TD.AperFunction*%
%TA.AperFunction,SMDPad,CuDef*%
D10*
G36*
X79759358Y-7856686D02*
G01*
X79924324Y-6921119D01*
X81204574Y-7146862D01*
X81039608Y-8082429D01*
X79759358Y-7856686D01*
G37*
%TD.AperFunction*%
%TA.AperFunction,SMDPad,CuDef*%
%TO.P,D8,2*%
%TO.N,Net-(D8-Pad2)*%
G36*
X83255426Y-8473138D02*
G01*
X83420392Y-7537571D01*
X84700642Y-7763314D01*
X84535676Y-8698881D01*
X83255426Y-8473138D01*
G37*
%TD.AperFunction*%
%TD*%
D12*
%TO.P,D9,2*%
%TO.N,Net-(D9-Pad2)*%
X88052118Y32608400D03*
%TA.AperFunction,ComponentPad*%
D11*
%TO.P,D9,1*%
%TO.N,row0*%
G36*
X79738701Y33365005D02*
G01*
X79981287Y34740781D01*
X81357063Y34498195D01*
X81114477Y33122419D01*
X79738701Y33365005D01*
G37*
%TD.AperFunction*%
%TA.AperFunction,SMDPad,CuDef*%
D10*
G36*
X81829358Y33223314D02*
G01*
X81994324Y34158881D01*
X83274574Y33933138D01*
X83109608Y32997571D01*
X81829358Y33223314D01*
G37*
%TD.AperFunction*%
%TA.AperFunction,SMDPad,CuDef*%
%TO.P,D9,2*%
%TO.N,Net-(D9-Pad2)*%
G36*
X85325426Y32606862D02*
G01*
X85490392Y33542429D01*
X86770642Y33316686D01*
X86605676Y32381119D01*
X85325426Y32606862D01*
G37*
%TD.AperFunction*%
%TD*%
D12*
%TO.P,D10,2*%
%TO.N,Net-(D10-Pad2)*%
X92152118Y28968400D03*
%TA.AperFunction,ComponentPad*%
D11*
%TO.P,D10,1*%
%TO.N,row1*%
G36*
X83838701Y29725005D02*
G01*
X84081287Y31100781D01*
X85457063Y30858195D01*
X85214477Y29482419D01*
X83838701Y29725005D01*
G37*
%TD.AperFunction*%
%TA.AperFunction,SMDPad,CuDef*%
D10*
G36*
X85929358Y29583314D02*
G01*
X86094324Y30518881D01*
X87374574Y30293138D01*
X87209608Y29357571D01*
X85929358Y29583314D01*
G37*
%TD.AperFunction*%
%TA.AperFunction,SMDPad,CuDef*%
%TO.P,D10,2*%
%TO.N,Net-(D10-Pad2)*%
G36*
X89425426Y28966862D02*
G01*
X89590392Y29902429D01*
X90870642Y29676686D01*
X90705676Y28741119D01*
X89425426Y28966862D01*
G37*
%TD.AperFunction*%
%TD*%
D12*
%TO.P,D11,2*%
%TO.N,Net-(D11-Pad2)*%
X95012118Y-7391600D03*
%TA.AperFunction,ComponentPad*%
D11*
%TO.P,D11,1*%
%TO.N,row2*%
G36*
X86698701Y-6634995D02*
G01*
X86941287Y-5259219D01*
X88317063Y-5501805D01*
X88074477Y-6877581D01*
X86698701Y-6634995D01*
G37*
%TD.AperFunction*%
%TA.AperFunction,SMDPad,CuDef*%
D10*
G36*
X88789358Y-6776686D02*
G01*
X88954324Y-5841119D01*
X90234574Y-6066862D01*
X90069608Y-7002429D01*
X88789358Y-6776686D01*
G37*
%TD.AperFunction*%
%TA.AperFunction,SMDPad,CuDef*%
%TO.P,D11,2*%
%TO.N,Net-(D11-Pad2)*%
G36*
X92285426Y-7393138D02*
G01*
X92450392Y-6457571D01*
X93730642Y-6683314D01*
X93565676Y-7618881D01*
X92285426Y-7393138D01*
G37*
%TD.AperFunction*%
%TD*%
D12*
%TO.P,D13,2*%
%TO.N,Net-(D13-Pad2)*%
X107072118Y29318400D03*
%TA.AperFunction,ComponentPad*%
D11*
%TO.P,D13,1*%
%TO.N,row0*%
G36*
X98758701Y30075005D02*
G01*
X99001287Y31450781D01*
X100377063Y31208195D01*
X100134477Y29832419D01*
X98758701Y30075005D01*
G37*
%TD.AperFunction*%
%TA.AperFunction,SMDPad,CuDef*%
D10*
G36*
X100849358Y29933314D02*
G01*
X101014324Y30868881D01*
X102294574Y30643138D01*
X102129608Y29707571D01*
X100849358Y29933314D01*
G37*
%TD.AperFunction*%
%TA.AperFunction,SMDPad,CuDef*%
%TO.P,D13,2*%
%TO.N,Net-(D13-Pad2)*%
G36*
X104345426Y29316862D02*
G01*
X104510392Y30252429D01*
X105790642Y30026686D01*
X105625676Y29091119D01*
X104345426Y29316862D01*
G37*
%TD.AperFunction*%
%TD*%
D12*
%TO.P,D14,2*%
%TO.N,Net-(D14-Pad2)*%
X110872118Y25658400D03*
%TA.AperFunction,ComponentPad*%
D11*
%TO.P,D14,1*%
%TO.N,row1*%
G36*
X102558701Y26415005D02*
G01*
X102801287Y27790781D01*
X104177063Y27548195D01*
X103934477Y26172419D01*
X102558701Y26415005D01*
G37*
%TD.AperFunction*%
%TA.AperFunction,SMDPad,CuDef*%
D10*
G36*
X104649358Y26273314D02*
G01*
X104814324Y27208881D01*
X106094574Y26983138D01*
X105929608Y26047571D01*
X104649358Y26273314D01*
G37*
%TD.AperFunction*%
%TA.AperFunction,SMDPad,CuDef*%
%TO.P,D14,2*%
%TO.N,Net-(D14-Pad2)*%
G36*
X108145426Y25656862D02*
G01*
X108310392Y26592429D01*
X109590642Y26366686D01*
X109425676Y25431119D01*
X108145426Y25656862D01*
G37*
%TD.AperFunction*%
%TD*%
D12*
%TO.P,D15,2*%
%TO.N,Net-(D15-Pad2)*%
X114132118Y-10851600D03*
%TA.AperFunction,ComponentPad*%
D11*
%TO.P,D15,1*%
%TO.N,row2*%
G36*
X105818701Y-10094995D02*
G01*
X106061287Y-8719219D01*
X107437063Y-8961805D01*
X107194477Y-10337581D01*
X105818701Y-10094995D01*
G37*
%TD.AperFunction*%
%TA.AperFunction,SMDPad,CuDef*%
D10*
G36*
X107909358Y-10236686D02*
G01*
X108074324Y-9301119D01*
X109354574Y-9526862D01*
X109189608Y-10462429D01*
X107909358Y-10236686D01*
G37*
%TD.AperFunction*%
%TA.AperFunction,SMDPad,CuDef*%
%TO.P,D15,2*%
%TO.N,Net-(D15-Pad2)*%
G36*
X111405426Y-10853138D02*
G01*
X111570392Y-9917571D01*
X112850642Y-10143314D01*
X112685676Y-11078881D01*
X111405426Y-10853138D01*
G37*
%TD.AperFunction*%
%TD*%
D12*
%TO.P,D16,2*%
%TO.N,Net-(D16-Pad2)*%
X111882118Y-13241600D03*
%TA.AperFunction,ComponentPad*%
D11*
%TO.P,D16,1*%
%TO.N,row3*%
G36*
X103568701Y-12484995D02*
G01*
X103811287Y-11109219D01*
X105187063Y-11351805D01*
X104944477Y-12727581D01*
X103568701Y-12484995D01*
G37*
%TD.AperFunction*%
%TA.AperFunction,SMDPad,CuDef*%
D10*
G36*
X105659358Y-12626686D02*
G01*
X105824324Y-11691119D01*
X107104574Y-11916862D01*
X106939608Y-12852429D01*
X105659358Y-12626686D01*
G37*
%TD.AperFunction*%
%TA.AperFunction,SMDPad,CuDef*%
%TO.P,D16,2*%
%TO.N,Net-(D16-Pad2)*%
G36*
X109155426Y-13243138D02*
G01*
X109320392Y-12307571D01*
X110600642Y-12533314D01*
X110435676Y-13468881D01*
X109155426Y-13243138D01*
G37*
%TD.AperFunction*%
%TD*%
D12*
%TO.P,D17,2*%
%TO.N,Net-(D17-Pad2)*%
X125232118Y26028400D03*
%TA.AperFunction,ComponentPad*%
D11*
%TO.P,D17,1*%
%TO.N,row0*%
G36*
X116918701Y26785005D02*
G01*
X117161287Y28160781D01*
X118537063Y27918195D01*
X118294477Y26542419D01*
X116918701Y26785005D01*
G37*
%TD.AperFunction*%
%TA.AperFunction,SMDPad,CuDef*%
D10*
G36*
X119009358Y26643314D02*
G01*
X119174324Y27578881D01*
X120454574Y27353138D01*
X120289608Y26417571D01*
X119009358Y26643314D01*
G37*
%TD.AperFunction*%
%TA.AperFunction,SMDPad,CuDef*%
%TO.P,D17,2*%
%TO.N,Net-(D17-Pad2)*%
G36*
X122505426Y26026862D02*
G01*
X122670392Y26962429D01*
X123950642Y26736686D01*
X123785676Y25801119D01*
X122505426Y26026862D01*
G37*
%TD.AperFunction*%
%TD*%
D12*
%TO.P,D18,2*%
%TO.N,Net-(D18-Pad2)*%
X129792118Y22428400D03*
%TA.AperFunction,ComponentPad*%
D11*
%TO.P,D18,1*%
%TO.N,row1*%
G36*
X121478701Y23185005D02*
G01*
X121721287Y24560781D01*
X123097063Y24318195D01*
X122854477Y22942419D01*
X121478701Y23185005D01*
G37*
%TD.AperFunction*%
%TA.AperFunction,SMDPad,CuDef*%
D10*
G36*
X123569358Y23043314D02*
G01*
X123734324Y23978881D01*
X125014574Y23753138D01*
X124849608Y22817571D01*
X123569358Y23043314D01*
G37*
%TD.AperFunction*%
%TA.AperFunction,SMDPad,CuDef*%
%TO.P,D18,2*%
%TO.N,Net-(D18-Pad2)*%
G36*
X127065426Y22426862D02*
G01*
X127230392Y23362429D01*
X128510642Y23136686D01*
X128345676Y22201119D01*
X127065426Y22426862D01*
G37*
%TD.AperFunction*%
%TD*%
D12*
%TO.P,D19,2*%
%TO.N,Net-(D19-Pad2)*%
X132532118Y-14001600D03*
%TA.AperFunction,ComponentPad*%
D11*
%TO.P,D19,1*%
%TO.N,row2*%
G36*
X124218701Y-13244995D02*
G01*
X124461287Y-11869219D01*
X125837063Y-12111805D01*
X125594477Y-13487581D01*
X124218701Y-13244995D01*
G37*
%TD.AperFunction*%
%TA.AperFunction,SMDPad,CuDef*%
D10*
G36*
X126309358Y-13386686D02*
G01*
X126474324Y-12451119D01*
X127754574Y-12676862D01*
X127589608Y-13612429D01*
X126309358Y-13386686D01*
G37*
%TD.AperFunction*%
%TA.AperFunction,SMDPad,CuDef*%
%TO.P,D19,2*%
%TO.N,Net-(D19-Pad2)*%
G36*
X129805426Y-14003138D02*
G01*
X129970392Y-13067571D01*
X131250642Y-13293314D01*
X131085676Y-14228881D01*
X129805426Y-14003138D01*
G37*
%TD.AperFunction*%
%TD*%
D12*
%TO.P,D21,2*%
%TO.N,Net-(D21-Pad2)*%
X167402118Y29931600D03*
%TA.AperFunction,ComponentPad*%
D11*
%TO.P,D21,1*%
%TO.N,row0*%
G36*
X159331287Y27799219D02*
G01*
X159088701Y29174995D01*
X160464477Y29417581D01*
X160707063Y28041805D01*
X159331287Y27799219D01*
G37*
%TD.AperFunction*%
%TA.AperFunction,SMDPad,CuDef*%
D10*
G36*
X161344324Y28381119D02*
G01*
X161179358Y29316686D01*
X162459608Y29542429D01*
X162624574Y28606862D01*
X161344324Y28381119D01*
G37*
%TD.AperFunction*%
%TA.AperFunction,SMDPad,CuDef*%
%TO.P,D21,2*%
%TO.N,Net-(D21-Pad2)*%
G36*
X164840392Y28997571D02*
G01*
X164675426Y29933138D01*
X165955676Y30158881D01*
X166120642Y29223314D01*
X164840392Y28997571D01*
G37*
%TD.AperFunction*%
%TD*%
%TA.AperFunction,SMDPad,CuDef*%
%TO.P,D22,2*%
%TO.N,Net-(D22-Pad2)*%
G36*
X169070392Y26907571D02*
G01*
X168905426Y27843138D01*
X170185676Y28068881D01*
X170350642Y27133314D01*
X169070392Y26907571D01*
G37*
%TD.AperFunction*%
%TA.AperFunction,SMDPad,CuDef*%
%TO.P,D22,1*%
%TO.N,row1*%
G36*
X165574324Y26291119D02*
G01*
X165409358Y27226686D01*
X166689608Y27452429D01*
X166854574Y26516862D01*
X165574324Y26291119D01*
G37*
%TD.AperFunction*%
%TA.AperFunction,ComponentPad*%
D11*
G36*
X163561287Y25709219D02*
G01*
X163318701Y27084995D01*
X164694477Y27327581D01*
X164937063Y25951805D01*
X163561287Y25709219D01*
G37*
%TD.AperFunction*%
D12*
%TO.P,D22,2*%
%TO.N,Net-(D22-Pad2)*%
X171632118Y27841600D03*
%TD*%
%TA.AperFunction,SMDPad,CuDef*%
D10*
%TO.P,D23,2*%
%TO.N,Net-(D23-Pad2)*%
G36*
X150200392Y-12662429D02*
G01*
X150035426Y-11726862D01*
X151315676Y-11501119D01*
X151480642Y-12436686D01*
X150200392Y-12662429D01*
G37*
%TD.AperFunction*%
%TA.AperFunction,SMDPad,CuDef*%
%TO.P,D23,1*%
%TO.N,row2*%
G36*
X146704324Y-13278881D02*
G01*
X146539358Y-12343314D01*
X147819608Y-12117571D01*
X147984574Y-13053138D01*
X146704324Y-13278881D01*
G37*
%TD.AperFunction*%
%TA.AperFunction,ComponentPad*%
D11*
G36*
X144691287Y-13860781D02*
G01*
X144448701Y-12485005D01*
X145824477Y-12242419D01*
X146067063Y-13618195D01*
X144691287Y-13860781D01*
G37*
%TD.AperFunction*%
D12*
%TO.P,D23,2*%
%TO.N,Net-(D23-Pad2)*%
X152762118Y-11728400D03*
%TD*%
%TA.AperFunction,SMDPad,CuDef*%
D10*
%TO.P,D24,2*%
%TO.N,Net-(D24-Pad2)*%
G36*
X178960392Y-9602429D02*
G01*
X178795426Y-8666862D01*
X180075676Y-8441119D01*
X180240642Y-9376686D01*
X178960392Y-9602429D01*
G37*
%TD.AperFunction*%
%TA.AperFunction,SMDPad,CuDef*%
%TO.P,D24,1*%
%TO.N,row3*%
G36*
X175464324Y-10218881D02*
G01*
X175299358Y-9283314D01*
X176579608Y-9057571D01*
X176744574Y-9993138D01*
X175464324Y-10218881D01*
G37*
%TD.AperFunction*%
%TA.AperFunction,ComponentPad*%
D11*
G36*
X173451287Y-10800781D02*
G01*
X173208701Y-9425005D01*
X174584477Y-9182419D01*
X174827063Y-10558195D01*
X173451287Y-10800781D01*
G37*
%TD.AperFunction*%
D12*
%TO.P,D24,2*%
%TO.N,Net-(D24-Pad2)*%
X181522118Y-8668400D03*
%TD*%
%TA.AperFunction,SMDPad,CuDef*%
D10*
%TO.P,D25,2*%
%TO.N,Net-(D25-Pad2)*%
G36*
X182330392Y32267571D02*
G01*
X182165426Y33203138D01*
X183445676Y33428881D01*
X183610642Y32493314D01*
X182330392Y32267571D01*
G37*
%TD.AperFunction*%
%TA.AperFunction,SMDPad,CuDef*%
%TO.P,D25,1*%
%TO.N,row0*%
G36*
X178834324Y31651119D02*
G01*
X178669358Y32586686D01*
X179949608Y32812429D01*
X180114574Y31876862D01*
X178834324Y31651119D01*
G37*
%TD.AperFunction*%
%TA.AperFunction,ComponentPad*%
D11*
G36*
X176821287Y31069219D02*
G01*
X176578701Y32444995D01*
X177954477Y32687581D01*
X178197063Y31311805D01*
X176821287Y31069219D01*
G37*
%TD.AperFunction*%
D12*
%TO.P,D25,2*%
%TO.N,Net-(D25-Pad2)*%
X184892118Y33201600D03*
%TD*%
%TA.AperFunction,SMDPad,CuDef*%
D10*
%TO.P,D26,2*%
%TO.N,Net-(D26-Pad2)*%
G36*
X186680392Y30297571D02*
G01*
X186515426Y31233138D01*
X187795676Y31458881D01*
X187960642Y30523314D01*
X186680392Y30297571D01*
G37*
%TD.AperFunction*%
%TA.AperFunction,SMDPad,CuDef*%
%TO.P,D26,1*%
%TO.N,row1*%
G36*
X183184324Y29681119D02*
G01*
X183019358Y30616686D01*
X184299608Y30842429D01*
X184464574Y29906862D01*
X183184324Y29681119D01*
G37*
%TD.AperFunction*%
%TA.AperFunction,ComponentPad*%
D11*
G36*
X181171287Y29099219D02*
G01*
X180928701Y30474995D01*
X182304477Y30717581D01*
X182547063Y29341805D01*
X181171287Y29099219D01*
G37*
%TD.AperFunction*%
D12*
%TO.P,D26,2*%
%TO.N,Net-(D26-Pad2)*%
X189242118Y31231600D03*
%TD*%
%TA.AperFunction,SMDPad,CuDef*%
D10*
%TO.P,D27,2*%
%TO.N,Net-(D27-Pad2)*%
G36*
X184100392Y-6282429D02*
G01*
X183935426Y-5346862D01*
X185215676Y-5121119D01*
X185380642Y-6056686D01*
X184100392Y-6282429D01*
G37*
%TD.AperFunction*%
%TA.AperFunction,SMDPad,CuDef*%
%TO.P,D27,1*%
%TO.N,row2*%
G36*
X180604324Y-6898881D02*
G01*
X180439358Y-5963314D01*
X181719608Y-5737571D01*
X181884574Y-6673138D01*
X180604324Y-6898881D01*
G37*
%TD.AperFunction*%
%TA.AperFunction,ComponentPad*%
D11*
G36*
X178591287Y-7480781D02*
G01*
X178348701Y-6105005D01*
X179724477Y-5862419D01*
X179967063Y-7238195D01*
X178591287Y-7480781D01*
G37*
%TD.AperFunction*%
D12*
%TO.P,D27,2*%
%TO.N,Net-(D27-Pad2)*%
X186662118Y-5348400D03*
%TD*%
%TA.AperFunction,SMDPad,CuDef*%
D10*
%TO.P,D28,2*%
%TO.N,Net-(D28-Pad2)*%
G36*
X190830392Y-7622429D02*
G01*
X190665426Y-6686862D01*
X191945676Y-6461119D01*
X192110642Y-7396686D01*
X190830392Y-7622429D01*
G37*
%TD.AperFunction*%
%TA.AperFunction,SMDPad,CuDef*%
%TO.P,D28,1*%
%TO.N,row3*%
G36*
X187334324Y-8238881D02*
G01*
X187169358Y-7303314D01*
X188449608Y-7077571D01*
X188614574Y-8013138D01*
X187334324Y-8238881D01*
G37*
%TD.AperFunction*%
%TA.AperFunction,ComponentPad*%
D11*
G36*
X185321287Y-8820781D02*
G01*
X185078701Y-7445005D01*
X186454477Y-7202419D01*
X186697063Y-8578195D01*
X185321287Y-8820781D01*
G37*
%TD.AperFunction*%
D12*
%TO.P,D28,2*%
%TO.N,Net-(D28-Pad2)*%
X193392118Y-6688400D03*
%TD*%
%TA.AperFunction,SMDPad,CuDef*%
D10*
%TO.P,D29,2*%
%TO.N,Net-(D29-Pad2)*%
G36*
X200950392Y35637571D02*
G01*
X200785426Y36573138D01*
X202065676Y36798881D01*
X202230642Y35863314D01*
X200950392Y35637571D01*
G37*
%TD.AperFunction*%
%TA.AperFunction,SMDPad,CuDef*%
%TO.P,D29,1*%
%TO.N,row0*%
G36*
X197454324Y35021119D02*
G01*
X197289358Y35956686D01*
X198569608Y36182429D01*
X198734574Y35246862D01*
X197454324Y35021119D01*
G37*
%TD.AperFunction*%
%TA.AperFunction,ComponentPad*%
D11*
G36*
X195441287Y34439219D02*
G01*
X195198701Y35814995D01*
X196574477Y36057581D01*
X196817063Y34681805D01*
X195441287Y34439219D01*
G37*
%TD.AperFunction*%
D12*
%TO.P,D29,2*%
%TO.N,Net-(D29-Pad2)*%
X203512118Y36571600D03*
%TD*%
%TA.AperFunction,SMDPad,CuDef*%
D10*
%TO.P,D30,2*%
%TO.N,Net-(D30-Pad2)*%
G36*
X205560392Y33227571D02*
G01*
X205395426Y34163138D01*
X206675676Y34388881D01*
X206840642Y33453314D01*
X205560392Y33227571D01*
G37*
%TD.AperFunction*%
%TA.AperFunction,SMDPad,CuDef*%
%TO.P,D30,1*%
%TO.N,row1*%
G36*
X202064324Y32611119D02*
G01*
X201899358Y33546686D01*
X203179608Y33772429D01*
X203344574Y32836862D01*
X202064324Y32611119D01*
G37*
%TD.AperFunction*%
%TA.AperFunction,ComponentPad*%
D11*
G36*
X200051287Y32029219D02*
G01*
X199808701Y33404995D01*
X201184477Y33647581D01*
X201427063Y32271805D01*
X200051287Y32029219D01*
G37*
%TD.AperFunction*%
D12*
%TO.P,D30,2*%
%TO.N,Net-(D30-Pad2)*%
X208122118Y34161600D03*
%TD*%
%TA.AperFunction,SMDPad,CuDef*%
D10*
%TO.P,D31,2*%
%TO.N,Net-(D31-Pad2)*%
G36*
X203740392Y-2962429D02*
G01*
X203575426Y-2026862D01*
X204855676Y-1801119D01*
X205020642Y-2736686D01*
X203740392Y-2962429D01*
G37*
%TD.AperFunction*%
%TA.AperFunction,SMDPad,CuDef*%
%TO.P,D31,1*%
%TO.N,row2*%
G36*
X200244324Y-3578881D02*
G01*
X200079358Y-2643314D01*
X201359608Y-2417571D01*
X201524574Y-3353138D01*
X200244324Y-3578881D01*
G37*
%TD.AperFunction*%
%TA.AperFunction,ComponentPad*%
D11*
G36*
X198231287Y-4160781D02*
G01*
X197988701Y-2785005D01*
X199364477Y-2542419D01*
X199607063Y-3918195D01*
X198231287Y-4160781D01*
G37*
%TD.AperFunction*%
D12*
%TO.P,D31,2*%
%TO.N,Net-(D31-Pad2)*%
X206302118Y-2028400D03*
%TD*%
%TA.AperFunction,SMDPad,CuDef*%
D10*
%TO.P,D32,2*%
%TO.N,Net-(D32-Pad2)*%
G36*
X205740392Y-5082429D02*
G01*
X205575426Y-4146862D01*
X206855676Y-3921119D01*
X207020642Y-4856686D01*
X205740392Y-5082429D01*
G37*
%TD.AperFunction*%
%TA.AperFunction,SMDPad,CuDef*%
%TO.P,D32,1*%
%TO.N,row3*%
G36*
X202244324Y-5698881D02*
G01*
X202079358Y-4763314D01*
X203359608Y-4537571D01*
X203524574Y-5473138D01*
X202244324Y-5698881D01*
G37*
%TD.AperFunction*%
%TA.AperFunction,ComponentPad*%
D11*
G36*
X200231287Y-6280781D02*
G01*
X199988701Y-4905005D01*
X201364477Y-4662419D01*
X201607063Y-6038195D01*
X200231287Y-6280781D01*
G37*
%TD.AperFunction*%
D12*
%TO.P,D32,2*%
%TO.N,Net-(D32-Pad2)*%
X208302118Y-4148400D03*
%TD*%
D13*
%TO.P,D33,2*%
%TO.N,Net-(D33-Pad2)*%
X221395000Y38140000D03*
%TO.P,D33,1*%
%TO.N,row0*%
X217845000Y38140000D03*
D14*
X215810000Y38140000D03*
D12*
%TO.P,D33,2*%
%TO.N,Net-(D33-Pad2)*%
X223430000Y38140000D03*
%TD*%
D13*
%TO.P,D34,2*%
%TO.N,Net-(D34-Pad2)*%
X235785000Y34630000D03*
%TO.P,D34,1*%
%TO.N,row1*%
X232235000Y34630000D03*
D14*
X230200000Y34630000D03*
D12*
%TO.P,D34,2*%
%TO.N,Net-(D34-Pad2)*%
X237820000Y34630000D03*
%TD*%
D13*
%TO.P,D35,2*%
%TO.N,Net-(D35-Pad2)*%
X223905000Y-880000D03*
%TO.P,D35,1*%
%TO.N,row2*%
X220355000Y-880000D03*
D14*
X218320000Y-880000D03*
D12*
%TO.P,D35,2*%
%TO.N,Net-(D35-Pad2)*%
X225940000Y-880000D03*
%TD*%
D13*
%TO.P,D37,2*%
%TO.N,Net-(D37-Pad2)*%
X240795000Y37240000D03*
%TO.P,D37,1*%
%TO.N,row0*%
X237245000Y37240000D03*
D14*
X235210000Y37240000D03*
D12*
%TO.P,D37,2*%
%TO.N,Net-(D37-Pad2)*%
X242830000Y37240000D03*
%TD*%
D13*
%TO.P,D39,2*%
%TO.N,Net-(D39-Pad2)*%
X242295000Y-710000D03*
%TO.P,D39,1*%
%TO.N,row2*%
X238745000Y-710000D03*
D14*
X236710000Y-710000D03*
D12*
%TO.P,D39,2*%
%TO.N,Net-(D39-Pad2)*%
X244330000Y-710000D03*
%TD*%
D13*
%TO.P,D40,2*%
%TO.N,Net-(D40-Pad2)*%
X242405000Y-3470000D03*
%TO.P,D40,1*%
%TO.N,row3*%
X238855000Y-3470000D03*
D14*
X236820000Y-3470000D03*
D12*
%TO.P,D40,2*%
%TO.N,Net-(D40-Pad2)*%
X244440000Y-3470000D03*
%TD*%
D15*
%TO.P,SW41,1*%
%TO.N,reset*%
X118634357Y-19589375D03*
%TO.P,SW41,2*%
%TO.N,GND*%
X117505643Y-25990625D03*
%TD*%
%TA.AperFunction,ComponentPad*%
D11*
%TO.P,TB1,1*%
%TO.N,VCC*%
G36*
X148848686Y2179418D02*
G01*
X150224462Y2422004D01*
X150467048Y1046228D01*
X149091272Y803642D01*
X148848686Y2179418D01*
G37*
%TD.AperFunction*%
D12*
%TO.P,TB1,2*%
%TO.N,SDA*%
X150098934Y-888588D03*
%TO.P,TB1,3*%
%TO.N,SCL*%
X150540000Y-3390000D03*
%TO.P,TB1,4*%
%TO.N,N/C*%
X150981066Y-5891412D03*
%TO.P,TB1,5*%
%TO.N,GND*%
X151422133Y-8392823D03*
%TD*%
D16*
%TO.P,U1,1*%
%TO.N,Net-(U1-Pad1)*%
X137608313Y18310248D03*
%TO.P,U1,2*%
%TO.N,Net-(U1-Pad2)*%
X137167246Y20811659D03*
%TO.P,U1,3*%
%TO.N,GND*%
X136726180Y23313071D03*
%TO.P,U1,4*%
X136285113Y25814483D03*
%TO.P,U1,5*%
%TO.N,SDA*%
X135844047Y28315894D03*
%TO.P,U1,6*%
%TO.N,SCL*%
X135402981Y30817306D03*
%TO.P,U1,7*%
%TO.N,row3*%
X134961914Y33318718D03*
%TO.P,U1,8*%
%TO.N,row2*%
X134520848Y35820129D03*
%TO.P,U1,9*%
%TO.N,row1*%
X134079782Y38321541D03*
%TO.P,U1,10*%
%TO.N,row0*%
X133638715Y40822953D03*
%TO.P,U1,11*%
%TO.N,col1*%
X133197649Y43324365D03*
%TO.P,U1,12*%
%TO.N,col0*%
X132756583Y45825776D03*
%TO.P,U1,13*%
%TO.N,col9*%
X147745357Y48468701D03*
%TO.P,U1,14*%
%TO.N,col8*%
X148186423Y45967290D03*
%TO.P,U1,15*%
%TO.N,col7*%
X148627489Y43465878D03*
%TO.P,U1,16*%
%TO.N,col6*%
X149068556Y40964466D03*
%TO.P,U1,17*%
%TO.N,col5*%
X149509622Y38463055D03*
%TO.P,U1,18*%
%TO.N,col4*%
X149950688Y35961643D03*
%TO.P,U1,19*%
%TO.N,col3*%
X150391755Y33460231D03*
%TO.P,U1,20*%
%TO.N,col2*%
X150832821Y30958820D03*
%TO.P,U1,21*%
%TO.N,VCC*%
X151273887Y28457408D03*
%TO.P,U1,22*%
%TO.N,reset*%
X151714954Y25955996D03*
%TO.P,U1,23*%
%TO.N,GND*%
X152156020Y23454585D03*
%TO.P,U1,24*%
%TO.N,Net-(U1-Pad24)*%
X152597087Y20953173D03*
%TO.P,U1,13*%
%TO.N,col9*%
X142171345Y47485853D03*
%TO.P,U1,14*%
%TO.N,col8*%
X142612411Y44984441D03*
%TO.P,U1,17*%
%TO.N,col5*%
X143935610Y37480206D03*
%TO.P,U1,18*%
%TO.N,col4*%
X144376676Y34978794D03*
%TO.P,U1,19*%
%TO.N,col3*%
X144817743Y32477383D03*
%TO.P,U1,20*%
%TO.N,col2*%
X145258809Y29975971D03*
%TO.P,U1,21*%
%TO.N,VCC*%
X145699876Y27474559D03*
%TO.P,U1,15*%
%TO.N,col7*%
X143053477Y42483029D03*
%TO.P,U1,16*%
%TO.N,col6*%
X143494544Y39981618D03*
%TO.P,U1,22*%
%TO.N,reset*%
X146140942Y24973148D03*
%TO.P,U1,23*%
%TO.N,GND*%
X146582008Y22471736D03*
%TO.P,U1,24*%
%TO.N,Net-(U1-Pad24)*%
X147023075Y19970324D03*
%TO.P,U1,1*%
%TO.N,Net-(U1-Pad1)*%
X143546133Y19418171D03*
%TO.P,U1,10*%
%TO.N,row0*%
X139576535Y41930876D03*
%TO.P,U1,11*%
%TO.N,col1*%
X139135469Y44432288D03*
%TO.P,U1,4*%
%TO.N,GND*%
X142222933Y26922406D03*
%TO.P,U1,5*%
%TO.N,SDA*%
X141781867Y29423818D03*
%TO.P,U1,6*%
%TO.N,SCL*%
X141340801Y31925230D03*
%TO.P,U1,7*%
%TO.N,row3*%
X140899734Y34426641D03*
%TO.P,U1,8*%
%TO.N,row2*%
X140458668Y36928053D03*
%TO.P,U1,9*%
%TO.N,row1*%
X140017602Y39429465D03*
%TO.P,U1,2*%
%TO.N,Net-(U1-Pad2)*%
X143105066Y21919583D03*
%TO.P,U1,3*%
%TO.N,GND*%
X142664000Y24420994D03*
%TO.P,U1,12*%
%TO.N,col0*%
X138694402Y46933700D03*
%TD*%
D17*
%TO.P,SW1,2*%
%TO.N,Net-(D1-Pad2)*%
X52332000Y50570000D03*
%TO.P,SW1,1*%
%TO.N,col0*%
X39405000Y48030000D03*
%TD*%
%TO.P,SW2,1*%
%TO.N,col0*%
X38925000Y29060000D03*
%TO.P,SW2,2*%
%TO.N,Net-(D2-Pad2)*%
X51852000Y31600000D03*
%TD*%
%TO.P,SW3,1*%
%TO.N,col0*%
X39875000Y9950000D03*
%TO.P,SW3,2*%
%TO.N,Net-(D3-Pad2)*%
X52802000Y12490000D03*
%TD*%
%TO.P,SW4,1*%
%TO.N,col0*%
X37495000Y-9100000D03*
%TO.P,SW4,2*%
%TO.N,Net-(D4-Pad2)*%
X50422000Y-6560000D03*
%TD*%
%TA.AperFunction,SMDPad,CuDef*%
D10*
%TO.P,SW5,1*%
%TO.N,col1*%
G36*
X61956393Y49281317D02*
G01*
X61522273Y46819298D01*
X59011013Y47262101D01*
X59445133Y49724120D01*
X61956393Y49281317D01*
G37*
%TD.AperFunction*%
%TA.AperFunction,SMDPad,CuDef*%
%TO.P,SW5,2*%
%TO.N,Net-(D5-Pad2)*%
G36*
X75128070Y49537979D02*
G01*
X74693950Y47075960D01*
X72182690Y47518763D01*
X72616810Y49980782D01*
X75128070Y49537979D01*
G37*
%TD.AperFunction*%
%TD*%
%TA.AperFunction,SMDPad,CuDef*%
%TO.P,SW6,1*%
%TO.N,col1*%
G36*
X63346393Y29681317D02*
G01*
X62912273Y27219298D01*
X60401013Y27662101D01*
X60835133Y30124120D01*
X63346393Y29681317D01*
G37*
%TD.AperFunction*%
%TA.AperFunction,SMDPad,CuDef*%
%TO.P,SW6,2*%
%TO.N,Net-(D6-Pad2)*%
G36*
X76518070Y29937979D02*
G01*
X76083950Y27475960D01*
X73572690Y27918763D01*
X74006810Y30380782D01*
X76518070Y29937979D01*
G37*
%TD.AperFunction*%
%TD*%
%TA.AperFunction,SMDPad,CuDef*%
%TO.P,SW7,1*%
%TO.N,col1*%
G36*
X69436393Y9321317D02*
G01*
X69002273Y6859298D01*
X66491013Y7302101D01*
X66925133Y9764120D01*
X69436393Y9321317D01*
G37*
%TD.AperFunction*%
%TA.AperFunction,SMDPad,CuDef*%
%TO.P,SW7,2*%
%TO.N,Net-(D7-Pad2)*%
G36*
X82608070Y9577979D02*
G01*
X82173950Y7115960D01*
X79662690Y7558763D01*
X80096810Y10020782D01*
X82608070Y9577979D01*
G37*
%TD.AperFunction*%
%TD*%
%TA.AperFunction,SMDPad,CuDef*%
%TO.P,SW8,1*%
%TO.N,col1*%
G36*
X75516393Y-11118683D02*
G01*
X75082273Y-13580702D01*
X72571013Y-13137899D01*
X73005133Y-10675880D01*
X75516393Y-11118683D01*
G37*
%TD.AperFunction*%
%TA.AperFunction,SMDPad,CuDef*%
%TO.P,SW8,2*%
%TO.N,Net-(D8-Pad2)*%
G36*
X88688070Y-10862021D02*
G01*
X88253950Y-13324040D01*
X85742690Y-12881237D01*
X86176810Y-10419218D01*
X88688070Y-10862021D01*
G37*
%TD.AperFunction*%
%TD*%
%TA.AperFunction,SMDPad,CuDef*%
%TO.P,SW9,1*%
%TO.N,col2*%
G36*
X80756393Y46021317D02*
G01*
X80322273Y43559298D01*
X77811013Y44002101D01*
X78245133Y46464120D01*
X80756393Y46021317D01*
G37*
%TD.AperFunction*%
%TA.AperFunction,SMDPad,CuDef*%
%TO.P,SW9,2*%
%TO.N,Net-(D9-Pad2)*%
G36*
X93928070Y46277979D02*
G01*
X93493950Y43815960D01*
X90982690Y44258763D01*
X91416810Y46720782D01*
X93928070Y46277979D01*
G37*
%TD.AperFunction*%
%TD*%
%TA.AperFunction,SMDPad,CuDef*%
%TO.P,SW10,1*%
%TO.N,col2*%
G36*
X82116393Y26371317D02*
G01*
X81682273Y23909298D01*
X79171013Y24352101D01*
X79605133Y26814120D01*
X82116393Y26371317D01*
G37*
%TD.AperFunction*%
%TA.AperFunction,SMDPad,CuDef*%
%TO.P,SW10,2*%
%TO.N,Net-(D10-Pad2)*%
G36*
X95288070Y26627979D02*
G01*
X94853950Y24165960D01*
X92342690Y24608763D01*
X92776810Y27070782D01*
X95288070Y26627979D01*
G37*
%TD.AperFunction*%
%TD*%
%TA.AperFunction,SMDPad,CuDef*%
%TO.P,SW11,1*%
%TO.N,col2*%
G36*
X88176393Y6021317D02*
G01*
X87742273Y3559298D01*
X85231013Y4002101D01*
X85665133Y6464120D01*
X88176393Y6021317D01*
G37*
%TD.AperFunction*%
%TA.AperFunction,SMDPad,CuDef*%
%TO.P,SW11,2*%
%TO.N,Net-(D11-Pad2)*%
G36*
X101348070Y6277979D02*
G01*
X100913950Y3815960D01*
X98402690Y4258763D01*
X98836810Y6720782D01*
X101348070Y6277979D01*
G37*
%TD.AperFunction*%
%TD*%
%TA.AperFunction,SMDPad,CuDef*%
%TO.P,SW13,1*%
%TO.N,col3*%
G36*
X99536393Y42661317D02*
G01*
X99102273Y40199298D01*
X96591013Y40642101D01*
X97025133Y43104120D01*
X99536393Y42661317D01*
G37*
%TD.AperFunction*%
%TA.AperFunction,SMDPad,CuDef*%
%TO.P,SW13,2*%
%TO.N,Net-(D13-Pad2)*%
G36*
X112708070Y42917979D02*
G01*
X112273950Y40455960D01*
X109762690Y40898763D01*
X110196810Y43360782D01*
X112708070Y42917979D01*
G37*
%TD.AperFunction*%
%TD*%
%TA.AperFunction,SMDPad,CuDef*%
%TO.P,SW14,1*%
%TO.N,col3*%
G36*
X100886393Y23151317D02*
G01*
X100452273Y20689298D01*
X97941013Y21132101D01*
X98375133Y23594120D01*
X100886393Y23151317D01*
G37*
%TD.AperFunction*%
%TA.AperFunction,SMDPad,CuDef*%
%TO.P,SW14,2*%
%TO.N,Net-(D14-Pad2)*%
G36*
X114058070Y23407979D02*
G01*
X113623950Y20945960D01*
X111112690Y21388763D01*
X111546810Y23850782D01*
X114058070Y23407979D01*
G37*
%TD.AperFunction*%
%TD*%
%TA.AperFunction,SMDPad,CuDef*%
%TO.P,SW15,1*%
%TO.N,col3*%
G36*
X106996393Y2691317D02*
G01*
X106562273Y229298D01*
X104051013Y672101D01*
X104485133Y3134120D01*
X106996393Y2691317D01*
G37*
%TD.AperFunction*%
%TA.AperFunction,SMDPad,CuDef*%
%TO.P,SW15,2*%
%TO.N,Net-(D15-Pad2)*%
G36*
X120168070Y2947979D02*
G01*
X119733950Y485960D01*
X117222690Y928763D01*
X117656810Y3390782D01*
X120168070Y2947979D01*
G37*
%TD.AperFunction*%
%TD*%
%TA.AperFunction,SMDPad,CuDef*%
%TO.P,SW16,1*%
%TO.N,col3*%
G36*
X101336393Y-15718683D02*
G01*
X100902273Y-18180702D01*
X98391013Y-17737899D01*
X98825133Y-15275880D01*
X101336393Y-15718683D01*
G37*
%TD.AperFunction*%
%TA.AperFunction,SMDPad,CuDef*%
%TO.P,SW16,2*%
%TO.N,Net-(D16-Pad2)*%
G36*
X114508070Y-15462021D02*
G01*
X114073950Y-17924040D01*
X111562690Y-17481237D01*
X111996810Y-15019218D01*
X114508070Y-15462021D01*
G37*
%TD.AperFunction*%
%TD*%
%TA.AperFunction,SMDPad,CuDef*%
%TO.P,SW17,1*%
%TO.N,col4*%
G36*
X118266393Y39401317D02*
G01*
X117832273Y36939298D01*
X115321013Y37382101D01*
X115755133Y39844120D01*
X118266393Y39401317D01*
G37*
%TD.AperFunction*%
%TA.AperFunction,SMDPad,CuDef*%
%TO.P,SW17,2*%
%TO.N,Net-(D17-Pad2)*%
G36*
X131438070Y39657979D02*
G01*
X131003950Y37195960D01*
X128492690Y37638763D01*
X128926810Y40100782D01*
X131438070Y39657979D01*
G37*
%TD.AperFunction*%
%TD*%
%TA.AperFunction,SMDPad,CuDef*%
%TO.P,SW18,1*%
%TO.N,col4*%
G36*
X119646393Y19741317D02*
G01*
X119212273Y17279298D01*
X116701013Y17722101D01*
X117135133Y20184120D01*
X119646393Y19741317D01*
G37*
%TD.AperFunction*%
%TA.AperFunction,SMDPad,CuDef*%
%TO.P,SW18,2*%
%TO.N,Net-(D18-Pad2)*%
G36*
X132818070Y19997979D02*
G01*
X132383950Y17535960D01*
X129872690Y17978763D01*
X130306810Y20440782D01*
X132818070Y19997979D01*
G37*
%TD.AperFunction*%
%TD*%
%TA.AperFunction,SMDPad,CuDef*%
%TO.P,SW19,1*%
%TO.N,col4*%
G36*
X125726393Y-678683D02*
G01*
X125292273Y-3140702D01*
X122781013Y-2697899D01*
X123215133Y-235880D01*
X125726393Y-678683D01*
G37*
%TD.AperFunction*%
%TA.AperFunction,SMDPad,CuDef*%
%TO.P,SW19,2*%
%TO.N,Net-(D19-Pad2)*%
G36*
X138898070Y-422021D02*
G01*
X138463950Y-2884040D01*
X135952690Y-2441237D01*
X136386810Y20782D01*
X138898070Y-422021D01*
G37*
%TD.AperFunction*%
%TD*%
%TA.AperFunction,SMDPad,CuDef*%
%TO.P,SW21,2*%
%TO.N,Net-(D21-Pad2)*%
G36*
X166779684Y44589687D02*
G01*
X167213804Y42127668D01*
X164702544Y41684865D01*
X164268424Y44146884D01*
X166779684Y44589687D01*
G37*
%TD.AperFunction*%
%TA.AperFunction,SMDPad,CuDef*%
%TO.P,SW21,1*%
%TO.N,col5*%
G36*
X154490141Y39843525D02*
G01*
X154924261Y37381506D01*
X152413001Y36938703D01*
X151978881Y39400722D01*
X154490141Y39843525D01*
G37*
%TD.AperFunction*%
%TD*%
%TA.AperFunction,SMDPad,CuDef*%
%TO.P,SW22,1*%
%TO.N,col5*%
G36*
X162490141Y21953525D02*
G01*
X162924261Y19491506D01*
X160413001Y19048703D01*
X159978881Y21510722D01*
X162490141Y21953525D01*
G37*
%TD.AperFunction*%
%TA.AperFunction,SMDPad,CuDef*%
%TO.P,SW22,2*%
%TO.N,Net-(D22-Pad2)*%
G36*
X174779684Y26699687D02*
G01*
X175213804Y24237668D01*
X172702544Y23794865D01*
X172268424Y26256884D01*
X174779684Y26699687D01*
G37*
%TD.AperFunction*%
%TD*%
%TA.AperFunction,SMDPad,CuDef*%
%TO.P,SW23,2*%
%TO.N,Net-(D23-Pad2)*%
G36*
X168729684Y6229687D02*
G01*
X169163804Y3767668D01*
X166652544Y3324865D01*
X166218424Y5786884D01*
X168729684Y6229687D01*
G37*
%TD.AperFunction*%
%TA.AperFunction,SMDPad,CuDef*%
%TO.P,SW23,1*%
%TO.N,col5*%
G36*
X156440141Y1483525D02*
G01*
X156874261Y-978494D01*
X154363001Y-1421297D01*
X153928881Y1040722D01*
X156440141Y1483525D01*
G37*
%TD.AperFunction*%
%TD*%
%TA.AperFunction,SMDPad,CuDef*%
%TO.P,SW24,2*%
%TO.N,Net-(D24-Pad2)*%
G36*
X167339684Y-13290313D02*
G01*
X167773804Y-15752332D01*
X165262544Y-16195135D01*
X164828424Y-13733116D01*
X167339684Y-13290313D01*
G37*
%TD.AperFunction*%
%TA.AperFunction,SMDPad,CuDef*%
%TO.P,SW24,1*%
%TO.N,col5*%
G36*
X155050141Y-18036475D02*
G01*
X155484261Y-20498494D01*
X152973001Y-20941297D01*
X152538881Y-18479278D01*
X155050141Y-18036475D01*
G37*
%TD.AperFunction*%
%TD*%
%TA.AperFunction,SMDPad,CuDef*%
%TO.P,SW25,2*%
%TO.N,Net-(D25-Pad2)*%
G36*
X185509684Y47929687D02*
G01*
X185943804Y45467668D01*
X183432544Y45024865D01*
X182998424Y47486884D01*
X185509684Y47929687D01*
G37*
%TD.AperFunction*%
%TA.AperFunction,SMDPad,CuDef*%
%TO.P,SW25,1*%
%TO.N,col6*%
G36*
X173220141Y43183525D02*
G01*
X173654261Y40721506D01*
X171143001Y40278703D01*
X170708881Y42740722D01*
X173220141Y43183525D01*
G37*
%TD.AperFunction*%
%TD*%
%TA.AperFunction,SMDPad,CuDef*%
%TO.P,SW26,2*%
%TO.N,Net-(D26-Pad2)*%
G36*
X193529684Y29919687D02*
G01*
X193963804Y27457668D01*
X191452544Y27014865D01*
X191018424Y29476884D01*
X193529684Y29919687D01*
G37*
%TD.AperFunction*%
%TA.AperFunction,SMDPad,CuDef*%
%TO.P,SW26,1*%
%TO.N,col6*%
G36*
X181240141Y25173525D02*
G01*
X181674261Y22711506D01*
X179163001Y22268703D01*
X178728881Y24730722D01*
X181240141Y25173525D01*
G37*
%TD.AperFunction*%
%TD*%
%TA.AperFunction,SMDPad,CuDef*%
%TO.P,SW27,2*%
%TO.N,Net-(D27-Pad2)*%
G36*
X187489684Y9569687D02*
G01*
X187923804Y7107668D01*
X185412544Y6664865D01*
X184978424Y9126884D01*
X187489684Y9569687D01*
G37*
%TD.AperFunction*%
%TA.AperFunction,SMDPad,CuDef*%
%TO.P,SW27,1*%
%TO.N,col6*%
G36*
X175200141Y4823525D02*
G01*
X175634261Y2361506D01*
X173123001Y1918703D01*
X172688881Y4380722D01*
X175200141Y4823525D01*
G37*
%TD.AperFunction*%
%TD*%
%TA.AperFunction,SMDPad,CuDef*%
%TO.P,SW28,2*%
%TO.N,Net-(D28-Pad2)*%
G36*
X188609684Y-9540313D02*
G01*
X189043804Y-12002332D01*
X186532544Y-12445135D01*
X186098424Y-9983116D01*
X188609684Y-9540313D01*
G37*
%TD.AperFunction*%
%TA.AperFunction,SMDPad,CuDef*%
%TO.P,SW28,1*%
%TO.N,col6*%
G36*
X176320141Y-14286475D02*
G01*
X176754261Y-16748494D01*
X174243001Y-17191297D01*
X173808881Y-14729278D01*
X176320141Y-14286475D01*
G37*
%TD.AperFunction*%
%TD*%
%TA.AperFunction,SMDPad,CuDef*%
%TO.P,SW29,2*%
%TO.N,Net-(D29-Pad2)*%
G36*
X204289684Y51229687D02*
G01*
X204723804Y48767668D01*
X202212544Y48324865D01*
X201778424Y50786884D01*
X204289684Y51229687D01*
G37*
%TD.AperFunction*%
%TA.AperFunction,SMDPad,CuDef*%
%TO.P,SW29,1*%
%TO.N,col7*%
G36*
X192000141Y46483525D02*
G01*
X192434261Y44021506D01*
X189923001Y43578703D01*
X189488881Y46040722D01*
X192000141Y46483525D01*
G37*
%TD.AperFunction*%
%TD*%
%TA.AperFunction,SMDPad,CuDef*%
%TO.P,SW30,2*%
%TO.N,Net-(D30-Pad2)*%
G36*
X212269684Y33229687D02*
G01*
X212703804Y30767668D01*
X210192544Y30324865D01*
X209758424Y32786884D01*
X212269684Y33229687D01*
G37*
%TD.AperFunction*%
%TA.AperFunction,SMDPad,CuDef*%
%TO.P,SW30,1*%
%TO.N,col7*%
G36*
X199980141Y28483525D02*
G01*
X200414261Y26021506D01*
X197903001Y25578703D01*
X197468881Y28040722D01*
X199980141Y28483525D01*
G37*
%TD.AperFunction*%
%TD*%
%TA.AperFunction,SMDPad,CuDef*%
%TO.P,SW31,2*%
%TO.N,Net-(D31-Pad2)*%
G36*
X206219684Y12849687D02*
G01*
X206653804Y10387668D01*
X204142544Y9944865D01*
X203708424Y12406884D01*
X206219684Y12849687D01*
G37*
%TD.AperFunction*%
%TA.AperFunction,SMDPad,CuDef*%
%TO.P,SW31,1*%
%TO.N,col7*%
G36*
X193930141Y8103525D02*
G01*
X194364261Y5641506D01*
X191853001Y5198703D01*
X191418881Y7660722D01*
X193930141Y8103525D01*
G37*
%TD.AperFunction*%
%TD*%
%TA.AperFunction,SMDPad,CuDef*%
%TO.P,SW32,2*%
%TO.N,Net-(D32-Pad2)*%
G36*
X209529684Y-5910313D02*
G01*
X209963804Y-8372332D01*
X207452544Y-8815135D01*
X207018424Y-6353116D01*
X209529684Y-5910313D01*
G37*
%TD.AperFunction*%
%TA.AperFunction,SMDPad,CuDef*%
%TO.P,SW32,1*%
%TO.N,col7*%
G36*
X197240141Y-10656475D02*
G01*
X197674261Y-13118494D01*
X195163001Y-13561297D01*
X194728881Y-11099278D01*
X197240141Y-10656475D01*
G37*
%TD.AperFunction*%
%TD*%
D17*
%TO.P,SW33,2*%
%TO.N,Net-(D33-Pad2)*%
X224742000Y51540000D03*
%TO.P,SW33,1*%
%TO.N,col8*%
X211815000Y49000000D03*
%TD*%
%TO.P,SW34,2*%
%TO.N,Net-(D34-Pad2)*%
X239492000Y31540000D03*
%TO.P,SW34,1*%
%TO.N,col8*%
X226565000Y29000000D03*
%TD*%
%TO.P,SW35,2*%
%TO.N,Net-(D35-Pad2)*%
X226762000Y12460000D03*
%TO.P,SW35,1*%
%TO.N,col8*%
X213835000Y9920000D03*
%TD*%
%TO.P,SW37,2*%
%TO.N,Net-(D37-Pad2)*%
X243830000Y50600000D03*
%TO.P,SW37,1*%
%TO.N,col9*%
X230903000Y48060000D03*
%TD*%
%TO.P,SW39,2*%
%TO.N,Net-(D39-Pad2)*%
X248092000Y12490000D03*
%TO.P,SW39,1*%
%TO.N,col9*%
X235165000Y9950000D03*
%TD*%
%TO.P,SW40,2*%
%TO.N,Net-(D40-Pad2)*%
X245652000Y-6570000D03*
%TO.P,SW40,1*%
%TO.N,col9*%
X232725000Y-9110000D03*
%TD*%
D18*
%TO.N,row2*%
X119540000Y21630000D03*
X114870000Y21570000D03*
%TO.N,row3*%
X120860000Y20540000D03*
X121968400Y-16208400D03*
X115120000Y20490000D03*
%TO.N,col2*%
X126530000Y9020000D03*
X86703703Y8953703D03*
%TO.N,col3*%
X126590000Y7220000D03*
X105523703Y7376297D03*
%TO.N,reset*%
X125260000Y3320000D03*
X121010000Y3320000D03*
%TO.N,GND*%
X145790000Y3670000D03*
X145840000Y8890000D03*
%TO.N,VCC*%
X148920000Y10980000D03*
%TO.N,SDA*%
X141810000Y9800000D03*
%TO.N,SCL*%
X137880000Y4440000D03*
X137870000Y8990000D03*
%TD*%
D19*
%TO.N,row0*%
X217845000Y38140000D02*
X215810000Y38140000D01*
X45075000Y37340000D02*
X43040000Y37340000D01*
X196361256Y35601774D02*
X196007882Y35248400D01*
X62611256Y36808226D02*
X62257882Y37161600D01*
X80901256Y33578226D02*
X80547882Y33931600D01*
X198011966Y35601774D02*
X196361256Y35601774D01*
X64261966Y36808226D02*
X62611256Y36808226D01*
X82551966Y33578226D02*
X80901256Y33578226D01*
X179391966Y32231774D02*
X177741256Y32231774D01*
X177741256Y32231774D02*
X177387882Y31878400D01*
X161901966Y28961774D02*
X160251256Y28961774D01*
X160251256Y28961774D02*
X159897882Y28608400D01*
X119731966Y26998226D02*
X118081256Y26998226D01*
X118081256Y26998226D02*
X117727882Y27351600D01*
X119909482Y25170000D02*
X117727882Y27351600D01*
X124740837Y25004899D02*
X125664899Y25004899D01*
X131820000Y31160000D02*
X131820000Y39004238D01*
X122704894Y25170000D02*
X122420000Y25170000D01*
X124575736Y25170000D02*
X124740837Y25004899D01*
X122420000Y25170000D02*
X124575736Y25170000D01*
X131820000Y39004238D02*
X133638715Y40822953D01*
X125664899Y25004899D02*
X131820000Y31160000D01*
X122420000Y25170000D02*
X119909482Y25170000D01*
X237245000Y37240000D02*
X235210000Y37240000D01*
X101571966Y30288226D02*
X99921256Y30288226D01*
X99921256Y30288226D02*
X99567882Y30641600D01*
X133638715Y40822953D02*
X138468612Y40822953D01*
X138468612Y40822953D02*
X139576535Y41930876D01*
%TO.N,Net-(D1-Pad2)*%
X52845001Y39525001D02*
X50660000Y37340000D01*
X52845001Y50056999D02*
X52845001Y39525001D01*
X52332000Y50570000D02*
X52845001Y50056999D01*
X50660000Y37340000D02*
X48625000Y37340000D01*
%TO.N,Net-(D2-Pad2)*%
X51852000Y33398000D02*
X50650000Y34600000D01*
X51852000Y31600000D02*
X51852000Y33398000D01*
X50650000Y34600000D02*
X48615000Y34600000D01*
%TO.N,row1*%
X103721256Y26628226D02*
X103367882Y26981600D01*
X105371966Y26628226D02*
X103721256Y26628226D01*
X200971256Y33191774D02*
X200617882Y32838400D01*
X202621966Y33191774D02*
X200971256Y33191774D01*
X85001256Y29938226D02*
X84647882Y30291600D01*
X86651966Y29938226D02*
X85001256Y29938226D01*
X164481256Y26871774D02*
X164127882Y26518400D01*
X166131966Y26871774D02*
X164481256Y26871774D01*
X232235000Y34630000D02*
X230200000Y34630000D01*
X122641256Y23398226D02*
X122287882Y23751600D01*
X124291966Y23398226D02*
X122641256Y23398226D01*
X66001256Y33318226D02*
X65647882Y33671600D01*
X45065000Y34600000D02*
X43030000Y34600000D01*
X67651966Y33318226D02*
X66001256Y33318226D01*
X183741966Y30261774D02*
X182091256Y30261774D01*
X182091256Y30261774D02*
X181737882Y29908400D01*
X132270010Y36511769D02*
X132270009Y30973599D01*
X134079782Y38321541D02*
X132270010Y36511769D01*
X132270009Y30973599D02*
X125048010Y23751600D01*
X125048010Y23751600D02*
X122287882Y23751600D01*
X138909678Y38321541D02*
X140017602Y39429465D01*
X134079782Y38321541D02*
X138909678Y38321541D01*
%TO.N,Net-(D3-Pad2)*%
X50720000Y-640000D02*
X48685000Y-640000D01*
X52802000Y12490000D02*
X53315001Y11976999D01*
X53315001Y1955001D02*
X50720000Y-640000D01*
X53315001Y11976999D02*
X53315001Y1955001D01*
%TO.N,row2*%
X125339584Y22159584D02*
X124810000Y21630000D01*
X220355000Y-880000D02*
X218320000Y-880000D01*
X199151256Y-2998226D02*
X198797882Y-3351600D01*
X114870000Y21570000D02*
X113618543Y20318543D01*
X200801966Y-2998226D02*
X199151256Y-2998226D01*
X181161966Y-6318226D02*
X179511256Y-6318226D01*
X179511256Y-6318226D02*
X179157882Y-6671600D01*
X87861256Y-6421774D02*
X87507882Y-6068400D01*
X89511966Y-6421774D02*
X87861256Y-6421774D01*
X114435001Y-3190001D02*
X108096602Y-9528400D01*
X114435001Y-909999D02*
X114435001Y-3190001D01*
X238745000Y-710000D02*
X236710000Y-710000D01*
X113618543Y20318543D02*
X113618543Y-93541D01*
X108096602Y-9528400D02*
X106627882Y-9528400D01*
X113618543Y-93541D02*
X114435001Y-909999D01*
X71401966Y-3251774D02*
X69751256Y-3251774D01*
X108631966Y-9881774D02*
X106981256Y-9881774D01*
X106981256Y-9881774D02*
X106627882Y-9528400D01*
X69751256Y-3251774D02*
X69397882Y-2898400D01*
X45135000Y-640000D02*
X43100000Y-640000D01*
X127031966Y-13031774D02*
X125381256Y-13031774D01*
X125381256Y-13031774D02*
X125027882Y-12678400D01*
X146908592Y-13051600D02*
X147261966Y-12698226D01*
X145257882Y-13051600D02*
X146908592Y-13051600D01*
X125566410Y23633590D02*
X125339584Y23406764D01*
X125339584Y23406764D02*
X125339584Y22159584D01*
X124810000Y21630000D02*
X119540000Y21630000D01*
X139350744Y35820129D02*
X140458668Y36928053D01*
X134520848Y35820129D02*
X139350744Y35820129D01*
X132720018Y30787198D02*
X125566410Y23633590D01*
X132720018Y34019299D02*
X132720018Y30787198D01*
X134520848Y35820129D02*
X132720018Y34019299D01*
%TO.N,Net-(D4-Pad2)*%
X50422000Y-6560000D02*
X50422000Y-3558000D01*
X50422000Y-3558000D02*
X50590000Y-3390000D01*
X50590000Y-3390000D02*
X48555000Y-3390000D01*
%TO.N,row3*%
X134961914Y33318718D02*
X134961914Y32392684D01*
X80481966Y-7501774D02*
X78831256Y-7501774D01*
X78831256Y-7501774D02*
X78477882Y-7148400D01*
X125789594Y23220364D02*
X125789593Y21973183D01*
X120493080Y9106920D02*
X120493080Y6456920D01*
X114068553Y15531447D02*
X120493080Y9106920D01*
X125789593Y21973183D02*
X124936410Y21120000D01*
X133170027Y30600797D02*
X125789594Y23220364D01*
X174017882Y-9991600D02*
X175668592Y-9991600D01*
X175668592Y-9991600D02*
X176021966Y-9638226D01*
X131861966Y-16561774D02*
X130211256Y-16561774D01*
X130211256Y-16561774D02*
X129857882Y-16208400D01*
X238855000Y-3470000D02*
X236820000Y-3470000D01*
X124936410Y21120000D02*
X121440000Y21120000D01*
X120493080Y6456920D02*
X121950000Y5000000D01*
X187891966Y-7658226D02*
X186241256Y-7658226D01*
X121950000Y5000000D02*
X121950000Y-16190000D01*
X134961914Y32392684D02*
X133170027Y30600797D01*
X202801966Y-5118226D02*
X201151256Y-5118226D01*
X121950000Y-16190000D02*
X121968400Y-16208400D01*
X186241256Y-7658226D02*
X185887882Y-8011600D01*
X121440000Y21120000D02*
X120860000Y20540000D01*
X201151256Y-5118226D02*
X200797882Y-5471600D01*
X45005000Y-3390000D02*
X42970000Y-3390000D01*
X104731256Y-12271774D02*
X104377882Y-11918400D01*
X106381966Y-12271774D02*
X104731256Y-12271774D01*
X139791811Y33318718D02*
X140899734Y34426641D01*
X115120000Y20490000D02*
X114068553Y19438553D01*
X134961914Y33318718D02*
X139791811Y33318718D01*
X114068553Y19438553D02*
X114068553Y15531447D01*
%TO.N,Net-(D5-Pad2)*%
X68111408Y35838400D02*
X67758034Y36191774D01*
X69762118Y35838400D02*
X68111408Y35838400D01*
X73655380Y48528371D02*
X73655380Y39731662D01*
X73655380Y39731662D02*
X69762118Y35838400D01*
%TO.N,Net-(D6-Pad2)*%
X75045380Y28928371D02*
X75045380Y30455138D01*
X75045380Y30455138D02*
X73152118Y32348400D01*
X71501408Y32348400D02*
X71148034Y32701774D01*
X73152118Y32348400D02*
X71501408Y32348400D01*
%TO.N,Net-(D7-Pad2)*%
X81135380Y11662D02*
X76902118Y-4221600D01*
X81135380Y8568371D02*
X81135380Y11662D01*
X76902118Y-4221600D02*
X75251408Y-4221600D01*
X75251408Y-4221600D02*
X74898034Y-3868226D01*
%TO.N,Net-(D8-Pad2)*%
X87215380Y-11871629D02*
X87215380Y-9704862D01*
X87215380Y-9704862D02*
X85982118Y-8471600D01*
X85982118Y-8471600D02*
X84331408Y-8471600D01*
X84331408Y-8471600D02*
X83978034Y-8118226D01*
%TO.N,Net-(D9-Pad2)*%
X86401408Y32608400D02*
X86048034Y32961774D01*
X88052118Y32608400D02*
X86401408Y32608400D01*
X92455380Y45268371D02*
X92455380Y37011662D01*
X92455380Y37011662D02*
X88052118Y32608400D01*
%TO.N,Net-(D10-Pad2)*%
X93815380Y25618371D02*
X93815380Y27305138D01*
X93815380Y27305138D02*
X92152118Y28968400D01*
X90501408Y28968400D02*
X90148034Y29321774D01*
X92152118Y28968400D02*
X90501408Y28968400D01*
%TO.N,Net-(D11-Pad2)*%
X99875380Y5268371D02*
X99875380Y-2528338D01*
X99875380Y-2528338D02*
X95012118Y-7391600D01*
X93361408Y-7391600D02*
X93008034Y-7038226D01*
X95012118Y-7391600D02*
X93361408Y-7391600D01*
%TO.N,Net-(D13-Pad2)*%
X105421408Y29318400D02*
X105068034Y29671774D01*
X111235380Y41908371D02*
X111235380Y33481662D01*
X111235380Y33481662D02*
X107072118Y29318400D01*
X107072118Y29318400D02*
X105421408Y29318400D01*
%TO.N,Net-(D14-Pad2)*%
X112585380Y22398371D02*
X112585380Y23945138D01*
X112585380Y23945138D02*
X110872118Y25658400D01*
X110872118Y25658400D02*
X109221408Y25658400D01*
X109221408Y25658400D02*
X108868034Y26011774D01*
%TO.N,Net-(D15-Pad2)*%
X118695380Y1938371D02*
X118695380Y-6288338D01*
X114132118Y-10851600D02*
X112481408Y-10851600D01*
X118695380Y-6288338D02*
X114132118Y-10851600D01*
X112481408Y-10851600D02*
X112128034Y-10498226D01*
%TO.N,Net-(D16-Pad2)*%
X113035380Y-14394862D02*
X111882118Y-13241600D01*
X113035380Y-16471629D02*
X113035380Y-14394862D01*
X111882118Y-13241600D02*
X110231408Y-13241600D01*
X110231408Y-13241600D02*
X109878034Y-12888226D01*
%TO.N,Net-(D17-Pad2)*%
X129965380Y30761662D02*
X125232118Y26028400D01*
X129965380Y38648371D02*
X129965380Y30761662D01*
X123581408Y26028400D02*
X123228034Y26381774D01*
X125232118Y26028400D02*
X123581408Y26028400D01*
%TO.N,Net-(D18-Pad2)*%
X131345380Y20875138D02*
X129792118Y22428400D01*
X131345380Y18988371D02*
X131345380Y20875138D01*
X128141408Y22428400D02*
X127788034Y22781774D01*
X129792118Y22428400D02*
X128141408Y22428400D01*
%TO.N,Net-(D19-Pad2)*%
X137425380Y-9108338D02*
X132532118Y-14001600D01*
X137425380Y-1431629D02*
X137425380Y-9108338D01*
X130881408Y-14001600D02*
X130528034Y-13648226D01*
X132532118Y-14001600D02*
X130881408Y-14001600D01*
%TO.N,Net-(D20-Pad2)*%
X138855381Y-21081630D02*
X138855381Y-19024863D01*
X137362118Y-17531600D02*
X135711408Y-17531600D01*
X135711408Y-17531600D02*
X135358034Y-17178226D01*
X138855381Y-19024863D02*
X137362118Y-17531600D01*
%TO.N,Net-(D21-Pad2)*%
X165751408Y29931600D02*
X165398034Y29578226D01*
X167402118Y29931600D02*
X165751408Y29931600D01*
X165741114Y43137276D02*
X167402118Y41476272D01*
X167402118Y41476272D02*
X167402118Y29931600D01*
%TO.N,Net-(D22-Pad2)*%
X169981408Y27841600D02*
X169628034Y27488226D01*
X171632118Y27841600D02*
X169981408Y27841600D01*
X173741114Y25247276D02*
X173741114Y25732604D01*
X173741114Y25732604D02*
X171632118Y27841600D01*
%TO.N,Net-(D23-Pad2)*%
X157210000Y-9370000D02*
X157210000Y-9350000D01*
X157210000Y-9370000D02*
X155120518Y-9370000D01*
X160361154Y-6198846D02*
X163868846Y-6198846D01*
X157210000Y-9350000D02*
X160361154Y-6198846D01*
X169097824Y-969868D02*
X163868846Y-6198846D01*
X167691114Y4777276D02*
X169097824Y3370566D01*
X169097824Y3370566D02*
X169097824Y-969868D01*
X155120518Y-9370000D02*
X152762118Y-11728400D01*
X150758034Y-12081774D02*
X152408744Y-12081774D01*
X152408744Y-12081774D02*
X152762118Y-11728400D01*
%TO.N,Net-(D24-Pad2)*%
X179871408Y-8668400D02*
X179518034Y-9021774D01*
X181522118Y-8668400D02*
X179871408Y-8668400D01*
X181522118Y-12317116D02*
X185075001Y-15869999D01*
X181522118Y-8668400D02*
X181522118Y-12317116D01*
X183840001Y-19385001D02*
X170943391Y-19385001D01*
X185075001Y-15869999D02*
X185075001Y-18150001D01*
X185075001Y-18150001D02*
X183840001Y-19385001D01*
X170943391Y-19385001D02*
X166301114Y-14742724D01*
%TO.N,Net-(D25-Pad2)*%
X185877824Y45070566D02*
X185877824Y34187306D01*
X184471114Y46477276D02*
X185877824Y45070566D01*
X185877824Y34187306D02*
X184892118Y33201600D01*
X183241408Y33201600D02*
X182888034Y32848226D01*
X184892118Y33201600D02*
X183241408Y33201600D01*
%TO.N,Net-(D26-Pad2)*%
X187591408Y31231600D02*
X187238034Y30878226D01*
X189242118Y31231600D02*
X187591408Y31231600D01*
X192006442Y28467276D02*
X189242118Y31231600D01*
X192491114Y28467276D02*
X192006442Y28467276D01*
%TO.N,Net-(D27-Pad2)*%
X186662118Y-5348400D02*
X185011408Y-5348400D01*
X185011408Y-5348400D02*
X184658034Y-5701774D01*
X187857824Y-4152694D02*
X186662118Y-5348400D01*
X186451114Y8117276D02*
X187857824Y6710566D01*
X187857824Y6710566D02*
X187857824Y-4152694D01*
%TO.N,Net-(D28-Pad2)*%
X189087794Y-10992724D02*
X193392118Y-6688400D01*
X187571114Y-10992724D02*
X189087794Y-10992724D01*
X193392118Y-6688400D02*
X191741408Y-6688400D01*
X191741408Y-6688400D02*
X191388034Y-7041774D01*
%TO.N,Net-(D29-Pad2)*%
X203512118Y36571600D02*
X201861408Y36571600D01*
X201861408Y36571600D02*
X201508034Y36218226D01*
X204657824Y37717306D02*
X203512118Y36571600D01*
X203251114Y49777276D02*
X204657824Y48370566D01*
X204657824Y48370566D02*
X204657824Y37717306D01*
%TO.N,Net-(D30-Pad2)*%
X210506442Y31777276D02*
X208122118Y34161600D01*
X211231114Y31777276D02*
X210506442Y31777276D01*
X208122118Y34161600D02*
X206471408Y34161600D01*
X206471408Y34161600D02*
X206118034Y33808226D01*
%TO.N,Net-(D31-Pad2)*%
X206587824Y-1742694D02*
X206302118Y-2028400D01*
X206587824Y9990566D02*
X206587824Y-1742694D01*
X205181114Y11397276D02*
X206587824Y9990566D01*
X206302118Y-2028400D02*
X204651408Y-2028400D01*
X204651408Y-2028400D02*
X204298034Y-2381774D01*
%TO.N,Net-(D32-Pad2)*%
X208491114Y-7362724D02*
X208491114Y-4337396D01*
X208491114Y-4337396D02*
X208302118Y-4148400D01*
X206651408Y-4148400D02*
X206298034Y-4501774D01*
X208302118Y-4148400D02*
X206651408Y-4148400D01*
%TO.N,Net-(D33-Pad2)*%
X225255001Y39965001D02*
X223430000Y38140000D01*
X225255001Y51026999D02*
X225255001Y39965001D01*
X224742000Y51540000D02*
X225255001Y51026999D01*
X223430000Y38140000D02*
X221395000Y38140000D01*
%TO.N,Net-(D34-Pad2)*%
X237820000Y34630000D02*
X235785000Y34630000D01*
X239492000Y32958000D02*
X237820000Y34630000D01*
X239492000Y31540000D02*
X239492000Y32958000D01*
%TO.N,Net-(D35-Pad2)*%
X225940000Y-880000D02*
X223905000Y-880000D01*
X227275001Y455001D02*
X225940000Y-880000D01*
X226762000Y12460000D02*
X227275001Y11946999D01*
X227275001Y11946999D02*
X227275001Y455001D01*
%TO.N,Net-(D37-Pad2)*%
X244343001Y38753001D02*
X242830000Y37240000D01*
X243830000Y50600000D02*
X244343001Y50086999D01*
X244343001Y50086999D02*
X244343001Y38753001D01*
X242830000Y37240000D02*
X240795000Y37240000D01*
%TO.N,Net-(D39-Pad2)*%
X244330000Y-710000D02*
X242295000Y-710000D01*
X248605001Y3565001D02*
X244330000Y-710000D01*
X248092000Y12490000D02*
X248605001Y11976999D01*
X248605001Y11976999D02*
X248605001Y3565001D01*
%TO.N,Net-(D40-Pad2)*%
X244440000Y-3470000D02*
X242405000Y-3470000D01*
X245652000Y-4682000D02*
X244440000Y-3470000D01*
X245652000Y-6570000D02*
X245652000Y-4682000D01*
%TO.N,col0*%
X39405000Y29540000D02*
X38925000Y29060000D01*
X39405000Y48030000D02*
X39405000Y29540000D01*
X39875000Y9950000D02*
X39875000Y-6720000D01*
X39875000Y-6720000D02*
X37495000Y-9100000D01*
X38925000Y10900000D02*
X39875000Y9950000D01*
X38925000Y29060000D02*
X38925000Y10900000D01*
X129082349Y49500010D02*
X83319916Y49500010D01*
X80424925Y52395001D02*
X43770001Y52395001D01*
X43770001Y52395001D02*
X39405000Y48030000D01*
X83319916Y49500010D02*
X80424925Y52395001D01*
X132756583Y45825776D02*
X129082349Y49500010D01*
X132756583Y45825776D02*
X137586478Y45825776D01*
X137586478Y45825776D02*
X138694402Y46933700D01*
%TO.N,col1*%
X74043703Y-9379633D02*
X74043703Y-12128291D01*
X67963703Y-3299633D02*
X74043703Y-9379633D01*
X67963703Y8311709D02*
X67963703Y-3299633D01*
X133197649Y43324365D02*
X127472014Y49050000D01*
X61873703Y14401709D02*
X67963703Y8311709D01*
X61873703Y28671709D02*
X61873703Y14401709D01*
X60483703Y37100367D02*
X61873703Y35710367D01*
X60483703Y48271709D02*
X60483703Y37100367D01*
X61873703Y35710367D02*
X61873703Y28671709D01*
X63138752Y50926758D02*
X60483703Y48271709D01*
X81256758Y50926758D02*
X63138752Y50926758D01*
X127472014Y49050000D02*
X83133516Y49050000D01*
X83133516Y49050000D02*
X81256758Y50926758D01*
X138027546Y43324365D02*
X139135469Y44432288D01*
X133197649Y43324365D02*
X138027546Y43324365D01*
%TO.N,col2*%
X80643703Y25361709D02*
X80643703Y16296297D01*
X79283703Y26721709D02*
X80643703Y25361709D01*
X80643703Y16296297D02*
X86703703Y10236297D01*
X79283703Y45011709D02*
X79283703Y26721709D01*
X149849972Y29975971D02*
X150832821Y30958820D01*
X145258809Y29975971D02*
X149849972Y29975971D01*
X155909980Y16282800D02*
X148897180Y9270000D01*
X147383590Y7756410D02*
X147297200Y7670020D01*
X148897180Y9270000D02*
X147383590Y7756410D01*
X147297200Y7670020D02*
X127879980Y7670020D01*
X127879980Y7670020D02*
X126530000Y9020000D01*
X155909980Y28007200D02*
X155909980Y16282800D01*
X150832821Y30958820D02*
X152958360Y30958820D01*
X152958360Y30958820D02*
X155909980Y28007200D01*
X86703703Y8953703D02*
X86703703Y5011709D01*
X86703703Y10236297D02*
X86703703Y8953703D01*
%TO.N,col3*%
X105523703Y-4156297D02*
X99863703Y-9816297D01*
X99863703Y-9816297D02*
X99863703Y-16728291D01*
X98063703Y41651709D02*
X98063703Y23491709D01*
X98063703Y23491709D02*
X99413703Y22141709D01*
X105523703Y1681709D02*
X105523703Y-4156297D01*
X156359990Y16669990D02*
X156359990Y16096400D01*
X152551552Y32002038D02*
X156040000Y28513590D01*
X156359990Y28193600D02*
X156359990Y16669990D01*
X152636795Y12373205D02*
X147696795Y7433205D01*
X99413703Y22141709D02*
X99413703Y14736297D01*
X99413703Y14736297D02*
X105523703Y8626297D01*
X156040000Y28513590D02*
X156296795Y28256795D01*
X150391755Y33460231D02*
X152119769Y33460231D01*
X126590010Y7220010D02*
X126590000Y7220000D01*
X152119769Y33460231D02*
X152551551Y33028449D01*
X147483600Y7220010D02*
X133040000Y7220010D01*
X133040000Y7220010D02*
X126590010Y7220010D01*
X152551551Y33028449D02*
X152551552Y32002038D01*
X156359990Y16096400D02*
X152636795Y12373205D01*
X105523703Y8626297D02*
X105523703Y7376297D01*
X147696795Y7433205D02*
X147483600Y7220010D01*
X105523703Y7376297D02*
X105523703Y1681709D01*
X156296795Y28256795D02*
X156359990Y28193600D01*
X149408907Y32477383D02*
X150391755Y33460231D01*
X144817743Y32477383D02*
X149408907Y32477383D01*
%TO.N,col4*%
X116793703Y38391709D02*
X116593691Y38191697D01*
X116593691Y38191697D02*
X116593691Y20311721D01*
X116593691Y20311721D02*
X118173703Y18731709D01*
X153001561Y32188439D02*
X154630000Y30560000D01*
X153001561Y35508439D02*
X153001561Y32188439D01*
X156810000Y28380000D02*
X154630000Y30560000D01*
X154630000Y30560000D02*
X154231180Y30958820D01*
X118173703Y12373703D02*
X124253703Y6293703D01*
X124253703Y6293703D02*
X124253703Y-1688291D01*
X123893691Y-19548279D02*
X125683704Y-21338292D01*
X123893691Y-2048303D02*
X123893691Y-19548279D01*
X124253703Y-1688291D02*
X123893691Y-2048303D01*
X118173703Y18731709D02*
X118173703Y12373703D01*
X132711994Y6770000D02*
X147670000Y6770000D01*
X156810000Y15910000D02*
X156810000Y28380000D01*
X148967839Y34978794D02*
X149950688Y35961643D01*
X144376676Y34978794D02*
X148967839Y34978794D01*
X152548357Y35961643D02*
X153001561Y35508439D01*
X149950688Y35961643D02*
X152548357Y35961643D01*
X124253703Y-1688291D02*
X132711994Y6770000D01*
X147670000Y6770000D02*
X156810000Y15910000D01*
%TO.N,col5*%
X153451571Y38391114D02*
X153451571Y32408429D01*
X153451571Y32408429D02*
X161451571Y24408429D01*
X161451571Y24408429D02*
X161451571Y20501114D01*
X153379630Y38463055D02*
X153451571Y38391114D01*
X149509622Y38463055D02*
X153379630Y38463055D01*
X155401571Y541571D02*
X155401571Y31114D01*
X161451571Y6591571D02*
X155401571Y541571D01*
X149710416Y-15187731D02*
X154011571Y-19488886D01*
X149710416Y-11592237D02*
X149710416Y-15187731D01*
X155401571Y31114D02*
X155401571Y-5901082D01*
X161451571Y20501114D02*
X161451571Y6591571D01*
X155401571Y-5901082D02*
X149710416Y-11592237D01*
X143935610Y37480206D02*
X148526773Y37480206D01*
X148526773Y37480206D02*
X149509622Y38463055D01*
%TO.N,col6*%
X153018787Y44914697D02*
X168997988Y44914697D01*
X168997988Y44914697D02*
X172181571Y41731114D01*
X172181571Y31741114D02*
X180201571Y23721114D01*
X180201571Y23721114D02*
X180201571Y12551571D01*
X172181571Y41731114D02*
X172181571Y31741114D01*
X149068556Y40964466D02*
X153018787Y44914697D01*
X143494544Y39981618D02*
X148085708Y39981618D01*
X148085708Y39981618D02*
X149068556Y40964466D01*
X180201571Y12551571D02*
X174161571Y6511571D01*
X174161571Y6511571D02*
X174161571Y3371114D01*
X174161571Y3371114D02*
X174161571Y-6179900D01*
X177069584Y-9087913D02*
X177069584Y-13950873D01*
X177069584Y-13950873D02*
X175281571Y-15738886D01*
X174161571Y-6179900D02*
X177069584Y-9087913D01*
%TO.N,col7*%
X187737988Y48254697D02*
X190961571Y45031114D01*
X148627489Y43465878D02*
X153416308Y48254697D01*
X153416308Y48254697D02*
X187737988Y48254697D01*
X190961571Y45031114D02*
X190961571Y38459299D01*
X198941571Y30479299D02*
X198941571Y27031114D01*
X190961571Y38459299D02*
X198941571Y30479299D01*
X198941571Y12701114D02*
X192891571Y6651114D01*
X192891571Y-1001571D02*
X196201571Y-4311571D01*
X196201571Y-4311571D02*
X196201571Y-12108886D01*
X198941571Y27031114D02*
X198941571Y12701114D01*
X192891571Y6651114D02*
X192891571Y-1001571D01*
X147644640Y42483029D02*
X148627489Y43465878D01*
X143053477Y42483029D02*
X147644640Y42483029D01*
%TO.N,col8*%
X226565000Y22650000D02*
X213835000Y9920000D01*
X153773830Y51554697D02*
X209260303Y51554697D01*
X148186423Y45967290D02*
X153773830Y51554697D01*
X209260303Y51554697D02*
X211815000Y49000000D01*
X226565000Y29000000D02*
X226565000Y22650000D01*
X222967998Y29000000D02*
X226565000Y29000000D01*
X211815000Y49000000D02*
X211815000Y40152998D01*
X211815000Y40152998D02*
X222967998Y29000000D01*
X147203574Y44984441D02*
X148186423Y45967290D01*
X142612411Y44984441D02*
X147203574Y44984441D01*
%TO.N,col9*%
X230903000Y45292002D02*
X241092001Y35103001D01*
X241092001Y35103001D02*
X241092001Y15877001D01*
X241092001Y15877001D02*
X235165000Y9950000D01*
X230903000Y46703000D02*
X230903000Y45292002D01*
X230903000Y44098218D02*
X230903000Y46703000D01*
X220708499Y37116499D02*
X223921281Y37116499D01*
X221275001Y47600001D02*
X221275001Y42025001D01*
X147745357Y48468701D02*
X151281363Y52004707D01*
X151281363Y52004707D02*
X216870295Y52004707D01*
X230903000Y48060000D02*
X230903000Y46703000D01*
X220240000Y40990000D02*
X220240000Y37584998D01*
X223921281Y37116499D02*
X230903000Y44098218D01*
X221275001Y42025001D02*
X220240000Y40990000D01*
X220240000Y37584998D02*
X220708499Y37116499D01*
X216870295Y52004707D02*
X221275001Y47600001D01*
X235165000Y9950000D02*
X235165000Y-6670000D01*
X235165000Y-6670000D02*
X232725000Y-9110000D01*
X146762509Y47485853D02*
X147745357Y48468701D01*
X142171345Y47485853D02*
X146762509Y47485853D01*
%TO.N,reset*%
X151290000Y12950000D02*
X149530000Y12950000D01*
X121010000Y-17213732D02*
X118634357Y-19589375D01*
X121010000Y3320000D02*
X121010000Y-17213732D01*
X149530000Y12950000D02*
X147920000Y11340000D01*
X155009960Y25110040D02*
X155009960Y16669960D01*
X125260000Y9690000D02*
X125260000Y3320000D01*
X125760000Y10190000D02*
X125260000Y9690000D01*
X147040000Y8130000D02*
X130650000Y8130000D01*
X130650000Y8130000D02*
X130640030Y8120030D01*
X155009960Y16669960D02*
X151290000Y12950000D01*
X147920000Y11340000D02*
X147920000Y9010000D01*
X130640030Y8120030D02*
X128570060Y10190000D01*
X128570060Y10190000D02*
X125760000Y10190000D01*
X151714954Y25955996D02*
X154164004Y25955996D01*
X147920000Y9010000D02*
X147040000Y8130000D01*
X154164004Y25955996D02*
X155009960Y25110040D01*
X150732106Y24973148D02*
X151714954Y25955996D01*
X146140942Y24973148D02*
X150732106Y24973148D01*
%TO.N,GND*%
X151173171Y22471736D02*
X152156020Y23454585D01*
X146582008Y22471736D02*
X151173171Y22471736D01*
X118960020Y-27445002D02*
X137616958Y-27445002D01*
X143770000Y-21291960D02*
X143770000Y-9930000D01*
X143770000Y-9930000D02*
X145790000Y-7910000D01*
X117505643Y-25990625D02*
X118960020Y-27445002D01*
X137616958Y-27445002D02*
X143770000Y-21291960D01*
X142222933Y26922406D02*
X142222933Y24862061D01*
X136726180Y23313071D02*
X141556077Y23313071D01*
X141556077Y23313071D02*
X142664000Y24420994D01*
X142222933Y24862061D02*
X142664000Y24420994D01*
X145790000Y3670000D02*
X145790000Y-7910000D01*
X145840000Y21729728D02*
X145840000Y8890000D01*
X146582008Y22471736D02*
X145840000Y21729728D01*
X136285113Y25814483D02*
X141115010Y25814483D01*
X145790000Y-7910000D02*
X146272823Y-8392823D01*
X146272823Y-8392823D02*
X151422133Y-8392823D01*
X141115010Y25814483D02*
X142222933Y26922406D01*
X144632750Y24420994D02*
X146582008Y22471736D01*
X142664000Y24420994D02*
X144632750Y24420994D01*
%TO.N,VCC*%
X155459970Y16469200D02*
X152600385Y13609615D01*
X149970770Y10980000D02*
X148920000Y10980000D01*
X154823362Y28457408D02*
X155459970Y27820800D01*
X152600385Y13609615D02*
X149970770Y10980000D01*
X155459970Y27820800D02*
X155459970Y16469200D01*
X151273887Y28457408D02*
X154823362Y28457408D01*
X150291038Y27474559D02*
X151273887Y28457408D01*
X145699876Y27474559D02*
X150291038Y27474559D01*
%TO.N,SDA*%
X137710000Y9800000D02*
X141810000Y9800000D01*
X134480010Y13029990D02*
X137710000Y9800000D01*
X134480010Y13100000D02*
X134480010Y13029990D01*
X134480010Y26951857D02*
X134480010Y13100000D01*
X135844047Y28315894D02*
X140673943Y28315894D01*
X140673943Y28315894D02*
X141781867Y29423818D01*
X135844047Y28315894D02*
X134480010Y26951857D01*
%TO.N,SCL*%
X146170000Y4440000D02*
X137880000Y4440000D01*
X146590000Y4020000D02*
X146170000Y4440000D01*
X134030000Y12830000D02*
X134030000Y29444325D01*
X134030000Y29444325D02*
X135402981Y30817306D01*
X135402981Y30817306D02*
X140232877Y30817306D01*
X140232877Y30817306D02*
X141340801Y31925230D01*
X150540000Y-3390000D02*
X146960000Y-3390000D01*
X146960000Y-3390000D02*
X146590000Y-3020000D01*
X137870000Y8990000D02*
X134030000Y12830000D01*
X146590000Y-3020000D02*
X146590000Y4020000D01*
%TO.N,Net-(U1-Pad1)*%
X137608313Y18310248D02*
X142438210Y18310248D01*
X142438210Y18310248D02*
X143546133Y19418171D01*
%TO.N,Net-(U1-Pad2)*%
X137167246Y20811659D02*
X141997142Y20811659D01*
X141997142Y20811659D02*
X143105066Y21919583D01*
%TO.N,Net-(U1-Pad24)*%
X151614238Y19970324D02*
X152597087Y20953173D01*
X147023075Y19970324D02*
X151614238Y19970324D01*
%TD*%
M02*
