M48
; DRILL file {KiCad (5.1.6-0-10_14)} date Saturday, March 04, 2023 at 09:30:35 AM
; FORMAT={-:-/ absolute / metric / decimal}
; #@! TF.CreationDate,2023-03-04T09:30:35+09:00
; #@! TF.GenerationSoftware,Kicad,Pcbnew,(5.1.6-0-10_14)
; #@! TF.FileFunction,Plated,1,2,PTH
FMAT,2
METRIC
T1C0.400
T2C0.813
T3C1.300
%
G90
G05
T1
X86.704Y8.954
X105.524Y7.376
X114.87Y21.57
X115.12Y20.49
X119.54Y21.63
X120.86Y20.54
X121.01Y3.32
X121.968Y-16.208
X125.26Y3.32
X126.53Y9.02
X126.59Y7.22
X137.87Y8.99
X137.88Y4.44
X141.81Y9.8
X145.79Y3.67
X145.84Y8.89
X148.92Y10.98
T2
X69.398Y-2.898
X76.902Y-4.222
X43.1Y-0.64
X50.72Y-0.64
X104.378Y-11.918
X111.882Y-13.242
X215.81Y38.14
X223.43Y38.14
X117.728Y27.352
X125.232Y26.028
X87.508Y-6.068
X95.012Y-7.392
X196.008Y35.248
X203.512Y36.572
X174.018Y-9.992
X181.522Y-8.668
X149.658Y1.613
X150.099Y-0.889
X150.54Y-3.39
X150.981Y-5.891
X151.422Y-8.393
X43.03Y34.6
X50.65Y34.6
X235.21Y37.24
X242.83Y37.24
X200.798Y-5.472
X208.302Y-4.148
X185.888Y-8.012
X193.392Y-6.688
X145.258Y-13.052
X152.762Y-11.728
X125.028Y-12.678
X132.532Y-14.002
X132.757Y45.826
X133.198Y43.324
X133.639Y40.823
X134.08Y38.322
X134.521Y35.82
X134.962Y33.319
X135.403Y30.817
X135.844Y28.316
X136.285Y25.814
X136.726Y23.313
X137.167Y20.812
X137.608Y18.31
X138.694Y46.934
X139.135Y44.432
X139.577Y41.931
X140.018Y39.429
X140.459Y36.928
X140.9Y34.427
X141.341Y31.925
X141.782Y29.424
X142.171Y47.486
X142.223Y26.922
X142.612Y44.984
X142.664Y24.421
X143.053Y42.483
X143.105Y21.92
X143.495Y39.982
X143.546Y19.418
X143.936Y37.48
X144.377Y34.979
X144.818Y32.477
X145.259Y29.976
X145.7Y27.475
X146.141Y24.973
X146.582Y22.472
X147.023Y19.97
X147.745Y48.469
X148.186Y45.967
X148.627Y43.466
X149.069Y40.964
X149.51Y38.463
X149.951Y35.962
X150.392Y33.46
X150.833Y30.959
X151.274Y28.457
X151.715Y25.956
X152.156Y23.455
X152.597Y20.953
X106.628Y-9.528
X114.132Y-10.852
X181.738Y29.908
X189.242Y31.232
X84.648Y30.292
X92.152Y28.968
X179.158Y-6.672
X186.662Y-5.348
X164.128Y26.518
X171.632Y27.842
X236.71Y-0.71
X244.33Y-0.71
X65.648Y33.672
X73.152Y32.348
X236.82Y-3.47
X244.44Y-3.47
X43.04Y37.34
X50.66Y37.34
X129.858Y-16.208
X137.362Y-17.532
X103.368Y26.982
X110.872Y25.658
X198.798Y-3.352
X206.302Y-2.028
X80.548Y33.932
X88.052Y32.608
X159.898Y28.608
X167.402Y29.932
X62.258Y37.162
X69.762Y35.838
X230.2Y34.63
X237.82Y34.63
X122.288Y23.752
X129.792Y22.428
X218.32Y-0.88
X225.94Y-0.88
X99.568Y30.642
X107.072Y29.318
X200.618Y32.838
X208.122Y34.162
X78.478Y-7.148
X85.982Y-8.472
X177.388Y31.878
X184.892Y33.202
X42.97Y-3.39
X50.59Y-3.39
T3
X117.506Y-25.991
X118.634Y-19.589
T0
M30
