%TF.GenerationSoftware,KiCad,Pcbnew,(5.1.6-0-10_14)*%
%TF.CreationDate,2023-03-04T09:30:32+09:00*%
%TF.ProjectId,C-13XPCB,432d3133-5850-4434-922e-6b696361645f,rev?*%
%TF.SameCoordinates,Original*%
%TF.FileFunction,Legend,Top*%
%TF.FilePolarity,Positive*%
%FSLAX46Y46*%
G04 Gerber Fmt 4.6, Leading zero omitted, Abs format (unit mm)*
G04 Created by KiCad (PCBNEW (5.1.6-0-10_14)) date 2023-03-04 09:30:32*
%MOMM*%
%LPD*%
G01*
G04 APERTURE LIST*
%ADD10C,0.150000*%
%ADD11C,0.120000*%
%ADD12C,0.125000*%
G04 APERTURE END LIST*
D10*
%TO.C,D20*%
X136138745Y-18077456D02*
X136399217Y-16600244D01*
X130820783Y-17139756D02*
X136138745Y-18077456D01*
X131081255Y-15662544D02*
X130820783Y-17139756D01*
X136399217Y-16600244D02*
X131081255Y-15662544D01*
X133204420Y-16290772D02*
X133030772Y-17275580D01*
X134015580Y-17449228D02*
X133216077Y-16800541D01*
X134189228Y-16464420D02*
X134015580Y-17449228D01*
X133216077Y-16800541D02*
X134189228Y-16464420D01*
%TO.C,D1*%
X46450000Y37340000D02*
X47350000Y37840000D01*
X47350000Y37840000D02*
X47350000Y36840000D01*
X47350000Y36840000D02*
X46450000Y37340000D01*
X46350000Y37840000D02*
X46350000Y36840000D01*
X49550000Y38090000D02*
X44150000Y38090000D01*
X44150000Y38090000D02*
X44150000Y36590000D01*
X44150000Y36590000D02*
X49550000Y36590000D01*
X49550000Y36590000D02*
X49550000Y38090000D01*
%TO.C,D2*%
X49540000Y33850000D02*
X49540000Y35350000D01*
X44140000Y33850000D02*
X49540000Y33850000D01*
X44140000Y35350000D02*
X44140000Y33850000D01*
X49540000Y35350000D02*
X44140000Y35350000D01*
X46340000Y35100000D02*
X46340000Y34100000D01*
X47340000Y34100000D02*
X46440000Y34600000D01*
X47340000Y35100000D02*
X47340000Y34100000D01*
X46440000Y34600000D02*
X47340000Y35100000D01*
%TO.C,D3*%
X49610000Y-1390000D02*
X49610000Y110000D01*
X44210000Y-1390000D02*
X49610000Y-1390000D01*
X44210000Y110000D02*
X44210000Y-1390000D01*
X49610000Y110000D02*
X44210000Y110000D01*
X46410000Y-140000D02*
X46410000Y-1140000D01*
X47410000Y-1140000D02*
X46510000Y-640000D01*
X47410000Y-140000D02*
X47410000Y-1140000D01*
X46510000Y-640000D02*
X47410000Y-140000D01*
%TO.C,D4*%
X49480000Y-4140000D02*
X49480000Y-2640000D01*
X44080000Y-4140000D02*
X49480000Y-4140000D01*
X44080000Y-2640000D02*
X44080000Y-4140000D01*
X49480000Y-2640000D02*
X44080000Y-2640000D01*
X46280000Y-2890000D02*
X46280000Y-3890000D01*
X47280000Y-3890000D02*
X46380000Y-3390000D01*
X47280000Y-2890000D02*
X47280000Y-3890000D01*
X46380000Y-3390000D02*
X47280000Y-2890000D01*
%TO.C,D5*%
X68538745Y35292544D02*
X68799217Y36769756D01*
X63220783Y36230244D02*
X68538745Y35292544D01*
X63481255Y37707456D02*
X63220783Y36230244D01*
X68799217Y36769756D02*
X63481255Y37707456D01*
X65604420Y37079228D02*
X65430772Y36094420D01*
X66415580Y35920772D02*
X65616077Y36569459D01*
X66589228Y36905580D02*
X66415580Y35920772D01*
X65616077Y36569459D02*
X66589228Y36905580D01*
%TO.C,D6*%
X71928745Y31802544D02*
X72189217Y33279756D01*
X66610783Y32740244D02*
X71928745Y31802544D01*
X66871255Y34217456D02*
X66610783Y32740244D01*
X72189217Y33279756D02*
X66871255Y34217456D01*
X68994420Y33589228D02*
X68820772Y32604420D01*
X69805580Y32430772D02*
X69006077Y33079459D01*
X69979228Y33415580D02*
X69805580Y32430772D01*
X69006077Y33079459D02*
X69979228Y33415580D01*
%TO.C,D7*%
X75678745Y-4767456D02*
X75939217Y-3290244D01*
X70360783Y-3829756D02*
X75678745Y-4767456D01*
X70621255Y-2352544D02*
X70360783Y-3829756D01*
X75939217Y-3290244D02*
X70621255Y-2352544D01*
X72744420Y-2980772D02*
X72570772Y-3965580D01*
X73555580Y-4139228D02*
X72756077Y-3490541D01*
X73729228Y-3154420D02*
X73555580Y-4139228D01*
X72756077Y-3490541D02*
X73729228Y-3154420D01*
%TO.C,D8*%
X84758745Y-9017456D02*
X85019217Y-7540244D01*
X79440783Y-8079756D02*
X84758745Y-9017456D01*
X79701255Y-6602544D02*
X79440783Y-8079756D01*
X85019217Y-7540244D02*
X79701255Y-6602544D01*
X81824420Y-7230772D02*
X81650772Y-8215580D01*
X82635580Y-8389228D02*
X81836077Y-7740541D01*
X82809228Y-7404420D02*
X82635580Y-8389228D01*
X81836077Y-7740541D02*
X82809228Y-7404420D01*
%TO.C,D9*%
X86828745Y32062544D02*
X87089217Y33539756D01*
X81510783Y33000244D02*
X86828745Y32062544D01*
X81771255Y34477456D02*
X81510783Y33000244D01*
X87089217Y33539756D02*
X81771255Y34477456D01*
X83894420Y33849228D02*
X83720772Y32864420D01*
X84705580Y32690772D02*
X83906077Y33339459D01*
X84879228Y33675580D02*
X84705580Y32690772D01*
X83906077Y33339459D02*
X84879228Y33675580D01*
%TO.C,D10*%
X90928745Y28422544D02*
X91189217Y29899756D01*
X85610783Y29360244D02*
X90928745Y28422544D01*
X85871255Y30837456D02*
X85610783Y29360244D01*
X91189217Y29899756D02*
X85871255Y30837456D01*
X87994420Y30209228D02*
X87820772Y29224420D01*
X88805580Y29050772D02*
X88006077Y29699459D01*
X88979228Y30035580D02*
X88805580Y29050772D01*
X88006077Y29699459D02*
X88979228Y30035580D01*
%TO.C,D11*%
X93788745Y-7937456D02*
X94049217Y-6460244D01*
X88470783Y-6999756D02*
X93788745Y-7937456D01*
X88731255Y-5522544D02*
X88470783Y-6999756D01*
X94049217Y-6460244D02*
X88731255Y-5522544D01*
X90854420Y-6150772D02*
X90680772Y-7135580D01*
X91665580Y-7309228D02*
X90866077Y-6660541D01*
X91839228Y-6324420D02*
X91665580Y-7309228D01*
X90866077Y-6660541D02*
X91839228Y-6324420D01*
%TO.C,D13*%
X105848745Y28772544D02*
X106109217Y30249756D01*
X100530783Y29710244D02*
X105848745Y28772544D01*
X100791255Y31187456D02*
X100530783Y29710244D01*
X106109217Y30249756D02*
X100791255Y31187456D01*
X102914420Y30559228D02*
X102740772Y29574420D01*
X103725580Y29400772D02*
X102926077Y30049459D01*
X103899228Y30385580D02*
X103725580Y29400772D01*
X102926077Y30049459D02*
X103899228Y30385580D01*
%TO.C,D14*%
X109648745Y25112544D02*
X109909217Y26589756D01*
X104330783Y26050244D02*
X109648745Y25112544D01*
X104591255Y27527456D02*
X104330783Y26050244D01*
X109909217Y26589756D02*
X104591255Y27527456D01*
X106714420Y26899228D02*
X106540772Y25914420D01*
X107525580Y25740772D02*
X106726077Y26389459D01*
X107699228Y26725580D02*
X107525580Y25740772D01*
X106726077Y26389459D02*
X107699228Y26725580D01*
%TO.C,D15*%
X112908745Y-11397456D02*
X113169217Y-9920244D01*
X107590783Y-10459756D02*
X112908745Y-11397456D01*
X107851255Y-8982544D02*
X107590783Y-10459756D01*
X113169217Y-9920244D02*
X107851255Y-8982544D01*
X109974420Y-9610772D02*
X109800772Y-10595580D01*
X110785580Y-10769228D02*
X109986077Y-10120541D01*
X110959228Y-9784420D02*
X110785580Y-10769228D01*
X109986077Y-10120541D02*
X110959228Y-9784420D01*
%TO.C,D16*%
X110658745Y-13787456D02*
X110919217Y-12310244D01*
X105340783Y-12849756D02*
X110658745Y-13787456D01*
X105601255Y-11372544D02*
X105340783Y-12849756D01*
X110919217Y-12310244D02*
X105601255Y-11372544D01*
X107724420Y-12000772D02*
X107550772Y-12985580D01*
X108535580Y-13159228D02*
X107736077Y-12510541D01*
X108709228Y-12174420D02*
X108535580Y-13159228D01*
X107736077Y-12510541D02*
X108709228Y-12174420D01*
%TO.C,D17*%
X124008745Y25482544D02*
X124269217Y26959756D01*
X118690783Y26420244D02*
X124008745Y25482544D01*
X118951255Y27897456D02*
X118690783Y26420244D01*
X124269217Y26959756D02*
X118951255Y27897456D01*
X121074420Y27269228D02*
X120900772Y26284420D01*
X121885580Y26110772D02*
X121086077Y26759459D01*
X122059228Y27095580D02*
X121885580Y26110772D01*
X121086077Y26759459D02*
X122059228Y27095580D01*
%TO.C,D18*%
X128568745Y21882544D02*
X128829217Y23359756D01*
X123250783Y22820244D02*
X128568745Y21882544D01*
X123511255Y24297456D02*
X123250783Y22820244D01*
X128829217Y23359756D02*
X123511255Y24297456D01*
X125634420Y23669228D02*
X125460772Y22684420D01*
X126445580Y22510772D02*
X125646077Y23159459D01*
X126619228Y23495580D02*
X126445580Y22510772D01*
X125646077Y23159459D02*
X126619228Y23495580D01*
%TO.C,D19*%
X131308745Y-14547456D02*
X131569217Y-13070244D01*
X125990783Y-13609756D02*
X131308745Y-14547456D01*
X126251255Y-12132544D02*
X125990783Y-13609756D01*
X131569217Y-13070244D02*
X126251255Y-12132544D01*
X128374420Y-12760772D02*
X128200772Y-13745580D01*
X129185580Y-13919228D02*
X128386077Y-13270541D01*
X129359228Y-12934420D02*
X129185580Y-13919228D01*
X128386077Y-13270541D02*
X129359228Y-12934420D01*
%TO.C,D21*%
X166439217Y29000244D02*
X166178745Y30477456D01*
X161121255Y28062544D02*
X166439217Y29000244D01*
X160860783Y29539756D02*
X161121255Y28062544D01*
X166178745Y30477456D02*
X160860783Y29539756D01*
X163070772Y29675580D02*
X163244420Y28690772D01*
X164229228Y28864420D02*
X163256077Y29200541D01*
X164055580Y29849228D02*
X164229228Y28864420D01*
X163256077Y29200541D02*
X164055580Y29849228D01*
%TO.C,D22*%
X167486077Y27110541D02*
X168285580Y27759228D01*
X168285580Y27759228D02*
X168459228Y26774420D01*
X168459228Y26774420D02*
X167486077Y27110541D01*
X167300772Y27585580D02*
X167474420Y26600772D01*
X170408745Y28387456D02*
X165090783Y27449756D01*
X165090783Y27449756D02*
X165351255Y25972544D01*
X165351255Y25972544D02*
X170669217Y26910244D01*
X170669217Y26910244D02*
X170408745Y28387456D01*
%TO.C,D23*%
X148616077Y-12459459D02*
X149415580Y-11810772D01*
X149415580Y-11810772D02*
X149589228Y-12795580D01*
X149589228Y-12795580D02*
X148616077Y-12459459D01*
X148430772Y-11984420D02*
X148604420Y-12969228D01*
X151538745Y-11182544D02*
X146220783Y-12120244D01*
X146220783Y-12120244D02*
X146481255Y-13597456D01*
X146481255Y-13597456D02*
X151799217Y-12659756D01*
X151799217Y-12659756D02*
X151538745Y-11182544D01*
%TO.C,D24*%
X177376077Y-9399459D02*
X178175580Y-8750772D01*
X178175580Y-8750772D02*
X178349228Y-9735580D01*
X178349228Y-9735580D02*
X177376077Y-9399459D01*
X177190772Y-8924420D02*
X177364420Y-9909228D01*
X180298745Y-8122544D02*
X174980783Y-9060244D01*
X174980783Y-9060244D02*
X175241255Y-10537456D01*
X175241255Y-10537456D02*
X180559217Y-9599756D01*
X180559217Y-9599756D02*
X180298745Y-8122544D01*
%TO.C,D25*%
X180746077Y32470541D02*
X181545580Y33119228D01*
X181545580Y33119228D02*
X181719228Y32134420D01*
X181719228Y32134420D02*
X180746077Y32470541D01*
X180560772Y32945580D02*
X180734420Y31960772D01*
X183668745Y33747456D02*
X178350783Y32809756D01*
X178350783Y32809756D02*
X178611255Y31332544D01*
X178611255Y31332544D02*
X183929217Y32270244D01*
X183929217Y32270244D02*
X183668745Y33747456D01*
%TO.C,D26*%
X185096077Y30500541D02*
X185895580Y31149228D01*
X185895580Y31149228D02*
X186069228Y30164420D01*
X186069228Y30164420D02*
X185096077Y30500541D01*
X184910772Y30975580D02*
X185084420Y29990772D01*
X188018745Y31777456D02*
X182700783Y30839756D01*
X182700783Y30839756D02*
X182961255Y29362544D01*
X182961255Y29362544D02*
X188279217Y30300244D01*
X188279217Y30300244D02*
X188018745Y31777456D01*
%TO.C,D27*%
X182516077Y-6079459D02*
X183315580Y-5430772D01*
X183315580Y-5430772D02*
X183489228Y-6415580D01*
X183489228Y-6415580D02*
X182516077Y-6079459D01*
X182330772Y-5604420D02*
X182504420Y-6589228D01*
X185438745Y-4802544D02*
X180120783Y-5740244D01*
X180120783Y-5740244D02*
X180381255Y-7217456D01*
X180381255Y-7217456D02*
X185699217Y-6279756D01*
X185699217Y-6279756D02*
X185438745Y-4802544D01*
%TO.C,D28*%
X189246077Y-7419459D02*
X190045580Y-6770772D01*
X190045580Y-6770772D02*
X190219228Y-7755580D01*
X190219228Y-7755580D02*
X189246077Y-7419459D01*
X189060772Y-6944420D02*
X189234420Y-7929228D01*
X192168745Y-6142544D02*
X186850783Y-7080244D01*
X186850783Y-7080244D02*
X187111255Y-8557456D01*
X187111255Y-8557456D02*
X192429217Y-7619756D01*
X192429217Y-7619756D02*
X192168745Y-6142544D01*
%TO.C,D29*%
X199366077Y35840541D02*
X200165580Y36489228D01*
X200165580Y36489228D02*
X200339228Y35504420D01*
X200339228Y35504420D02*
X199366077Y35840541D01*
X199180772Y36315580D02*
X199354420Y35330772D01*
X202288745Y37117456D02*
X196970783Y36179756D01*
X196970783Y36179756D02*
X197231255Y34702544D01*
X197231255Y34702544D02*
X202549217Y35640244D01*
X202549217Y35640244D02*
X202288745Y37117456D01*
%TO.C,D30*%
X203976077Y33430541D02*
X204775580Y34079228D01*
X204775580Y34079228D02*
X204949228Y33094420D01*
X204949228Y33094420D02*
X203976077Y33430541D01*
X203790772Y33905580D02*
X203964420Y32920772D01*
X206898745Y34707456D02*
X201580783Y33769756D01*
X201580783Y33769756D02*
X201841255Y32292544D01*
X201841255Y32292544D02*
X207159217Y33230244D01*
X207159217Y33230244D02*
X206898745Y34707456D01*
%TO.C,D31*%
X202156077Y-2759459D02*
X202955580Y-2110772D01*
X202955580Y-2110772D02*
X203129228Y-3095580D01*
X203129228Y-3095580D02*
X202156077Y-2759459D01*
X201970772Y-2284420D02*
X202144420Y-3269228D01*
X205078745Y-1482544D02*
X199760783Y-2420244D01*
X199760783Y-2420244D02*
X200021255Y-3897456D01*
X200021255Y-3897456D02*
X205339217Y-2959756D01*
X205339217Y-2959756D02*
X205078745Y-1482544D01*
%TO.C,D32*%
X204156077Y-4879459D02*
X204955580Y-4230772D01*
X204955580Y-4230772D02*
X205129228Y-5215580D01*
X205129228Y-5215580D02*
X204156077Y-4879459D01*
X203970772Y-4404420D02*
X204144420Y-5389228D01*
X207078745Y-3602544D02*
X201760783Y-4540244D01*
X201760783Y-4540244D02*
X202021255Y-6017456D01*
X202021255Y-6017456D02*
X207339217Y-5079756D01*
X207339217Y-5079756D02*
X207078745Y-3602544D01*
%TO.C,D33*%
X219220000Y38140000D02*
X220120000Y38640000D01*
X220120000Y38640000D02*
X220120000Y37640000D01*
X220120000Y37640000D02*
X219220000Y38140000D01*
X219120000Y38640000D02*
X219120000Y37640000D01*
X222320000Y38890000D02*
X216920000Y38890000D01*
X216920000Y38890000D02*
X216920000Y37390000D01*
X216920000Y37390000D02*
X222320000Y37390000D01*
X222320000Y37390000D02*
X222320000Y38890000D01*
%TO.C,D34*%
X233610000Y34630000D02*
X234510000Y35130000D01*
X234510000Y35130000D02*
X234510000Y34130000D01*
X234510000Y34130000D02*
X233610000Y34630000D01*
X233510000Y35130000D02*
X233510000Y34130000D01*
X236710000Y35380000D02*
X231310000Y35380000D01*
X231310000Y35380000D02*
X231310000Y33880000D01*
X231310000Y33880000D02*
X236710000Y33880000D01*
X236710000Y33880000D02*
X236710000Y35380000D01*
%TO.C,D35*%
X221730000Y-880000D02*
X222630000Y-380000D01*
X222630000Y-380000D02*
X222630000Y-1380000D01*
X222630000Y-1380000D02*
X221730000Y-880000D01*
X221630000Y-380000D02*
X221630000Y-1380000D01*
X224830000Y-130000D02*
X219430000Y-130000D01*
X219430000Y-130000D02*
X219430000Y-1630000D01*
X219430000Y-1630000D02*
X224830000Y-1630000D01*
X224830000Y-1630000D02*
X224830000Y-130000D01*
%TO.C,D37*%
X238620000Y37240000D02*
X239520000Y37740000D01*
X239520000Y37740000D02*
X239520000Y36740000D01*
X239520000Y36740000D02*
X238620000Y37240000D01*
X238520000Y37740000D02*
X238520000Y36740000D01*
X241720000Y37990000D02*
X236320000Y37990000D01*
X236320000Y37990000D02*
X236320000Y36490000D01*
X236320000Y36490000D02*
X241720000Y36490000D01*
X241720000Y36490000D02*
X241720000Y37990000D01*
%TO.C,D39*%
X240120000Y-710000D02*
X241020000Y-210000D01*
X241020000Y-210000D02*
X241020000Y-1210000D01*
X241020000Y-1210000D02*
X240120000Y-710000D01*
X240020000Y-210000D02*
X240020000Y-1210000D01*
X243220000Y40000D02*
X237820000Y40000D01*
X237820000Y40000D02*
X237820000Y-1460000D01*
X237820000Y-1460000D02*
X243220000Y-1460000D01*
X243220000Y-1460000D02*
X243220000Y40000D01*
%TO.C,D40*%
X240230000Y-3470000D02*
X241130000Y-2970000D01*
X241130000Y-2970000D02*
X241130000Y-3970000D01*
X241130000Y-3970000D02*
X240230000Y-3470000D01*
X240130000Y-2970000D02*
X240130000Y-3970000D01*
X243330000Y-2720000D02*
X237930000Y-2720000D01*
X237930000Y-2720000D02*
X237930000Y-4220000D01*
X237930000Y-4220000D02*
X243330000Y-4220000D01*
X243330000Y-4220000D02*
X243330000Y-2720000D01*
%TO.C,SW41*%
X119272469Y-26048308D02*
X120314358Y-20139461D01*
X120314358Y-20139461D02*
X120068156Y-20096049D01*
X119272469Y-26048308D02*
X119026267Y-26004896D01*
X115825642Y-25440539D02*
X116071844Y-25483951D01*
X115825642Y-25440539D02*
X116867531Y-19531692D01*
X116867531Y-19531692D02*
X117113733Y-19575104D01*
%TO.C,U1*%
X131437669Y46748772D02*
X132284603Y46898109D01*
X148671804Y49787615D02*
X147834718Y49640014D01*
X131585270Y45911685D02*
X131437669Y46748772D01*
X148828088Y48901288D02*
X148671804Y49787615D01*
X136681844Y17007577D02*
X137469690Y17146496D01*
X153915979Y20046421D02*
X153078893Y19898820D01*
X136681844Y17007577D02*
X136534243Y17844664D01*
X153915979Y20046421D02*
X153768378Y20883507D01*
X149964370Y13663256D02*
X149738628Y14943506D01*
X149738628Y14943506D02*
X142352570Y13641145D01*
X142352570Y13641145D02*
X142578312Y12360895D01*
X142578312Y12360895D02*
X149964370Y13663256D01*
X146702968Y13443582D02*
X145718161Y13269934D01*
X145718161Y13269934D02*
X146097693Y13996883D01*
X146097693Y13996883D02*
X146702968Y13443582D01*
X146529200Y13565256D02*
X145839835Y13443703D01*
X146404672Y13695613D02*
X145912268Y13608789D01*
X146280144Y13825969D02*
X145984702Y13773875D01*
%TO.C,SW41*%
X118263304Y-24298871D02*
X117736466Y-24544450D01*
X118164077Y-24861618D02*
X117179269Y-24687970D01*
X117245421Y-24312805D01*
X117308854Y-24227283D01*
X117364019Y-24188656D01*
X117466079Y-24158298D01*
X117606766Y-24183105D01*
X117692288Y-24246539D01*
X117730915Y-24301703D01*
X117761273Y-24403763D01*
X117695121Y-24778928D01*
X117821873Y-23785852D02*
X117879756Y-23457582D01*
X118420415Y-23407854D02*
X118337725Y-23876810D01*
X117352917Y-23703162D01*
X117435607Y-23234206D01*
X118439671Y-23024420D02*
X118511373Y-22892002D01*
X118552718Y-22657524D01*
X118522360Y-22555464D01*
X118483734Y-22500300D01*
X118398212Y-22436866D01*
X118304420Y-22420328D01*
X118202360Y-22450686D01*
X118147196Y-22489313D01*
X118083762Y-22574835D01*
X118003791Y-22754148D01*
X117940357Y-22839671D01*
X117885192Y-22878297D01*
X117783132Y-22908655D01*
X117689341Y-22892117D01*
X117603819Y-22828683D01*
X117565192Y-22773519D01*
X117534834Y-22671459D01*
X117576179Y-22436981D01*
X117647882Y-22304563D01*
X118144363Y-21956923D02*
X118202246Y-21628654D01*
X118742904Y-21578925D02*
X118660215Y-22047882D01*
X117675407Y-21874233D01*
X117758096Y-21405277D01*
X117807710Y-21123904D02*
X117906938Y-20561156D01*
X118842132Y-21016178D02*
X117857324Y-20842530D01*
%TO.C,U1*%
D11*
X143579527Y14477625D02*
X143449291Y15216231D01*
X143788519Y14732068D01*
X143941695Y15303055D01*
X144071931Y14564450D01*
X144423648Y14626467D02*
X144336824Y15118871D01*
X144293412Y15365073D02*
X144264442Y15323699D01*
X144305815Y15294729D01*
X144334785Y15336103D01*
X144293412Y15365073D01*
X144305815Y15294729D01*
X145085709Y14779471D02*
X145021567Y14731896D01*
X144880880Y14707089D01*
X144804335Y14729857D01*
X144762962Y14758827D01*
X144715386Y14822969D01*
X144678176Y15033999D01*
X144700944Y15110544D01*
X144729914Y15151918D01*
X144794056Y15199493D01*
X144934743Y15224300D01*
X145011288Y15201532D01*
X145408456Y14800115D02*
X145321632Y15292519D01*
X145346438Y15151832D02*
X145369207Y15228377D01*
X145398177Y15269751D01*
X145462318Y15317326D01*
X145532662Y15329729D01*
X145971203Y14899342D02*
X145894658Y14922111D01*
X145853284Y14951081D01*
X145805709Y15015222D01*
X145768499Y15226253D01*
X145791267Y15302798D01*
X145820237Y15344171D01*
X145884379Y15391746D01*
X145989894Y15410351D01*
X146066439Y15387583D01*
X146107813Y15358613D01*
X146155388Y15294472D01*
X146192598Y15083441D01*
X146169830Y15006896D01*
X146140860Y14965523D01*
X146076718Y14917948D01*
X145971203Y14899342D01*
X146403714Y15737176D02*
X146509143Y15139257D01*
X146556719Y15075115D01*
X146598092Y15046145D01*
X146674637Y15023377D01*
X146815324Y15048184D01*
X146879466Y15095759D01*
X146908436Y15137132D01*
X146931204Y15213677D01*
X146825775Y15811596D01*
X147266354Y15163978D02*
X147378071Y15147411D01*
X147553930Y15178420D01*
X147618071Y15225995D01*
X147647041Y15267368D01*
X147669810Y15343914D01*
X147657406Y15414257D01*
X147609831Y15478399D01*
X147568458Y15507369D01*
X147491913Y15530137D01*
X147345024Y15540502D01*
X147268479Y15563270D01*
X147227105Y15592240D01*
X147179530Y15656382D01*
X147167127Y15726725D01*
X147189895Y15803270D01*
X147218865Y15844644D01*
X147283007Y15892219D01*
X147458865Y15923227D01*
X147570582Y15906661D01*
X148189145Y15689343D02*
X148300862Y15672776D01*
X148342235Y15643807D01*
X148389810Y15579665D01*
X148408415Y15474150D01*
X148385647Y15397605D01*
X148356677Y15356231D01*
X148292536Y15308656D01*
X148011162Y15259042D01*
X147880926Y15997648D01*
X148127128Y16041060D01*
X148203673Y16018292D01*
X148245046Y15989322D01*
X148292621Y15925180D01*
X148305025Y15854837D01*
X148282257Y15778292D01*
X148253287Y15736918D01*
X148189145Y15689343D01*
X147942943Y15645931D01*
X143579527Y14477625D02*
X143449291Y15216231D01*
X143788519Y14732068D01*
X143941695Y15303055D01*
X144071931Y14564450D01*
X144423648Y14626467D02*
X144336824Y15118871D01*
X144293412Y15365073D02*
X144264442Y15323699D01*
X144305815Y15294729D01*
X144334785Y15336103D01*
X144293412Y15365073D01*
X144305815Y15294729D01*
X145085709Y14779471D02*
X145021567Y14731896D01*
X144880880Y14707089D01*
X144804335Y14729857D01*
X144762962Y14758827D01*
X144715386Y14822969D01*
X144678176Y15033999D01*
X144700944Y15110544D01*
X144729914Y15151918D01*
X144794056Y15199493D01*
X144934743Y15224300D01*
X145011288Y15201532D01*
X145408456Y14800115D02*
X145321632Y15292519D01*
X145346438Y15151832D02*
X145369207Y15228377D01*
X145398177Y15269751D01*
X145462318Y15317326D01*
X145532662Y15329729D01*
X145971203Y14899342D02*
X145894658Y14922111D01*
X145853284Y14951081D01*
X145805709Y15015222D01*
X145768499Y15226253D01*
X145791267Y15302798D01*
X145820237Y15344171D01*
X145884379Y15391746D01*
X145989894Y15410351D01*
X146066439Y15387583D01*
X146107813Y15358613D01*
X146155388Y15294472D01*
X146192598Y15083441D01*
X146169830Y15006896D01*
X146140860Y14965523D01*
X146076718Y14917948D01*
X145971203Y14899342D01*
X146403714Y15737176D02*
X146509143Y15139257D01*
X146556719Y15075115D01*
X146598092Y15046145D01*
X146674637Y15023377D01*
X146815324Y15048184D01*
X146879466Y15095759D01*
X146908436Y15137132D01*
X146931204Y15213677D01*
X146825775Y15811596D01*
X147266354Y15163978D02*
X147378071Y15147411D01*
X147553930Y15178420D01*
X147618071Y15225995D01*
X147647041Y15267368D01*
X147669810Y15343914D01*
X147657406Y15414257D01*
X147609831Y15478399D01*
X147568458Y15507369D01*
X147491913Y15530137D01*
X147345024Y15540502D01*
X147268479Y15563270D01*
X147227105Y15592240D01*
X147179530Y15656382D01*
X147167127Y15726725D01*
X147189895Y15803270D01*
X147218865Y15844644D01*
X147283007Y15892219D01*
X147458865Y15923227D01*
X147570582Y15906661D01*
X148189145Y15689343D02*
X148300862Y15672776D01*
X148342235Y15643807D01*
X148389810Y15579665D01*
X148408415Y15474150D01*
X148385647Y15397605D01*
X148356677Y15356231D01*
X148292536Y15308656D01*
X148011162Y15259042D01*
X147880926Y15997648D01*
X148127128Y16041060D01*
X148203673Y16018292D01*
X148245046Y15989322D01*
X148292621Y15925180D01*
X148305025Y15854837D01*
X148282257Y15778292D01*
X148253287Y15736918D01*
X148189145Y15689343D01*
X147942943Y15645931D01*
D12*
X137017273Y43819587D02*
X136916811Y43838138D01*
X136879189Y43867770D01*
X136835366Y43932573D01*
X136816760Y44038088D01*
X136835777Y44113971D01*
X136860995Y44154683D01*
X136917634Y44200936D01*
X137168994Y44245257D01*
X137299230Y43506651D01*
X137079290Y43467870D01*
X137010248Y43491961D01*
X136972626Y43521593D01*
X136928803Y43586396D01*
X136916399Y43656739D01*
X136935416Y43732623D01*
X136960634Y43773335D01*
X137017273Y43819587D01*
X137237213Y43858368D01*
X136313217Y43586647D02*
X136226393Y44079051D01*
X136519931Y43332975D02*
X136584005Y43888251D01*
X136175544Y43816228D01*
X135545909Y43161228D02*
X135944023Y44210588D01*
X135169691Y43457543D02*
X135238733Y43433452D01*
X135276355Y43403820D01*
X135320178Y43339017D01*
X135326380Y43303846D01*
X135307363Y43227962D01*
X135282145Y43187250D01*
X135225507Y43140998D01*
X135099826Y43118837D01*
X135030785Y43142928D01*
X134993163Y43172560D01*
X134949339Y43237363D01*
X134943138Y43272535D01*
X134962154Y43348418D01*
X134987373Y43389130D01*
X135044011Y43435382D01*
X135169691Y43457543D01*
X135226330Y43503795D01*
X135251548Y43544507D01*
X135270564Y43620391D01*
X135245758Y43761078D01*
X135201934Y43825881D01*
X135164312Y43855512D01*
X135095270Y43879604D01*
X134969590Y43857443D01*
X134912952Y43811191D01*
X134887734Y43770479D01*
X134868717Y43694595D01*
X134893524Y43553908D01*
X134937347Y43489105D01*
X134974969Y43459474D01*
X135044011Y43435382D01*
X142296563Y22099202D02*
X142426800Y21360597D01*
X142269699Y21332895D01*
X142169237Y21351447D01*
X142093994Y21410710D01*
X142050170Y21475513D01*
X141993943Y21610659D01*
X141975338Y21716175D01*
X141981951Y21862402D01*
X142000968Y21938285D01*
X142051405Y22019709D01*
X142139463Y22071501D01*
X142296563Y22099202D01*
X141785995Y21320136D02*
X141760777Y21279424D01*
X141704138Y21233172D01*
X141547038Y21205471D01*
X141477996Y21229562D01*
X141440374Y21259194D01*
X141396551Y21323997D01*
X141384147Y21394340D01*
X141396962Y21505396D01*
X141699582Y21993938D01*
X141291122Y21921916D01*
X140673478Y21015173D02*
X141071593Y22064533D01*
X139940059Y21683687D02*
X140222017Y21370751D01*
X140317100Y21750169D02*
X140447336Y21011564D01*
X140195975Y20967242D01*
X140126934Y20991333D01*
X140089312Y21020965D01*
X140045488Y21085768D01*
X140026883Y21191283D01*
X140045900Y21267167D01*
X140071118Y21307879D01*
X140127757Y21354131D01*
X140379117Y21398452D01*
X139850355Y20906300D02*
X139280238Y21567343D01*
X139410474Y20828737D02*
X139720119Y21644906D01*
X138683257Y21462079D02*
X139060298Y21528561D01*
X138871777Y21495320D02*
X139002013Y20756714D01*
X139046248Y20873310D01*
X139096685Y20954734D01*
X139153323Y21000986D01*
X136583153Y46281606D02*
X136482691Y46300157D01*
X136445069Y46329789D01*
X136401246Y46394592D01*
X136382640Y46500107D01*
X136401657Y46575990D01*
X136426875Y46616702D01*
X136483514Y46662955D01*
X136734874Y46707276D01*
X136865110Y45968670D01*
X136645170Y45929889D01*
X136576128Y45953980D01*
X136538506Y45983612D01*
X136494683Y46048415D01*
X136482279Y46118758D01*
X136501296Y46194642D01*
X136526514Y46235354D01*
X136583153Y46281606D01*
X136803093Y46320387D01*
X135891089Y45796924D02*
X136205289Y45852326D01*
X136174692Y46209583D01*
X136149474Y46168871D01*
X136092835Y46122619D01*
X135935735Y46094918D01*
X135866693Y46119010D01*
X135829071Y46148641D01*
X135785248Y46213444D01*
X135754239Y46389303D01*
X135773256Y46465186D01*
X135798474Y46505898D01*
X135855113Y46552150D01*
X136012213Y46579851D01*
X136081255Y46555760D01*
X136118877Y46526129D01*
X135111789Y45623247D02*
X135509903Y46672607D01*
X134723991Y46352703D02*
X134598310Y46330542D01*
X134541672Y46284290D01*
X134516454Y46243578D01*
X134472219Y46126983D01*
X134465606Y45980756D01*
X134515219Y45699382D01*
X134559043Y45634579D01*
X134596665Y45604947D01*
X134665706Y45580856D01*
X134791387Y45603017D01*
X134848025Y45649269D01*
X134873243Y45689981D01*
X134892260Y45765865D01*
X134861251Y45941723D01*
X134817428Y46006526D01*
X134779806Y46036158D01*
X134710764Y46060249D01*
X134585084Y46038088D01*
X134528446Y45991836D01*
X134503227Y45951124D01*
X134484211Y45875241D01*
X138132766Y36574652D02*
X138157984Y36615364D01*
X138246043Y36667157D01*
X138308883Y36678237D01*
X138409345Y36659686D01*
X138484588Y36600423D01*
X138528412Y36535620D01*
X138584639Y36400473D01*
X138603244Y36294958D01*
X138596631Y36148731D01*
X138577614Y36072847D01*
X138527177Y35991423D01*
X138439119Y35939631D01*
X138376279Y35928551D01*
X138275817Y35947102D01*
X138238195Y35976733D01*
X137685038Y35806666D02*
X137810718Y35828827D01*
X137867356Y35875079D01*
X137892575Y35915791D01*
X137936810Y36032387D01*
X137943423Y36178614D01*
X137893809Y36459987D01*
X137849985Y36524790D01*
X137812364Y36554422D01*
X137743322Y36578513D01*
X137617642Y36556352D01*
X137561003Y36510100D01*
X137535785Y36469388D01*
X137516768Y36393505D01*
X137547777Y36217646D01*
X137591600Y36152843D01*
X137629222Y36123212D01*
X137698264Y36099120D01*
X137823944Y36121281D01*
X137880583Y36167533D01*
X137905801Y36208245D01*
X137924818Y36284129D01*
X136874318Y35627449D02*
X137272432Y36676809D01*
X136333975Y35568437D02*
X136648176Y35623839D01*
X136617579Y35981097D01*
X136592360Y35940385D01*
X136535722Y35894133D01*
X136378622Y35866432D01*
X136309580Y35890523D01*
X136271958Y35920155D01*
X136228135Y35984958D01*
X136197126Y36160816D01*
X136216143Y36236700D01*
X136241361Y36277412D01*
X136297999Y36323664D01*
X136455100Y36351365D01*
X136524141Y36327274D01*
X136561763Y36297642D01*
X141899760Y32147236D02*
X141799298Y32165787D01*
X141642198Y32138086D01*
X141585560Y32091834D01*
X141560341Y32051122D01*
X141541325Y31975238D01*
X141553728Y31904895D01*
X141597552Y31840092D01*
X141635173Y31810460D01*
X141704215Y31786369D01*
X141836097Y31773358D01*
X141905139Y31749267D01*
X141942761Y31719635D01*
X141986584Y31654832D01*
X141998988Y31584489D01*
X141979971Y31508605D01*
X141954753Y31467893D01*
X141898114Y31421641D01*
X141741014Y31393940D01*
X141640552Y31412491D01*
X140869100Y31929237D02*
X140894318Y31969949D01*
X140982377Y32021742D01*
X141045217Y32032822D01*
X141145679Y32014271D01*
X141220922Y31955008D01*
X141264746Y31890205D01*
X141320973Y31755058D01*
X141339578Y31649543D01*
X141332965Y31503316D01*
X141313948Y31427432D01*
X141263512Y31346008D01*
X141175453Y31294216D01*
X141112613Y31283136D01*
X141012151Y31301687D01*
X140974529Y31331318D01*
X140259716Y31894317D02*
X140573916Y31949719D01*
X140704152Y31211113D01*
X139704912Y30998655D02*
X140103027Y32048015D01*
X139348534Y31733651D02*
X139478770Y30995045D01*
X139321670Y30967344D01*
X139221208Y30985895D01*
X139145964Y31045158D01*
X139102141Y31109961D01*
X139045914Y31245108D01*
X139027309Y31350623D01*
X139033922Y31496850D01*
X139052939Y31572734D01*
X139103375Y31654158D01*
X139191434Y31705950D01*
X139348534Y31733651D01*
X138693269Y30856540D02*
X138630429Y30845460D01*
X138561387Y30869551D01*
X138523765Y30899182D01*
X138479941Y30963986D01*
X138423715Y31099132D01*
X138392706Y31274991D01*
X138399319Y31421218D01*
X138418336Y31497101D01*
X138443554Y31537813D01*
X138500192Y31584065D01*
X138563033Y31595146D01*
X138632074Y31571055D01*
X138669696Y31541423D01*
X138713520Y31476620D01*
X138769747Y31341473D01*
X138800755Y31165615D01*
X138794142Y31019388D01*
X138775125Y30943504D01*
X138749907Y30902792D01*
X138693269Y30856540D01*
X137725449Y30649622D02*
X138123563Y31698982D01*
X137562147Y30657093D02*
X137153686Y30585070D01*
X137324013Y30905225D01*
X137229752Y30888605D01*
X137160711Y30912696D01*
X137123089Y30942327D01*
X137079265Y31007131D01*
X137048257Y31182989D01*
X137067273Y31258873D01*
X137092492Y31299585D01*
X137149130Y31345837D01*
X137337650Y31379078D01*
X137406692Y31354987D01*
X137444314Y31325355D01*
X142349590Y29687986D02*
X142249128Y29706537D01*
X142092028Y29678836D01*
X142035390Y29632584D01*
X142010171Y29591872D01*
X141991155Y29515988D01*
X142003558Y29445645D01*
X142047382Y29380842D01*
X142085004Y29351210D01*
X142154045Y29327119D01*
X142285927Y29314108D01*
X142354969Y29290017D01*
X142392591Y29260385D01*
X142436414Y29195582D01*
X142448818Y29125239D01*
X142429801Y29049355D01*
X142404583Y29008643D01*
X142347944Y28962391D01*
X142190844Y28934690D01*
X142090382Y28953241D01*
X141683567Y29606813D02*
X141813804Y28868208D01*
X141656703Y28840506D01*
X141556241Y28859058D01*
X141480998Y28918321D01*
X141437174Y28983124D01*
X141380947Y29118270D01*
X141362342Y29223786D01*
X141368955Y29370013D01*
X141387972Y29445896D01*
X141438409Y29527320D01*
X141526467Y29579112D01*
X141683567Y29606813D01*
X141092377Y29284979D02*
X140778176Y29229577D01*
X141118006Y29507090D02*
X141028302Y28729702D01*
X140678126Y29429527D01*
X140123322Y28533865D02*
X140521437Y29583225D01*
X139766944Y29268861D02*
X139897180Y28530255D01*
X139740080Y28502554D01*
X139639618Y28521105D01*
X139564374Y28580368D01*
X139520551Y28645171D01*
X139464324Y28780318D01*
X139445719Y28885833D01*
X139452332Y29032060D01*
X139471349Y29107944D01*
X139521785Y29189368D01*
X139609844Y29241160D01*
X139766944Y29268861D01*
X138761502Y29091574D02*
X139138543Y29158057D01*
X138950022Y29124816D02*
X139080259Y28386210D01*
X139124494Y28502805D01*
X139174930Y28584229D01*
X139231569Y28630481D01*
X138143859Y28184832D02*
X138541973Y29234192D01*
X137936733Y28257106D02*
X137911515Y28216394D01*
X137854876Y28170142D01*
X137697776Y28142441D01*
X137628734Y28166532D01*
X137591112Y28196164D01*
X137547289Y28260967D01*
X137534886Y28331310D01*
X137547700Y28442366D01*
X137850320Y28930908D01*
X137441860Y28858886D01*
X138940206Y34200218D02*
X139070442Y33461612D01*
X138913342Y33433911D01*
X138812880Y33452462D01*
X138737637Y33511725D01*
X138693813Y33576529D01*
X138637586Y33711675D01*
X138618981Y33817190D01*
X138625594Y33963417D01*
X138644611Y34039301D01*
X138695047Y34120725D01*
X138783106Y34172517D01*
X138940206Y34200218D01*
X138084429Y33541608D02*
X137997605Y34034012D01*
X138291143Y33287936D02*
X138355217Y33843212D01*
X137946756Y33771189D01*
X137317121Y33116189D02*
X137715235Y34165549D01*
X136764786Y33308920D02*
X136677962Y33801323D01*
X136971500Y33055247D02*
X137035575Y33610524D01*
X136627114Y33538501D01*
X142660816Y19574092D02*
X142791052Y18835486D01*
X142633952Y18807785D01*
X142533490Y18826336D01*
X142458247Y18885599D01*
X142414423Y18950402D01*
X142358196Y19085549D01*
X142339591Y19191064D01*
X142346204Y19337291D01*
X142365221Y19413175D01*
X142415658Y19494598D01*
X142503716Y19546391D01*
X142660816Y19574092D01*
X142194071Y18730222D02*
X141785611Y18658199D01*
X141955937Y18978355D01*
X141861677Y18961734D01*
X141792635Y18985825D01*
X141755013Y19015457D01*
X141711190Y19080260D01*
X141680181Y19256118D01*
X141699198Y19332002D01*
X141724416Y19372714D01*
X141781055Y19418966D01*
X141969575Y19452207D01*
X142038617Y19428116D01*
X142076239Y19398485D01*
X141037731Y18490063D02*
X141435845Y19539423D01*
X140905849Y18503074D02*
X140528808Y18436591D01*
X140587092Y19208438D02*
X140717329Y18469833D01*
X140371708Y18408890D02*
X139801591Y19069933D01*
X139931827Y18331327D02*
X140241472Y19147496D01*
X139554787Y18264845D02*
X139491946Y18253765D01*
X139422905Y18277856D01*
X139385283Y18307487D01*
X139341459Y18372291D01*
X139285232Y18507437D01*
X139254224Y18683296D01*
X139260837Y18829523D01*
X139279854Y18905406D01*
X139305072Y18946118D01*
X139361710Y18992370D01*
X139424550Y19003451D01*
X139493592Y18979360D01*
X139531214Y18949728D01*
X139575038Y18884925D01*
X139631264Y18749778D01*
X139662273Y18573920D01*
X139655660Y18427693D01*
X139636643Y18351809D01*
X139611425Y18311097D01*
X139554787Y18264845D01*
X139476288Y25953740D02*
X139545330Y25929649D01*
X139639590Y25946269D01*
X139727649Y25998061D01*
X139778086Y26079485D01*
X139797102Y26155369D01*
X139803715Y26301596D01*
X139785110Y26407111D01*
X139728883Y26542258D01*
X139685060Y26607061D01*
X139609816Y26666324D01*
X139509354Y26684875D01*
X139446514Y26673795D01*
X139358456Y26622002D01*
X139333237Y26581290D01*
X139376649Y26335088D01*
X139502330Y26357249D01*
X139038053Y26601772D02*
X139168290Y25863166D01*
X138661013Y26535289D01*
X138791249Y25796684D01*
X138346812Y26479887D02*
X138477048Y25741282D01*
X138319948Y25713581D01*
X138219486Y25732132D01*
X138144243Y25791395D01*
X138100419Y25856198D01*
X138044192Y25991345D01*
X138025587Y26096860D01*
X138032200Y26243087D01*
X138051217Y26318970D01*
X138101654Y26400394D01*
X138189712Y26452186D01*
X138346812Y26479887D01*
X139901726Y23540961D02*
X139970768Y23516870D01*
X140065028Y23533490D01*
X140153087Y23585282D01*
X140203524Y23666706D01*
X140222540Y23742590D01*
X140229153Y23888817D01*
X140210548Y23994332D01*
X140154321Y24129479D01*
X140110498Y24194282D01*
X140035254Y24253545D01*
X139934792Y24272096D01*
X139871952Y24261016D01*
X139783894Y24209223D01*
X139758675Y24168511D01*
X139802087Y23922309D01*
X139927768Y23944470D01*
X139463491Y24188993D02*
X139593728Y23450387D01*
X139086451Y24122510D01*
X139216687Y23383905D01*
X138772250Y24067108D02*
X138902486Y23328503D01*
X138745386Y23300802D01*
X138644924Y23319353D01*
X138569681Y23378616D01*
X138525857Y23443419D01*
X138469630Y23578566D01*
X138451025Y23684081D01*
X138457638Y23830308D01*
X138476655Y23906191D01*
X138527092Y23987615D01*
X138615150Y24039407D01*
X138772250Y24067108D01*
X138054600Y39222738D02*
X138184836Y38484132D01*
X138027736Y38456431D01*
X137927274Y38474982D01*
X137852031Y38534245D01*
X137808207Y38599049D01*
X137751980Y38734195D01*
X137733375Y38839710D01*
X137739988Y38985937D01*
X137759005Y39061821D01*
X137809441Y39143245D01*
X137897500Y39195037D01*
X138054600Y39222738D01*
X137587855Y38378868D02*
X137147974Y38301306D01*
X137300519Y39089773D01*
X136431515Y38138709D02*
X136829629Y39188069D01*
X135922592Y38085238D02*
X136048272Y38107398D01*
X136104911Y38153651D01*
X136130129Y38194362D01*
X136174364Y38310958D01*
X136180977Y38457185D01*
X136131364Y38738559D01*
X136087540Y38803362D01*
X136049918Y38832993D01*
X135980876Y38857085D01*
X135855196Y38834924D01*
X135798558Y38788672D01*
X135773340Y38747960D01*
X135754323Y38672076D01*
X135785332Y38496218D01*
X135829155Y38431415D01*
X135866777Y38401783D01*
X135935819Y38377692D01*
X136061499Y38399853D01*
X136118137Y38446105D01*
X136143356Y38486817D01*
X136162372Y38562700D01*
X137648596Y41341568D02*
X137428656Y41302787D01*
X137266177Y41673055D02*
X137580377Y41728457D01*
X137710613Y40989851D01*
X137396413Y40934449D01*
X136830852Y40834725D02*
X136956532Y40856886D01*
X137013170Y40903138D01*
X137038389Y40943850D01*
X137082624Y41060446D01*
X137089237Y41206673D01*
X137039623Y41488046D01*
X136995800Y41552850D01*
X136958178Y41582481D01*
X136889136Y41606572D01*
X136763456Y41584412D01*
X136706817Y41538160D01*
X136681599Y41497448D01*
X136662582Y41421564D01*
X136693591Y41245705D01*
X136737414Y41180902D01*
X136775036Y41151271D01*
X136844078Y41127179D01*
X136969758Y41149340D01*
X137026397Y41195592D01*
X137051615Y41236304D01*
X137070632Y41312188D01*
X136020132Y40655508D02*
X136418247Y41704868D01*
X135856830Y40662979D02*
X135416949Y40585416D01*
X135569494Y41373884D01*
X146073278Y45967637D02*
X146450319Y46034119D01*
X146261799Y46000878D02*
X146392035Y45262272D01*
X146436270Y45378868D01*
X146486706Y45460292D01*
X146543345Y45506544D01*
X145637953Y45129307D02*
X145763634Y45151468D01*
X145820272Y45197720D01*
X145845490Y45238432D01*
X145889725Y45355028D01*
X145896338Y45501255D01*
X145846725Y45782628D01*
X145802901Y45847432D01*
X145765279Y45877063D01*
X145696237Y45901154D01*
X145570557Y45878994D01*
X145513919Y45832742D01*
X145488701Y45792030D01*
X145469684Y45716146D01*
X145500693Y45540288D01*
X145544516Y45475484D01*
X145582138Y45445853D01*
X145651180Y45421762D01*
X145776860Y45443922D01*
X145833498Y45490174D01*
X145858717Y45530886D01*
X145877733Y45606770D01*
X144827234Y44950090D02*
X145225348Y45999450D01*
X144319134Y45259416D02*
X144218672Y45277967D01*
X144181050Y45307599D01*
X144137227Y45372402D01*
X144118621Y45477917D01*
X144137638Y45553801D01*
X144162856Y45594513D01*
X144219495Y45640765D01*
X144470855Y45685087D01*
X144601091Y44946481D01*
X144381151Y44907699D01*
X144312109Y44931791D01*
X144274487Y44961422D01*
X144230664Y45026225D01*
X144218260Y45096569D01*
X144237277Y45172452D01*
X144262495Y45213164D01*
X144319134Y45259416D01*
X144539074Y45298198D01*
X143960287Y44906020D02*
X143935068Y44865308D01*
X143878430Y44819056D01*
X143721330Y44791355D01*
X143652288Y44815446D01*
X143614666Y44845078D01*
X143570843Y44909881D01*
X143558439Y44980224D01*
X143571254Y45091280D01*
X143873874Y45579823D01*
X143465413Y45507800D01*
X145639157Y48429656D02*
X146016198Y48496138D01*
X145827678Y48462897D02*
X145957914Y47724291D01*
X146002149Y47840887D01*
X146052585Y47922311D01*
X146109224Y47968563D01*
X145360933Y47619027D02*
X145298092Y47607947D01*
X145229051Y47632038D01*
X145191429Y47661670D01*
X145147605Y47726473D01*
X145091378Y47861620D01*
X145060370Y48037478D01*
X145066983Y48183705D01*
X145086000Y48259589D01*
X145111218Y48300301D01*
X145167856Y48346553D01*
X145230696Y48357633D01*
X145299738Y48333542D01*
X145337360Y48303910D01*
X145381184Y48239107D01*
X145437410Y48103961D01*
X145468419Y47928102D01*
X145461806Y47781875D01*
X145442789Y47705991D01*
X145417571Y47665280D01*
X145360933Y47619027D01*
X144393113Y47412109D02*
X144791227Y48461469D01*
X143885013Y47721435D02*
X143784551Y47739986D01*
X143746929Y47769618D01*
X143703106Y47834421D01*
X143684500Y47939936D01*
X143703517Y48015820D01*
X143728735Y48056532D01*
X143785374Y48102784D01*
X144036734Y48147106D01*
X144166970Y47408500D01*
X143947030Y47369718D01*
X143877988Y47393810D01*
X143840366Y47423441D01*
X143796543Y47488244D01*
X143784139Y47558588D01*
X143803156Y47634471D01*
X143828374Y47675183D01*
X143885013Y47721435D01*
X144104953Y47760217D01*
X143224369Y47242294D02*
X143350049Y47264454D01*
X143406687Y47310707D01*
X143431906Y47351418D01*
X143476141Y47468014D01*
X143482754Y47614241D01*
X143433140Y47895615D01*
X143389317Y47960418D01*
X143351695Y47990049D01*
X143282653Y48014141D01*
X143156973Y47991980D01*
X143100334Y47945728D01*
X143075116Y47905016D01*
X143056099Y47829132D01*
X143087108Y47653274D01*
X143130931Y47588470D01*
X143168553Y47558839D01*
X143237595Y47534748D01*
X143363275Y47556908D01*
X143419914Y47603161D01*
X143445132Y47643873D01*
X143464149Y47719756D01*
X146516080Y43456377D02*
X146893121Y43522859D01*
X146704601Y43489618D02*
X146834837Y42751012D01*
X146879072Y42867608D01*
X146929508Y42949032D01*
X146986147Y42995284D01*
X146037343Y42864249D02*
X145950519Y43356653D01*
X146244057Y42610577D02*
X146308132Y43165853D01*
X145899671Y43093831D01*
X145270036Y42438830D02*
X145668150Y43488190D01*
X144761936Y42748156D02*
X144661474Y42766707D01*
X144623852Y42796339D01*
X144580029Y42861142D01*
X144561423Y42966657D01*
X144580440Y43042541D01*
X144605658Y43083253D01*
X144662297Y43129505D01*
X144913657Y43173827D01*
X145043893Y42435221D01*
X144823953Y42396439D01*
X144754911Y42420531D01*
X144717289Y42450162D01*
X144673466Y42514965D01*
X144661062Y42585309D01*
X144680079Y42661192D01*
X144705297Y42701904D01*
X144761936Y42748156D01*
X144981876Y42786938D01*
X144446912Y42329957D02*
X144038452Y42257934D01*
X144208778Y42578089D01*
X144114518Y42561469D01*
X144045476Y42585560D01*
X144007854Y42615191D01*
X143964031Y42679995D01*
X143933022Y42855853D01*
X143952039Y42931737D01*
X143977257Y42972449D01*
X144033896Y43018701D01*
X144222416Y43051942D01*
X144291458Y43027851D01*
X144329080Y42998219D01*
X146958883Y40945117D02*
X147335924Y41011599D01*
X147147404Y40978358D02*
X147277640Y40239752D01*
X147321875Y40356348D01*
X147372311Y40437772D01*
X147428950Y40484024D01*
X146492138Y40101247D02*
X146806339Y40156649D01*
X146775742Y40513907D01*
X146750523Y40473195D01*
X146693885Y40426943D01*
X146536785Y40399242D01*
X146467743Y40423333D01*
X146430121Y40452964D01*
X146386298Y40517768D01*
X146355289Y40693626D01*
X146374306Y40769510D01*
X146399524Y40810222D01*
X146456162Y40856474D01*
X146613263Y40884175D01*
X146682304Y40860083D01*
X146719926Y40830452D01*
X145712839Y39927570D02*
X146110953Y40976930D01*
X145204739Y40236896D02*
X145104277Y40255447D01*
X145066655Y40285079D01*
X145022832Y40349882D01*
X145004226Y40455397D01*
X145023243Y40531281D01*
X145048461Y40571993D01*
X145105100Y40618245D01*
X145356460Y40662567D01*
X145486696Y39923961D01*
X145266756Y39885179D01*
X145197714Y39909271D01*
X145160092Y39938902D01*
X145116269Y40003705D01*
X145103865Y40074049D01*
X145122882Y40149932D01*
X145148100Y40190644D01*
X145204739Y40236896D01*
X145424679Y40275678D01*
X144351018Y40485280D02*
X144728059Y40551762D01*
X144539539Y40518521D02*
X144669775Y39779915D01*
X144714010Y39896511D01*
X144764447Y39977935D01*
X144821085Y40024187D01*
X147737387Y38275459D02*
X147423186Y38220057D01*
X147763017Y38497569D02*
X147673313Y37720182D01*
X147323136Y38420006D01*
X147107752Y37620458D02*
X147044911Y37609378D01*
X146975870Y37633469D01*
X146938248Y37663101D01*
X146894424Y37727904D01*
X146838197Y37863051D01*
X146807189Y38038909D01*
X146813802Y38185136D01*
X146832819Y38261020D01*
X146858037Y38301732D01*
X146914675Y38347984D01*
X146977515Y38359064D01*
X147046557Y38334973D01*
X147084179Y38305341D01*
X147128003Y38240538D01*
X147184229Y38105392D01*
X147215238Y37929533D01*
X147208625Y37783306D01*
X147189608Y37707422D01*
X147164390Y37666710D01*
X147107752Y37620458D01*
X146139931Y37413540D02*
X146538046Y38462900D01*
X145631832Y37722866D02*
X145851772Y37761648D01*
X145783553Y38148536D02*
X145913789Y37409931D01*
X145599589Y37354529D01*
X145411068Y37321287D02*
X144971188Y37243725D01*
X145123732Y38032192D01*
X148180190Y35764200D02*
X147865989Y35708798D01*
X148205820Y35986310D02*
X148116116Y35208923D01*
X147765939Y35908747D01*
X147200378Y35809024D02*
X147577419Y35875506D01*
X147388898Y35842265D02*
X147519134Y35103659D01*
X147563369Y35220255D01*
X147613806Y35301679D01*
X147670444Y35347931D01*
X146582734Y34902281D02*
X146980849Y35951641D01*
X146074635Y35211607D02*
X146294575Y35250389D01*
X146226356Y35637277D02*
X146356592Y34898672D01*
X146042392Y34843270D01*
X145508251Y34749086D02*
X145633931Y34771247D01*
X145690569Y34817499D01*
X145715788Y34858211D01*
X145760023Y34974806D01*
X145766636Y35121034D01*
X145717022Y35402407D01*
X145673199Y35467210D01*
X145635577Y35496842D01*
X145566535Y35520933D01*
X145440855Y35498772D01*
X145384216Y35452520D01*
X145358998Y35411808D01*
X145339981Y35335925D01*
X145370990Y35160066D01*
X145414814Y35095263D01*
X145452435Y35065631D01*
X145521477Y35041540D01*
X145647157Y35063701D01*
X145703796Y35109953D01*
X145729014Y35150665D01*
X145748031Y35226549D01*
X148614310Y33302180D02*
X148300109Y33246778D01*
X148639940Y33524290D02*
X148550236Y32746903D01*
X148200059Y33446727D01*
X148129371Y32745224D02*
X148104153Y32704512D01*
X148047515Y32658260D01*
X147890414Y32630559D01*
X147821373Y32654650D01*
X147783751Y32684282D01*
X147739927Y32749085D01*
X147727524Y32819428D01*
X147740339Y32930483D01*
X148042959Y33419026D01*
X147634498Y33347004D01*
X147016854Y32440261D02*
X147414969Y33489621D01*
X146508755Y32749587D02*
X146728695Y32788369D01*
X146660476Y33175257D02*
X146790712Y32436652D01*
X146476512Y32381250D01*
X145910951Y32281526D02*
X146225151Y32336928D01*
X146194554Y32694185D01*
X146169336Y32653473D01*
X146112697Y32607221D01*
X145955597Y32579520D01*
X145886555Y32603611D01*
X145848934Y32633243D01*
X145805110Y32698046D01*
X145774101Y32873905D01*
X145793118Y32949788D01*
X145818336Y32990500D01*
X145874975Y33036752D01*
X146032075Y33064453D01*
X146101117Y33040362D01*
X146138739Y33010731D01*
X149048431Y30840161D02*
X148734230Y30784759D01*
X149074061Y31062271D02*
X148984357Y30284884D01*
X148634180Y30984708D01*
X148607316Y30218402D02*
X148198855Y30146379D01*
X148369182Y30466534D01*
X148274922Y30449913D01*
X148205880Y30474005D01*
X148168258Y30503636D01*
X148124434Y30568439D01*
X148093426Y30744298D01*
X148112443Y30820182D01*
X148137661Y30860893D01*
X148194299Y30907146D01*
X148382820Y30940387D01*
X148451861Y30916295D01*
X148489483Y30886664D01*
X147450975Y29978242D02*
X147849090Y31027602D01*
X146942876Y30287568D02*
X147162816Y30326350D01*
X147094597Y30713238D02*
X147224833Y29974633D01*
X146910633Y29919231D01*
X146333080Y30071249D02*
X146246256Y30563653D01*
X146539794Y29817576D02*
X146603868Y30372853D01*
X146195408Y30300830D01*
X149667051Y27663610D02*
X149316874Y28363434D01*
X149227170Y27586047D01*
X148512356Y28149045D02*
X148537575Y28189757D01*
X148625633Y28241549D01*
X148688473Y28252630D01*
X148788935Y28234079D01*
X148864179Y28174816D01*
X148908002Y28110013D01*
X148964229Y27974866D01*
X148982834Y27869351D01*
X148976221Y27723124D01*
X148957204Y27647240D01*
X148906768Y27565816D01*
X148818709Y27514024D01*
X148755869Y27502944D01*
X148655407Y27521495D01*
X148617786Y27551126D01*
X147852535Y28032701D02*
X147877753Y28073413D01*
X147965812Y28125205D01*
X148028652Y28136286D01*
X148129114Y28117735D01*
X148204357Y28058472D01*
X148248181Y27993668D01*
X148304408Y27858522D01*
X148323013Y27753007D01*
X148316400Y27606780D01*
X148297383Y27530896D01*
X148246947Y27449472D01*
X148158888Y27397680D01*
X148096048Y27386599D01*
X147995586Y27405150D01*
X147957964Y27434782D01*
X149443822Y25898023D02*
X149725779Y25585087D01*
X149820862Y25964505D02*
X149951099Y25225900D01*
X149699738Y25181578D01*
X149630696Y25205669D01*
X149593075Y25235301D01*
X149549251Y25300104D01*
X149530646Y25405619D01*
X149549663Y25481503D01*
X149574881Y25522215D01*
X149631519Y25568467D01*
X149882880Y25612788D01*
X149198663Y25818530D02*
X149098201Y25837081D01*
X148941101Y25809380D01*
X148884463Y25763128D01*
X148859244Y25722416D01*
X148840228Y25646532D01*
X148852631Y25576189D01*
X148896454Y25511386D01*
X148934076Y25481754D01*
X149003118Y25457663D01*
X149135000Y25444652D01*
X149204042Y25420561D01*
X149241664Y25390929D01*
X149285487Y25326126D01*
X149297891Y25255782D01*
X149278874Y25179899D01*
X149253656Y25139187D01*
X149197017Y25092935D01*
X149039917Y25065234D01*
X148939455Y25083785D01*
X148757136Y25015372D02*
X148380096Y24948889D01*
X148438380Y25720737D02*
X148568616Y24982131D01*
X150152048Y22708260D02*
X150221090Y22684169D01*
X150315350Y22700789D01*
X150403409Y22752581D01*
X150453846Y22834005D01*
X150472862Y22909889D01*
X150479475Y23056116D01*
X150460870Y23161631D01*
X150404643Y23296778D01*
X150360820Y23361581D01*
X150285576Y23420844D01*
X150185114Y23439395D01*
X150122274Y23428315D01*
X150034216Y23376522D01*
X150008997Y23335810D01*
X150052409Y23089608D01*
X150178090Y23111769D01*
X149713813Y23356292D02*
X149844050Y22617686D01*
X149336773Y23289809D01*
X149467009Y22551204D01*
X149022572Y23234407D02*
X149152808Y22495802D01*
X148995708Y22468101D01*
X148895246Y22486652D01*
X148820003Y22545915D01*
X148776179Y22610718D01*
X148719952Y22745865D01*
X148701347Y22851380D01*
X148707960Y22997607D01*
X148726977Y23073490D01*
X148777414Y23154914D01*
X148865472Y23206706D01*
X149022572Y23234407D01*
X150423687Y20892124D02*
X150705645Y20579188D01*
X150800728Y20958606D02*
X150930964Y20220000D01*
X150679603Y20175679D01*
X150610562Y20199770D01*
X150572940Y20229401D01*
X150529116Y20294205D01*
X150510511Y20399720D01*
X150529528Y20475603D01*
X150554746Y20516315D01*
X150611384Y20562567D01*
X150862745Y20606889D01*
X150209537Y20636772D02*
X149895336Y20581370D01*
X150235167Y20858882D02*
X150145462Y20081495D01*
X149795286Y20781320D01*
X149768422Y20015013D02*
X149481085Y20725918D01*
X149448431Y20176181D01*
X149229725Y20681596D01*
X149202861Y19915289D01*
%TD*%
M02*
