%TF.GenerationSoftware,KiCad,Pcbnew,(5.1.6-0-10_14)*%
%TF.CreationDate,2023-03-04T09:30:32+09:00*%
%TF.ProjectId,C-13XPCB,432d3133-5850-4434-922e-6b696361645f,rev?*%
%TF.SameCoordinates,Original*%
%TF.FileFunction,Paste,Bot*%
%TF.FilePolarity,Positive*%
%FSLAX46Y46*%
G04 Gerber Fmt 4.6, Leading zero omitted, Abs format (unit mm)*
G04 Created by KiCad (PCBNEW (5.1.6-0-10_14)) date 2023-03-04 09:30:32*
%MOMM*%
%LPD*%
G01*
G04 APERTURE LIST*
%ADD10C,0.100000*%
%ADD11R,1.300000X0.950000*%
%ADD12R,2.550000X2.500000*%
G04 APERTURE END LIST*
D10*
%TO.C,SW20*%
G36*
X140328071Y-20072022D02*
G01*
X139893951Y-22534041D01*
X137382691Y-22091238D01*
X137816811Y-19629219D01*
X140328071Y-20072022D01*
G37*
G36*
X127156394Y-20328684D02*
G01*
X126722274Y-22790703D01*
X124211014Y-22347900D01*
X124645134Y-19885881D01*
X127156394Y-20328684D01*
G37*
%TD*%
%TO.C,D20*%
G36*
X134635426Y-17533138D02*
G01*
X134800392Y-16597571D01*
X136080642Y-16823314D01*
X135915676Y-17758881D01*
X134635426Y-17533138D01*
G37*
G36*
X131139358Y-16916686D02*
G01*
X131304324Y-15981119D01*
X132584574Y-16206862D01*
X132419608Y-17142429D01*
X131139358Y-16916686D01*
G37*
%TD*%
D11*
%TO.C,D1*%
X48625000Y37340000D03*
X45075000Y37340000D03*
%TD*%
%TO.C,D2*%
X45065000Y34600000D03*
X48615000Y34600000D03*
%TD*%
%TO.C,D3*%
X45135000Y-640000D03*
X48685000Y-640000D03*
%TD*%
%TO.C,D4*%
X45005000Y-3390000D03*
X48555000Y-3390000D03*
%TD*%
D10*
%TO.C,D5*%
G36*
X63539358Y36453314D02*
G01*
X63704324Y37388881D01*
X64984574Y37163138D01*
X64819608Y36227571D01*
X63539358Y36453314D01*
G37*
G36*
X67035426Y35836862D02*
G01*
X67200392Y36772429D01*
X68480642Y36546686D01*
X68315676Y35611119D01*
X67035426Y35836862D01*
G37*
%TD*%
%TO.C,D6*%
G36*
X66929358Y32963314D02*
G01*
X67094324Y33898881D01*
X68374574Y33673138D01*
X68209608Y32737571D01*
X66929358Y32963314D01*
G37*
G36*
X70425426Y32346862D02*
G01*
X70590392Y33282429D01*
X71870642Y33056686D01*
X71705676Y32121119D01*
X70425426Y32346862D01*
G37*
%TD*%
%TO.C,D7*%
G36*
X70679358Y-3606686D02*
G01*
X70844324Y-2671119D01*
X72124574Y-2896862D01*
X71959608Y-3832429D01*
X70679358Y-3606686D01*
G37*
G36*
X74175426Y-4223138D02*
G01*
X74340392Y-3287571D01*
X75620642Y-3513314D01*
X75455676Y-4448881D01*
X74175426Y-4223138D01*
G37*
%TD*%
%TO.C,D8*%
G36*
X79759358Y-7856686D02*
G01*
X79924324Y-6921119D01*
X81204574Y-7146862D01*
X81039608Y-8082429D01*
X79759358Y-7856686D01*
G37*
G36*
X83255426Y-8473138D02*
G01*
X83420392Y-7537571D01*
X84700642Y-7763314D01*
X84535676Y-8698881D01*
X83255426Y-8473138D01*
G37*
%TD*%
%TO.C,D9*%
G36*
X81829358Y33223314D02*
G01*
X81994324Y34158881D01*
X83274574Y33933138D01*
X83109608Y32997571D01*
X81829358Y33223314D01*
G37*
G36*
X85325426Y32606862D02*
G01*
X85490392Y33542429D01*
X86770642Y33316686D01*
X86605676Y32381119D01*
X85325426Y32606862D01*
G37*
%TD*%
%TO.C,D10*%
G36*
X85929358Y29583314D02*
G01*
X86094324Y30518881D01*
X87374574Y30293138D01*
X87209608Y29357571D01*
X85929358Y29583314D01*
G37*
G36*
X89425426Y28966862D02*
G01*
X89590392Y29902429D01*
X90870642Y29676686D01*
X90705676Y28741119D01*
X89425426Y28966862D01*
G37*
%TD*%
%TO.C,D11*%
G36*
X88789358Y-6776686D02*
G01*
X88954324Y-5841119D01*
X90234574Y-6066862D01*
X90069608Y-7002429D01*
X88789358Y-6776686D01*
G37*
G36*
X92285426Y-7393138D02*
G01*
X92450392Y-6457571D01*
X93730642Y-6683314D01*
X93565676Y-7618881D01*
X92285426Y-7393138D01*
G37*
%TD*%
%TO.C,D13*%
G36*
X100849358Y29933314D02*
G01*
X101014324Y30868881D01*
X102294574Y30643138D01*
X102129608Y29707571D01*
X100849358Y29933314D01*
G37*
G36*
X104345426Y29316862D02*
G01*
X104510392Y30252429D01*
X105790642Y30026686D01*
X105625676Y29091119D01*
X104345426Y29316862D01*
G37*
%TD*%
%TO.C,D14*%
G36*
X104649358Y26273314D02*
G01*
X104814324Y27208881D01*
X106094574Y26983138D01*
X105929608Y26047571D01*
X104649358Y26273314D01*
G37*
G36*
X108145426Y25656862D02*
G01*
X108310392Y26592429D01*
X109590642Y26366686D01*
X109425676Y25431119D01*
X108145426Y25656862D01*
G37*
%TD*%
%TO.C,D15*%
G36*
X107909358Y-10236686D02*
G01*
X108074324Y-9301119D01*
X109354574Y-9526862D01*
X109189608Y-10462429D01*
X107909358Y-10236686D01*
G37*
G36*
X111405426Y-10853138D02*
G01*
X111570392Y-9917571D01*
X112850642Y-10143314D01*
X112685676Y-11078881D01*
X111405426Y-10853138D01*
G37*
%TD*%
%TO.C,D16*%
G36*
X105659358Y-12626686D02*
G01*
X105824324Y-11691119D01*
X107104574Y-11916862D01*
X106939608Y-12852429D01*
X105659358Y-12626686D01*
G37*
G36*
X109155426Y-13243138D02*
G01*
X109320392Y-12307571D01*
X110600642Y-12533314D01*
X110435676Y-13468881D01*
X109155426Y-13243138D01*
G37*
%TD*%
%TO.C,D17*%
G36*
X119009358Y26643314D02*
G01*
X119174324Y27578881D01*
X120454574Y27353138D01*
X120289608Y26417571D01*
X119009358Y26643314D01*
G37*
G36*
X122505426Y26026862D02*
G01*
X122670392Y26962429D01*
X123950642Y26736686D01*
X123785676Y25801119D01*
X122505426Y26026862D01*
G37*
%TD*%
%TO.C,D18*%
G36*
X123569358Y23043314D02*
G01*
X123734324Y23978881D01*
X125014574Y23753138D01*
X124849608Y22817571D01*
X123569358Y23043314D01*
G37*
G36*
X127065426Y22426862D02*
G01*
X127230392Y23362429D01*
X128510642Y23136686D01*
X128345676Y22201119D01*
X127065426Y22426862D01*
G37*
%TD*%
%TO.C,D19*%
G36*
X126309358Y-13386686D02*
G01*
X126474324Y-12451119D01*
X127754574Y-12676862D01*
X127589608Y-13612429D01*
X126309358Y-13386686D01*
G37*
G36*
X129805426Y-14003138D02*
G01*
X129970392Y-13067571D01*
X131250642Y-13293314D01*
X131085676Y-14228881D01*
X129805426Y-14003138D01*
G37*
%TD*%
%TO.C,D21*%
G36*
X161344324Y28381119D02*
G01*
X161179358Y29316686D01*
X162459608Y29542429D01*
X162624574Y28606862D01*
X161344324Y28381119D01*
G37*
G36*
X164840392Y28997571D02*
G01*
X164675426Y29933138D01*
X165955676Y30158881D01*
X166120642Y29223314D01*
X164840392Y28997571D01*
G37*
%TD*%
%TO.C,D22*%
G36*
X169070392Y26907571D02*
G01*
X168905426Y27843138D01*
X170185676Y28068881D01*
X170350642Y27133314D01*
X169070392Y26907571D01*
G37*
G36*
X165574324Y26291119D02*
G01*
X165409358Y27226686D01*
X166689608Y27452429D01*
X166854574Y26516862D01*
X165574324Y26291119D01*
G37*
%TD*%
%TO.C,D23*%
G36*
X150200392Y-12662429D02*
G01*
X150035426Y-11726862D01*
X151315676Y-11501119D01*
X151480642Y-12436686D01*
X150200392Y-12662429D01*
G37*
G36*
X146704324Y-13278881D02*
G01*
X146539358Y-12343314D01*
X147819608Y-12117571D01*
X147984574Y-13053138D01*
X146704324Y-13278881D01*
G37*
%TD*%
%TO.C,D24*%
G36*
X178960392Y-9602429D02*
G01*
X178795426Y-8666862D01*
X180075676Y-8441119D01*
X180240642Y-9376686D01*
X178960392Y-9602429D01*
G37*
G36*
X175464324Y-10218881D02*
G01*
X175299358Y-9283314D01*
X176579608Y-9057571D01*
X176744574Y-9993138D01*
X175464324Y-10218881D01*
G37*
%TD*%
%TO.C,D25*%
G36*
X182330392Y32267571D02*
G01*
X182165426Y33203138D01*
X183445676Y33428881D01*
X183610642Y32493314D01*
X182330392Y32267571D01*
G37*
G36*
X178834324Y31651119D02*
G01*
X178669358Y32586686D01*
X179949608Y32812429D01*
X180114574Y31876862D01*
X178834324Y31651119D01*
G37*
%TD*%
%TO.C,D26*%
G36*
X186680392Y30297571D02*
G01*
X186515426Y31233138D01*
X187795676Y31458881D01*
X187960642Y30523314D01*
X186680392Y30297571D01*
G37*
G36*
X183184324Y29681119D02*
G01*
X183019358Y30616686D01*
X184299608Y30842429D01*
X184464574Y29906862D01*
X183184324Y29681119D01*
G37*
%TD*%
%TO.C,D27*%
G36*
X184100392Y-6282429D02*
G01*
X183935426Y-5346862D01*
X185215676Y-5121119D01*
X185380642Y-6056686D01*
X184100392Y-6282429D01*
G37*
G36*
X180604324Y-6898881D02*
G01*
X180439358Y-5963314D01*
X181719608Y-5737571D01*
X181884574Y-6673138D01*
X180604324Y-6898881D01*
G37*
%TD*%
%TO.C,D28*%
G36*
X190830392Y-7622429D02*
G01*
X190665426Y-6686862D01*
X191945676Y-6461119D01*
X192110642Y-7396686D01*
X190830392Y-7622429D01*
G37*
G36*
X187334324Y-8238881D02*
G01*
X187169358Y-7303314D01*
X188449608Y-7077571D01*
X188614574Y-8013138D01*
X187334324Y-8238881D01*
G37*
%TD*%
%TO.C,D29*%
G36*
X200950392Y35637571D02*
G01*
X200785426Y36573138D01*
X202065676Y36798881D01*
X202230642Y35863314D01*
X200950392Y35637571D01*
G37*
G36*
X197454324Y35021119D02*
G01*
X197289358Y35956686D01*
X198569608Y36182429D01*
X198734574Y35246862D01*
X197454324Y35021119D01*
G37*
%TD*%
%TO.C,D30*%
G36*
X205560392Y33227571D02*
G01*
X205395426Y34163138D01*
X206675676Y34388881D01*
X206840642Y33453314D01*
X205560392Y33227571D01*
G37*
G36*
X202064324Y32611119D02*
G01*
X201899358Y33546686D01*
X203179608Y33772429D01*
X203344574Y32836862D01*
X202064324Y32611119D01*
G37*
%TD*%
%TO.C,D31*%
G36*
X203740392Y-2962429D02*
G01*
X203575426Y-2026862D01*
X204855676Y-1801119D01*
X205020642Y-2736686D01*
X203740392Y-2962429D01*
G37*
G36*
X200244324Y-3578881D02*
G01*
X200079358Y-2643314D01*
X201359608Y-2417571D01*
X201524574Y-3353138D01*
X200244324Y-3578881D01*
G37*
%TD*%
%TO.C,D32*%
G36*
X205740392Y-5082429D02*
G01*
X205575426Y-4146862D01*
X206855676Y-3921119D01*
X207020642Y-4856686D01*
X205740392Y-5082429D01*
G37*
G36*
X202244324Y-5698881D02*
G01*
X202079358Y-4763314D01*
X203359608Y-4537571D01*
X203524574Y-5473138D01*
X202244324Y-5698881D01*
G37*
%TD*%
D11*
%TO.C,D33*%
X221395000Y38140000D03*
X217845000Y38140000D03*
%TD*%
%TO.C,D34*%
X235785000Y34630000D03*
X232235000Y34630000D03*
%TD*%
%TO.C,D35*%
X223905000Y-880000D03*
X220355000Y-880000D03*
%TD*%
%TO.C,D37*%
X240795000Y37240000D03*
X237245000Y37240000D03*
%TD*%
%TO.C,D39*%
X242295000Y-710000D03*
X238745000Y-710000D03*
%TD*%
%TO.C,D40*%
X242405000Y-3470000D03*
X238855000Y-3470000D03*
%TD*%
D12*
%TO.C,SW1*%
X52332000Y50570000D03*
X39405000Y48030000D03*
%TD*%
%TO.C,SW2*%
X38925000Y29060000D03*
X51852000Y31600000D03*
%TD*%
%TO.C,SW3*%
X39875000Y9950000D03*
X52802000Y12490000D03*
%TD*%
%TO.C,SW4*%
X37495000Y-9100000D03*
X50422000Y-6560000D03*
%TD*%
D10*
%TO.C,SW5*%
G36*
X61956393Y49281317D02*
G01*
X61522273Y46819298D01*
X59011013Y47262101D01*
X59445133Y49724120D01*
X61956393Y49281317D01*
G37*
G36*
X75128070Y49537979D02*
G01*
X74693950Y47075960D01*
X72182690Y47518763D01*
X72616810Y49980782D01*
X75128070Y49537979D01*
G37*
%TD*%
%TO.C,SW6*%
G36*
X63346393Y29681317D02*
G01*
X62912273Y27219298D01*
X60401013Y27662101D01*
X60835133Y30124120D01*
X63346393Y29681317D01*
G37*
G36*
X76518070Y29937979D02*
G01*
X76083950Y27475960D01*
X73572690Y27918763D01*
X74006810Y30380782D01*
X76518070Y29937979D01*
G37*
%TD*%
%TO.C,SW7*%
G36*
X69436393Y9321317D02*
G01*
X69002273Y6859298D01*
X66491013Y7302101D01*
X66925133Y9764120D01*
X69436393Y9321317D01*
G37*
G36*
X82608070Y9577979D02*
G01*
X82173950Y7115960D01*
X79662690Y7558763D01*
X80096810Y10020782D01*
X82608070Y9577979D01*
G37*
%TD*%
%TO.C,SW8*%
G36*
X75516393Y-11118683D02*
G01*
X75082273Y-13580702D01*
X72571013Y-13137899D01*
X73005133Y-10675880D01*
X75516393Y-11118683D01*
G37*
G36*
X88688070Y-10862021D02*
G01*
X88253950Y-13324040D01*
X85742690Y-12881237D01*
X86176810Y-10419218D01*
X88688070Y-10862021D01*
G37*
%TD*%
%TO.C,SW9*%
G36*
X80756393Y46021317D02*
G01*
X80322273Y43559298D01*
X77811013Y44002101D01*
X78245133Y46464120D01*
X80756393Y46021317D01*
G37*
G36*
X93928070Y46277979D02*
G01*
X93493950Y43815960D01*
X90982690Y44258763D01*
X91416810Y46720782D01*
X93928070Y46277979D01*
G37*
%TD*%
%TO.C,SW10*%
G36*
X82116393Y26371317D02*
G01*
X81682273Y23909298D01*
X79171013Y24352101D01*
X79605133Y26814120D01*
X82116393Y26371317D01*
G37*
G36*
X95288070Y26627979D02*
G01*
X94853950Y24165960D01*
X92342690Y24608763D01*
X92776810Y27070782D01*
X95288070Y26627979D01*
G37*
%TD*%
%TO.C,SW11*%
G36*
X88176393Y6021317D02*
G01*
X87742273Y3559298D01*
X85231013Y4002101D01*
X85665133Y6464120D01*
X88176393Y6021317D01*
G37*
G36*
X101348070Y6277979D02*
G01*
X100913950Y3815960D01*
X98402690Y4258763D01*
X98836810Y6720782D01*
X101348070Y6277979D01*
G37*
%TD*%
%TO.C,SW13*%
G36*
X99536393Y42661317D02*
G01*
X99102273Y40199298D01*
X96591013Y40642101D01*
X97025133Y43104120D01*
X99536393Y42661317D01*
G37*
G36*
X112708070Y42917979D02*
G01*
X112273950Y40455960D01*
X109762690Y40898763D01*
X110196810Y43360782D01*
X112708070Y42917979D01*
G37*
%TD*%
%TO.C,SW14*%
G36*
X100886393Y23151317D02*
G01*
X100452273Y20689298D01*
X97941013Y21132101D01*
X98375133Y23594120D01*
X100886393Y23151317D01*
G37*
G36*
X114058070Y23407979D02*
G01*
X113623950Y20945960D01*
X111112690Y21388763D01*
X111546810Y23850782D01*
X114058070Y23407979D01*
G37*
%TD*%
%TO.C,SW15*%
G36*
X106996393Y2691317D02*
G01*
X106562273Y229298D01*
X104051013Y672101D01*
X104485133Y3134120D01*
X106996393Y2691317D01*
G37*
G36*
X120168070Y2947979D02*
G01*
X119733950Y485960D01*
X117222690Y928763D01*
X117656810Y3390782D01*
X120168070Y2947979D01*
G37*
%TD*%
%TO.C,SW16*%
G36*
X101336393Y-15718683D02*
G01*
X100902273Y-18180702D01*
X98391013Y-17737899D01*
X98825133Y-15275880D01*
X101336393Y-15718683D01*
G37*
G36*
X114508070Y-15462021D02*
G01*
X114073950Y-17924040D01*
X111562690Y-17481237D01*
X111996810Y-15019218D01*
X114508070Y-15462021D01*
G37*
%TD*%
%TO.C,SW17*%
G36*
X118266393Y39401317D02*
G01*
X117832273Y36939298D01*
X115321013Y37382101D01*
X115755133Y39844120D01*
X118266393Y39401317D01*
G37*
G36*
X131438070Y39657979D02*
G01*
X131003950Y37195960D01*
X128492690Y37638763D01*
X128926810Y40100782D01*
X131438070Y39657979D01*
G37*
%TD*%
%TO.C,SW18*%
G36*
X119646393Y19741317D02*
G01*
X119212273Y17279298D01*
X116701013Y17722101D01*
X117135133Y20184120D01*
X119646393Y19741317D01*
G37*
G36*
X132818070Y19997979D02*
G01*
X132383950Y17535960D01*
X129872690Y17978763D01*
X130306810Y20440782D01*
X132818070Y19997979D01*
G37*
%TD*%
%TO.C,SW19*%
G36*
X125726393Y-678683D02*
G01*
X125292273Y-3140702D01*
X122781013Y-2697899D01*
X123215133Y-235880D01*
X125726393Y-678683D01*
G37*
G36*
X138898070Y-422021D02*
G01*
X138463950Y-2884040D01*
X135952690Y-2441237D01*
X136386810Y20782D01*
X138898070Y-422021D01*
G37*
%TD*%
%TO.C,SW21*%
G36*
X166779684Y44589687D02*
G01*
X167213804Y42127668D01*
X164702544Y41684865D01*
X164268424Y44146884D01*
X166779684Y44589687D01*
G37*
G36*
X154490141Y39843525D02*
G01*
X154924261Y37381506D01*
X152413001Y36938703D01*
X151978881Y39400722D01*
X154490141Y39843525D01*
G37*
%TD*%
%TO.C,SW22*%
G36*
X162490141Y21953525D02*
G01*
X162924261Y19491506D01*
X160413001Y19048703D01*
X159978881Y21510722D01*
X162490141Y21953525D01*
G37*
G36*
X174779684Y26699687D02*
G01*
X175213804Y24237668D01*
X172702544Y23794865D01*
X172268424Y26256884D01*
X174779684Y26699687D01*
G37*
%TD*%
%TO.C,SW23*%
G36*
X168729684Y6229687D02*
G01*
X169163804Y3767668D01*
X166652544Y3324865D01*
X166218424Y5786884D01*
X168729684Y6229687D01*
G37*
G36*
X156440141Y1483525D02*
G01*
X156874261Y-978494D01*
X154363001Y-1421297D01*
X153928881Y1040722D01*
X156440141Y1483525D01*
G37*
%TD*%
%TO.C,SW24*%
G36*
X167339684Y-13290313D02*
G01*
X167773804Y-15752332D01*
X165262544Y-16195135D01*
X164828424Y-13733116D01*
X167339684Y-13290313D01*
G37*
G36*
X155050141Y-18036475D02*
G01*
X155484261Y-20498494D01*
X152973001Y-20941297D01*
X152538881Y-18479278D01*
X155050141Y-18036475D01*
G37*
%TD*%
%TO.C,SW25*%
G36*
X185509684Y47929687D02*
G01*
X185943804Y45467668D01*
X183432544Y45024865D01*
X182998424Y47486884D01*
X185509684Y47929687D01*
G37*
G36*
X173220141Y43183525D02*
G01*
X173654261Y40721506D01*
X171143001Y40278703D01*
X170708881Y42740722D01*
X173220141Y43183525D01*
G37*
%TD*%
%TO.C,SW26*%
G36*
X193529684Y29919687D02*
G01*
X193963804Y27457668D01*
X191452544Y27014865D01*
X191018424Y29476884D01*
X193529684Y29919687D01*
G37*
G36*
X181240141Y25173525D02*
G01*
X181674261Y22711506D01*
X179163001Y22268703D01*
X178728881Y24730722D01*
X181240141Y25173525D01*
G37*
%TD*%
%TO.C,SW27*%
G36*
X187489684Y9569687D02*
G01*
X187923804Y7107668D01*
X185412544Y6664865D01*
X184978424Y9126884D01*
X187489684Y9569687D01*
G37*
G36*
X175200141Y4823525D02*
G01*
X175634261Y2361506D01*
X173123001Y1918703D01*
X172688881Y4380722D01*
X175200141Y4823525D01*
G37*
%TD*%
%TO.C,SW28*%
G36*
X188609684Y-9540313D02*
G01*
X189043804Y-12002332D01*
X186532544Y-12445135D01*
X186098424Y-9983116D01*
X188609684Y-9540313D01*
G37*
G36*
X176320141Y-14286475D02*
G01*
X176754261Y-16748494D01*
X174243001Y-17191297D01*
X173808881Y-14729278D01*
X176320141Y-14286475D01*
G37*
%TD*%
%TO.C,SW29*%
G36*
X204289684Y51229687D02*
G01*
X204723804Y48767668D01*
X202212544Y48324865D01*
X201778424Y50786884D01*
X204289684Y51229687D01*
G37*
G36*
X192000141Y46483525D02*
G01*
X192434261Y44021506D01*
X189923001Y43578703D01*
X189488881Y46040722D01*
X192000141Y46483525D01*
G37*
%TD*%
%TO.C,SW30*%
G36*
X212269684Y33229687D02*
G01*
X212703804Y30767668D01*
X210192544Y30324865D01*
X209758424Y32786884D01*
X212269684Y33229687D01*
G37*
G36*
X199980141Y28483525D02*
G01*
X200414261Y26021506D01*
X197903001Y25578703D01*
X197468881Y28040722D01*
X199980141Y28483525D01*
G37*
%TD*%
%TO.C,SW31*%
G36*
X206219684Y12849687D02*
G01*
X206653804Y10387668D01*
X204142544Y9944865D01*
X203708424Y12406884D01*
X206219684Y12849687D01*
G37*
G36*
X193930141Y8103525D02*
G01*
X194364261Y5641506D01*
X191853001Y5198703D01*
X191418881Y7660722D01*
X193930141Y8103525D01*
G37*
%TD*%
%TO.C,SW32*%
G36*
X209529684Y-5910313D02*
G01*
X209963804Y-8372332D01*
X207452544Y-8815135D01*
X207018424Y-6353116D01*
X209529684Y-5910313D01*
G37*
G36*
X197240141Y-10656475D02*
G01*
X197674261Y-13118494D01*
X195163001Y-13561297D01*
X194728881Y-11099278D01*
X197240141Y-10656475D01*
G37*
%TD*%
D12*
%TO.C,SW33*%
X224742000Y51540000D03*
X211815000Y49000000D03*
%TD*%
%TO.C,SW34*%
X239492000Y31540000D03*
X226565000Y29000000D03*
%TD*%
%TO.C,SW35*%
X226762000Y12460000D03*
X213835000Y9920000D03*
%TD*%
%TO.C,SW37*%
X243830000Y50600000D03*
X230903000Y48060000D03*
%TD*%
%TO.C,SW39*%
X248092000Y12490000D03*
X235165000Y9950000D03*
%TD*%
%TO.C,SW40*%
X245652000Y-6570000D03*
X232725000Y-9110000D03*
%TD*%
M02*
