M48
; DRILL file {KiCad (5.1.6-0-10_14)} date Saturday, March 04, 2023 at 09:30:35 AM
; FORMAT={-:-/ absolute / metric / decimal}
; #@! TF.CreationDate,2023-03-04T09:30:35+09:00
; #@! TF.GenerationSoftware,Kicad,Pcbnew,(5.1.6-0-10_14)
; #@! TF.FileFunction,NonPlated,1,2,NPTH
FMAT,2
METRIC
T1C1.900
T2C3.000
T3C4.100
%
G90
G05
T1
X155.867Y36.238
X165.873Y38.002
X177.697Y-17.892
X187.703Y-16.128
X215.84Y7.38
X226.0Y7.38
X99.597Y38.802
X109.603Y37.038
X100.947Y19.292
X110.953Y17.528
X118.327Y35.542
X128.333Y33.778
X80.817Y42.162
X90.823Y40.398
X41.41Y45.49
X51.57Y45.49
X163.867Y18.348
X173.873Y20.112
X201.357Y24.878
X211.363Y26.642
X232.908Y45.52
X243.068Y45.52
X62.017Y45.422
X72.023Y43.658
X182.617Y21.568
X192.623Y23.332
X195.307Y4.498
X205.313Y6.262
X198.617Y-14.262
X208.623Y-12.498
X107.057Y-1.168
X117.063Y-2.932
X119.707Y15.882
X129.713Y14.118
X213.82Y46.46
X223.98Y46.46
X82.177Y22.512
X92.183Y20.748
X88.237Y2.162
X98.243Y0.398
X40.93Y26.52
X51.09Y26.52
X157.817Y-2.122
X167.823Y-0.358
X156.427Y-21.642
X166.433Y-19.878
X63.407Y25.822
X73.413Y24.058
X176.577Y1.218
X186.583Y2.982
X101.397Y-19.578
X111.403Y-21.342
X127.217Y-24.188
X137.223Y-25.952
X125.787Y-4.538
X135.793Y-6.302
X193.377Y42.878
X203.383Y44.642
X228.57Y26.46
X238.73Y26.46
X41.88Y7.41
X52.04Y7.41
X39.5Y-11.64
X49.66Y-11.64
X174.597Y39.578
X184.603Y41.342
X237.17Y7.41
X247.33Y7.41
X234.73Y-11.65
X244.89Y-11.65
X69.497Y5.462
X79.503Y3.698
X75.577Y-14.978
X85.583Y-16.742
T2
X183.427Y24.29
X189.239Y27.894
X196.117Y7.22
X201.929Y10.824
X199.427Y-11.54
X205.239Y-7.936
X108.749Y1.113
X115.444Y2.512
X121.399Y18.163
X128.094Y19.562
X215.09Y49.0
X221.44Y51.54
X83.869Y24.793
X90.564Y26.192
X89.929Y4.443
X96.624Y5.842
X42.2Y29.06
X48.55Y31.6
X158.627Y0.6
X164.439Y4.204
X157.237Y-18.92
X163.049Y-15.316
X65.099Y28.103
X71.794Y29.502
X177.387Y3.94
X183.199Y7.544
X103.089Y-17.297
X109.784Y-15.898
X128.909Y-21.907
X135.604Y-20.508
X127.479Y-2.257
X134.174Y-0.858
X194.187Y45.6
X199.999Y49.204
X229.84Y29.0
X236.19Y31.54
X43.15Y9.95
X49.5Y12.49
X40.77Y-9.1
X47.12Y-6.56
X175.407Y42.3
X181.219Y45.904
X238.44Y9.95
X244.79Y12.49
X236.0Y-9.11
X242.35Y-6.57
X71.189Y7.743
X77.884Y9.142
X77.269Y-12.697
X83.964Y-11.298
X156.677Y38.96
X162.489Y42.564
X178.507Y-15.17
X184.319Y-11.566
X217.11Y9.92
X223.46Y12.46
X101.289Y41.083
X107.984Y42.482
X102.639Y21.573
X109.334Y22.972
X120.019Y37.823
X126.714Y39.222
X82.509Y44.443
X89.204Y45.842
X42.68Y48.03
X49.03Y50.57
X164.677Y21.07
X170.489Y24.674
X202.167Y27.6
X207.979Y31.204
X234.178Y48.06
X240.528Y50.6
X63.709Y47.703
X70.404Y49.102
T3
X124.71Y15.0
X218.9Y46.46
X87.18Y21.63
X93.24Y1.28
X46.01Y26.52
X162.82Y-1.24
X161.43Y-20.76
X68.41Y24.94
X181.58Y2.1
X106.4Y-20.46
X132.22Y-25.07
X130.79Y-5.42
X198.38Y43.76
X233.65Y26.46
X46.96Y7.41
X44.58Y-11.64
X179.6Y40.46
X242.25Y7.41
X239.81Y-11.65
X74.5Y4.58
X80.58Y-15.86
X160.87Y37.12
X182.7Y-17.01
X220.92Y7.38
X104.6Y37.92
X105.95Y18.41
X123.33Y34.66
X85.82Y41.28
X46.49Y45.49
X168.87Y19.23
X206.36Y25.76
X237.988Y45.52
X67.02Y44.54
X187.62Y22.45
X200.31Y5.38
X203.62Y-13.38
X112.06Y-2.05
T0
M30
